G04 #@! TF.GenerationSoftware,KiCad,Pcbnew,5.0.0*
G04 #@! TF.CreationDate,2018-08-27T22:55:41+02:00*
G04 #@! TF.ProjectId,Wuerfel,5775657266656C2E6B696361645F7063,rev?*
G04 #@! TF.SameCoordinates,Original*
G04 #@! TF.FileFunction,Legend,Bot*
G04 #@! TF.FilePolarity,Positive*
%FSLAX46Y46*%
G04 Gerber Fmt 4.6, Leading zero omitted, Abs format (unit mm)*
G04 Created by KiCad (PCBNEW 5.0.0) date Mon Aug 27 22:55:41 2018*
%MOMM*%
%LPD*%
G01*
G04 APERTURE LIST*
%ADD10C,0.150000*%
%ADD11C,0.120000*%
G04 APERTURE END LIST*
D10*
G04 #@! TO.C,BT1*
X194400000Y-70500000D02*
G75*
G03X194400000Y-70500000I-11400000J0D01*
G01*
X186200000Y-86700000D02*
X186200000Y-81500000D01*
X179800000Y-86700000D02*
X186200000Y-86700000D01*
X179800000Y-86700000D02*
X179800000Y-81500000D01*
D11*
G04 #@! TO.C,D1*
X136710000Y-74795000D02*
X136710000Y-71705000D01*
X141770000Y-73250000D02*
G75*
G03X141770000Y-73250000I-2500000J0D01*
G01*
X142260000Y-73250462D02*
G75*
G03X136710000Y-71705170I-2990000J462D01*
G01*
X142260000Y-73249538D02*
G75*
G02X136710000Y-74794830I-2990000J-462D01*
G01*
G04 #@! TO.C,D2*
X146710000Y-64795000D02*
X146710000Y-61705000D01*
X151770000Y-63250000D02*
G75*
G03X151770000Y-63250000I-2500000J0D01*
G01*
X152260000Y-63250462D02*
G75*
G03X146710000Y-61705170I-2990000J462D01*
G01*
X152260000Y-63249538D02*
G75*
G02X146710000Y-64794830I-2990000J-462D01*
G01*
G04 #@! TO.C,D3*
X126710000Y-84795000D02*
X126710000Y-81705000D01*
X131770000Y-83250000D02*
G75*
G03X131770000Y-83250000I-2500000J0D01*
G01*
X132260000Y-83250462D02*
G75*
G03X126710000Y-81705170I-2990000J462D01*
G01*
X132260000Y-83249538D02*
G75*
G02X126710000Y-84794830I-2990000J-462D01*
G01*
G04 #@! TO.C,D4*
X126710000Y-64795000D02*
X126710000Y-61705000D01*
X131770000Y-63250000D02*
G75*
G03X131770000Y-63250000I-2500000J0D01*
G01*
X132260000Y-63250462D02*
G75*
G03X126710000Y-61705170I-2990000J462D01*
G01*
X132260000Y-63249538D02*
G75*
G02X126710000Y-64794830I-2990000J-462D01*
G01*
G04 #@! TO.C,D5*
X146710000Y-84795000D02*
X146710000Y-81705000D01*
X151770000Y-83250000D02*
G75*
G03X151770000Y-83250000I-2500000J0D01*
G01*
X152260000Y-83250462D02*
G75*
G03X146710000Y-81705170I-2990000J462D01*
G01*
X152260000Y-83249538D02*
G75*
G02X146710000Y-84794830I-2990000J-462D01*
G01*
G04 #@! TO.C,D6*
X136670000Y-64795000D02*
X136670000Y-61705000D01*
X141730000Y-63250000D02*
G75*
G03X141730000Y-63250000I-2500000J0D01*
G01*
X142220000Y-63250462D02*
G75*
G03X136670000Y-61705170I-2990000J462D01*
G01*
X142220000Y-63249538D02*
G75*
G02X136670000Y-64794830I-2990000J-462D01*
G01*
G04 #@! TO.C,D7*
X136710000Y-84795000D02*
X136710000Y-81705000D01*
X141770000Y-83250000D02*
G75*
G03X141770000Y-83250000I-2500000J0D01*
G01*
X142260000Y-83250462D02*
G75*
G03X136710000Y-81705170I-2990000J462D01*
G01*
X142260000Y-83249538D02*
G75*
G02X136710000Y-84794830I-2990000J-462D01*
G01*
G04 #@! TO.C,R1*
X145880000Y-74250000D02*
X146650000Y-74250000D01*
X153960000Y-74250000D02*
X153190000Y-74250000D01*
X146650000Y-72880000D02*
X153190000Y-72880000D01*
X146650000Y-75620000D02*
X146650000Y-72880000D01*
X153190000Y-75620000D02*
X146650000Y-75620000D01*
X153190000Y-72880000D02*
X153190000Y-75620000D01*
G04 #@! TO.C,R2*
X145880000Y-68500000D02*
X146650000Y-68500000D01*
X153960000Y-68500000D02*
X153190000Y-68500000D01*
X146650000Y-67130000D02*
X153190000Y-67130000D01*
X146650000Y-69870000D02*
X146650000Y-67130000D01*
X153190000Y-69870000D02*
X146650000Y-69870000D01*
X153190000Y-67130000D02*
X153190000Y-69870000D01*
G04 #@! TO.C,R3*
X132460000Y-74250000D02*
X131690000Y-74250000D01*
X124380000Y-74250000D02*
X125150000Y-74250000D01*
X131690000Y-75620000D02*
X125150000Y-75620000D01*
X131690000Y-72880000D02*
X131690000Y-75620000D01*
X125150000Y-72880000D02*
X131690000Y-72880000D01*
X125150000Y-75620000D02*
X125150000Y-72880000D01*
G04 #@! TO.C,R4*
X132460000Y-68500000D02*
X131690000Y-68500000D01*
X124380000Y-68500000D02*
X125150000Y-68500000D01*
X131690000Y-69870000D02*
X125150000Y-69870000D01*
X131690000Y-67130000D02*
X131690000Y-69870000D01*
X125150000Y-67130000D02*
X131690000Y-67130000D01*
X125150000Y-69870000D02*
X125150000Y-67130000D01*
G04 #@! TO.C,R5*
X145880000Y-77750000D02*
X146650000Y-77750000D01*
X153960000Y-77750000D02*
X153190000Y-77750000D01*
X146650000Y-76380000D02*
X153190000Y-76380000D01*
X146650000Y-79120000D02*
X146650000Y-76380000D01*
X153190000Y-79120000D02*
X146650000Y-79120000D01*
X153190000Y-76380000D02*
X153190000Y-79120000D01*
G04 #@! TO.C,R6*
X156880000Y-61000000D02*
X157650000Y-61000000D01*
X164960000Y-61000000D02*
X164190000Y-61000000D01*
X157650000Y-59630000D02*
X164190000Y-59630000D01*
X157650000Y-62370000D02*
X157650000Y-59630000D01*
X164190000Y-62370000D02*
X157650000Y-62370000D01*
X164190000Y-59630000D02*
X164190000Y-62370000D01*
G04 #@! TO.C,R7*
X132460000Y-77750000D02*
X131690000Y-77750000D01*
X124380000Y-77750000D02*
X125150000Y-77750000D01*
X131690000Y-79120000D02*
X125150000Y-79120000D01*
X131690000Y-76380000D02*
X131690000Y-79120000D01*
X125150000Y-76380000D02*
X131690000Y-76380000D01*
X125150000Y-79120000D02*
X125150000Y-76380000D01*
G04 #@! TO.C,SW1*
X167750000Y-82000000D02*
X167750000Y-83500000D01*
X166500000Y-86000000D02*
X162000000Y-86000000D01*
X160750000Y-83500000D02*
X160750000Y-82000000D01*
X162000000Y-79500000D02*
X166500000Y-79500000D01*
G04 #@! TO.C,U1*
X158590000Y-72460000D02*
X158590000Y-70810000D01*
X168870000Y-72460000D02*
X158590000Y-72460000D01*
X168870000Y-67160000D02*
X168870000Y-72460000D01*
X158590000Y-67160000D02*
X168870000Y-67160000D01*
X158590000Y-68810000D02*
X158590000Y-67160000D01*
X158590000Y-70810000D02*
G75*
G03X158590000Y-68810000I0J1000000D01*
G01*
G04 #@! TO.C,BT1*
D10*
X189785714Y-83678571D02*
X189642857Y-83726190D01*
X189595238Y-83773809D01*
X189547619Y-83869047D01*
X189547619Y-84011904D01*
X189595238Y-84107142D01*
X189642857Y-84154761D01*
X189738095Y-84202380D01*
X190119047Y-84202380D01*
X190119047Y-83202380D01*
X189785714Y-83202380D01*
X189690476Y-83250000D01*
X189642857Y-83297619D01*
X189595238Y-83392857D01*
X189595238Y-83488095D01*
X189642857Y-83583333D01*
X189690476Y-83630952D01*
X189785714Y-83678571D01*
X190119047Y-83678571D01*
X189261904Y-83202380D02*
X188690476Y-83202380D01*
X188976190Y-84202380D02*
X188976190Y-83202380D01*
X187833333Y-84202380D02*
X188404761Y-84202380D01*
X188119047Y-84202380D02*
X188119047Y-83202380D01*
X188214285Y-83345238D01*
X188309523Y-83440476D01*
X188404761Y-83488095D01*
G04 #@! TO.C,D1*
X140008095Y-77662380D02*
X140008095Y-76662380D01*
X139770000Y-76662380D01*
X139627142Y-76710000D01*
X139531904Y-76805238D01*
X139484285Y-76900476D01*
X139436666Y-77090952D01*
X139436666Y-77233809D01*
X139484285Y-77424285D01*
X139531904Y-77519523D01*
X139627142Y-77614761D01*
X139770000Y-77662380D01*
X140008095Y-77662380D01*
X138484285Y-77662380D02*
X139055714Y-77662380D01*
X138770000Y-77662380D02*
X138770000Y-76662380D01*
X138865238Y-76805238D01*
X138960476Y-76900476D01*
X139055714Y-76948095D01*
G04 #@! TO.C,D2*
X145988095Y-63202380D02*
X145988095Y-62202380D01*
X145750000Y-62202380D01*
X145607142Y-62250000D01*
X145511904Y-62345238D01*
X145464285Y-62440476D01*
X145416666Y-62630952D01*
X145416666Y-62773809D01*
X145464285Y-62964285D01*
X145511904Y-63059523D01*
X145607142Y-63154761D01*
X145750000Y-63202380D01*
X145988095Y-63202380D01*
X145035714Y-62297619D02*
X144988095Y-62250000D01*
X144892857Y-62202380D01*
X144654761Y-62202380D01*
X144559523Y-62250000D01*
X144511904Y-62297619D01*
X144464285Y-62392857D01*
X144464285Y-62488095D01*
X144511904Y-62630952D01*
X145083333Y-63202380D01*
X144464285Y-63202380D01*
G04 #@! TO.C,D3*
X125988095Y-83702380D02*
X125988095Y-82702380D01*
X125750000Y-82702380D01*
X125607142Y-82750000D01*
X125511904Y-82845238D01*
X125464285Y-82940476D01*
X125416666Y-83130952D01*
X125416666Y-83273809D01*
X125464285Y-83464285D01*
X125511904Y-83559523D01*
X125607142Y-83654761D01*
X125750000Y-83702380D01*
X125988095Y-83702380D01*
X125083333Y-82702380D02*
X124464285Y-82702380D01*
X124797619Y-83083333D01*
X124654761Y-83083333D01*
X124559523Y-83130952D01*
X124511904Y-83178571D01*
X124464285Y-83273809D01*
X124464285Y-83511904D01*
X124511904Y-83607142D01*
X124559523Y-83654761D01*
X124654761Y-83702380D01*
X124940476Y-83702380D01*
X125035714Y-83654761D01*
X125083333Y-83607142D01*
G04 #@! TO.C,D4*
X125488095Y-63452380D02*
X125488095Y-62452380D01*
X125250000Y-62452380D01*
X125107142Y-62500000D01*
X125011904Y-62595238D01*
X124964285Y-62690476D01*
X124916666Y-62880952D01*
X124916666Y-63023809D01*
X124964285Y-63214285D01*
X125011904Y-63309523D01*
X125107142Y-63404761D01*
X125250000Y-63452380D01*
X125488095Y-63452380D01*
X124059523Y-62785714D02*
X124059523Y-63452380D01*
X124297619Y-62404761D02*
X124535714Y-63119047D01*
X123916666Y-63119047D01*
G04 #@! TO.C,D5*
X145988095Y-83702380D02*
X145988095Y-82702380D01*
X145750000Y-82702380D01*
X145607142Y-82750000D01*
X145511904Y-82845238D01*
X145464285Y-82940476D01*
X145416666Y-83130952D01*
X145416666Y-83273809D01*
X145464285Y-83464285D01*
X145511904Y-83559523D01*
X145607142Y-83654761D01*
X145750000Y-83702380D01*
X145988095Y-83702380D01*
X144511904Y-82702380D02*
X144988095Y-82702380D01*
X145035714Y-83178571D01*
X144988095Y-83130952D01*
X144892857Y-83083333D01*
X144654761Y-83083333D01*
X144559523Y-83130952D01*
X144511904Y-83178571D01*
X144464285Y-83273809D01*
X144464285Y-83511904D01*
X144511904Y-83607142D01*
X144559523Y-83654761D01*
X144654761Y-83702380D01*
X144892857Y-83702380D01*
X144988095Y-83654761D01*
X145035714Y-83607142D01*
G04 #@! TO.C,D6*
X135988095Y-63452380D02*
X135988095Y-62452380D01*
X135750000Y-62452380D01*
X135607142Y-62500000D01*
X135511904Y-62595238D01*
X135464285Y-62690476D01*
X135416666Y-62880952D01*
X135416666Y-63023809D01*
X135464285Y-63214285D01*
X135511904Y-63309523D01*
X135607142Y-63404761D01*
X135750000Y-63452380D01*
X135988095Y-63452380D01*
X134559523Y-62452380D02*
X134750000Y-62452380D01*
X134845238Y-62500000D01*
X134892857Y-62547619D01*
X134988095Y-62690476D01*
X135035714Y-62880952D01*
X135035714Y-63261904D01*
X134988095Y-63357142D01*
X134940476Y-63404761D01*
X134845238Y-63452380D01*
X134654761Y-63452380D01*
X134559523Y-63404761D01*
X134511904Y-63357142D01*
X134464285Y-63261904D01*
X134464285Y-63023809D01*
X134511904Y-62928571D01*
X134559523Y-62880952D01*
X134654761Y-62833333D01*
X134845238Y-62833333D01*
X134940476Y-62880952D01*
X134988095Y-62928571D01*
X135035714Y-63023809D01*
G04 #@! TO.C,D7*
X135988095Y-83702380D02*
X135988095Y-82702380D01*
X135750000Y-82702380D01*
X135607142Y-82750000D01*
X135511904Y-82845238D01*
X135464285Y-82940476D01*
X135416666Y-83130952D01*
X135416666Y-83273809D01*
X135464285Y-83464285D01*
X135511904Y-83559523D01*
X135607142Y-83654761D01*
X135750000Y-83702380D01*
X135988095Y-83702380D01*
X135083333Y-82702380D02*
X134416666Y-82702380D01*
X134845238Y-83702380D01*
G04 #@! TO.C,R1*
X144916666Y-72702380D02*
X145250000Y-72226190D01*
X145488095Y-72702380D02*
X145488095Y-71702380D01*
X145107142Y-71702380D01*
X145011904Y-71750000D01*
X144964285Y-71797619D01*
X144916666Y-71892857D01*
X144916666Y-72035714D01*
X144964285Y-72130952D01*
X145011904Y-72178571D01*
X145107142Y-72226190D01*
X145488095Y-72226190D01*
X143964285Y-72702380D02*
X144535714Y-72702380D01*
X144250000Y-72702380D02*
X144250000Y-71702380D01*
X144345238Y-71845238D01*
X144440476Y-71940476D01*
X144535714Y-71988095D01*
G04 #@! TO.C,R2*
X144916666Y-66702380D02*
X145250000Y-66226190D01*
X145488095Y-66702380D02*
X145488095Y-65702380D01*
X145107142Y-65702380D01*
X145011904Y-65750000D01*
X144964285Y-65797619D01*
X144916666Y-65892857D01*
X144916666Y-66035714D01*
X144964285Y-66130952D01*
X145011904Y-66178571D01*
X145107142Y-66226190D01*
X145488095Y-66226190D01*
X144535714Y-65797619D02*
X144488095Y-65750000D01*
X144392857Y-65702380D01*
X144154761Y-65702380D01*
X144059523Y-65750000D01*
X144011904Y-65797619D01*
X143964285Y-65892857D01*
X143964285Y-65988095D01*
X144011904Y-66130952D01*
X144583333Y-66702380D01*
X143964285Y-66702380D01*
G04 #@! TO.C,R3*
X133666666Y-72952380D02*
X134000000Y-72476190D01*
X134238095Y-72952380D02*
X134238095Y-71952380D01*
X133857142Y-71952380D01*
X133761904Y-72000000D01*
X133714285Y-72047619D01*
X133666666Y-72142857D01*
X133666666Y-72285714D01*
X133714285Y-72380952D01*
X133761904Y-72428571D01*
X133857142Y-72476190D01*
X134238095Y-72476190D01*
X133333333Y-71952380D02*
X132714285Y-71952380D01*
X133047619Y-72333333D01*
X132904761Y-72333333D01*
X132809523Y-72380952D01*
X132761904Y-72428571D01*
X132714285Y-72523809D01*
X132714285Y-72761904D01*
X132761904Y-72857142D01*
X132809523Y-72904761D01*
X132904761Y-72952380D01*
X133190476Y-72952380D01*
X133285714Y-72904761D01*
X133333333Y-72857142D01*
G04 #@! TO.C,R4*
X133666666Y-67202380D02*
X134000000Y-66726190D01*
X134238095Y-67202380D02*
X134238095Y-66202380D01*
X133857142Y-66202380D01*
X133761904Y-66250000D01*
X133714285Y-66297619D01*
X133666666Y-66392857D01*
X133666666Y-66535714D01*
X133714285Y-66630952D01*
X133761904Y-66678571D01*
X133857142Y-66726190D01*
X134238095Y-66726190D01*
X132809523Y-66535714D02*
X132809523Y-67202380D01*
X133047619Y-66154761D02*
X133285714Y-66869047D01*
X132666666Y-66869047D01*
G04 #@! TO.C,R5*
X144916666Y-80202380D02*
X145250000Y-79726190D01*
X145488095Y-80202380D02*
X145488095Y-79202380D01*
X145107142Y-79202380D01*
X145011904Y-79250000D01*
X144964285Y-79297619D01*
X144916666Y-79392857D01*
X144916666Y-79535714D01*
X144964285Y-79630952D01*
X145011904Y-79678571D01*
X145107142Y-79726190D01*
X145488095Y-79726190D01*
X144011904Y-79202380D02*
X144488095Y-79202380D01*
X144535714Y-79678571D01*
X144488095Y-79630952D01*
X144392857Y-79583333D01*
X144154761Y-79583333D01*
X144059523Y-79630952D01*
X144011904Y-79678571D01*
X143964285Y-79773809D01*
X143964285Y-80011904D01*
X144011904Y-80107142D01*
X144059523Y-80154761D01*
X144154761Y-80202380D01*
X144392857Y-80202380D01*
X144488095Y-80154761D01*
X144535714Y-80107142D01*
G04 #@! TO.C,R6*
X168916666Y-61202380D02*
X169250000Y-60726190D01*
X169488095Y-61202380D02*
X169488095Y-60202380D01*
X169107142Y-60202380D01*
X169011904Y-60250000D01*
X168964285Y-60297619D01*
X168916666Y-60392857D01*
X168916666Y-60535714D01*
X168964285Y-60630952D01*
X169011904Y-60678571D01*
X169107142Y-60726190D01*
X169488095Y-60726190D01*
X168059523Y-60202380D02*
X168250000Y-60202380D01*
X168345238Y-60250000D01*
X168392857Y-60297619D01*
X168488095Y-60440476D01*
X168535714Y-60630952D01*
X168535714Y-61011904D01*
X168488095Y-61107142D01*
X168440476Y-61154761D01*
X168345238Y-61202380D01*
X168154761Y-61202380D01*
X168059523Y-61154761D01*
X168011904Y-61107142D01*
X167964285Y-61011904D01*
X167964285Y-60773809D01*
X168011904Y-60678571D01*
X168059523Y-60630952D01*
X168154761Y-60583333D01*
X168345238Y-60583333D01*
X168440476Y-60630952D01*
X168488095Y-60678571D01*
X168535714Y-60773809D01*
G04 #@! TO.C,R7*
X133666666Y-79952380D02*
X134000000Y-79476190D01*
X134238095Y-79952380D02*
X134238095Y-78952380D01*
X133857142Y-78952380D01*
X133761904Y-79000000D01*
X133714285Y-79047619D01*
X133666666Y-79142857D01*
X133666666Y-79285714D01*
X133714285Y-79380952D01*
X133761904Y-79428571D01*
X133857142Y-79476190D01*
X134238095Y-79476190D01*
X133333333Y-78952380D02*
X132666666Y-78952380D01*
X133095238Y-79952380D01*
G04 #@! TO.C,SW1*
X165583333Y-87404761D02*
X165440476Y-87452380D01*
X165202380Y-87452380D01*
X165107142Y-87404761D01*
X165059523Y-87357142D01*
X165011904Y-87261904D01*
X165011904Y-87166666D01*
X165059523Y-87071428D01*
X165107142Y-87023809D01*
X165202380Y-86976190D01*
X165392857Y-86928571D01*
X165488095Y-86880952D01*
X165535714Y-86833333D01*
X165583333Y-86738095D01*
X165583333Y-86642857D01*
X165535714Y-86547619D01*
X165488095Y-86500000D01*
X165392857Y-86452380D01*
X165154761Y-86452380D01*
X165011904Y-86500000D01*
X164678571Y-86452380D02*
X164440476Y-87452380D01*
X164250000Y-86738095D01*
X164059523Y-87452380D01*
X163821428Y-86452380D01*
X162916666Y-87452380D02*
X163488095Y-87452380D01*
X163202380Y-87452380D02*
X163202380Y-86452380D01*
X163297619Y-86595238D01*
X163392857Y-86690476D01*
X163488095Y-86738095D01*
G04 #@! TO.C,U1*
X157042380Y-69048095D02*
X157851904Y-69048095D01*
X157947142Y-69095714D01*
X157994761Y-69143333D01*
X158042380Y-69238571D01*
X158042380Y-69429047D01*
X157994761Y-69524285D01*
X157947142Y-69571904D01*
X157851904Y-69619523D01*
X157042380Y-69619523D01*
X158042380Y-70619523D02*
X158042380Y-70048095D01*
X158042380Y-70333809D02*
X157042380Y-70333809D01*
X157185238Y-70238571D01*
X157280476Y-70143333D01*
X157328095Y-70048095D01*
G04 #@! TD*
M02*
