G04 #@! TF.GenerationSoftware,KiCad,Pcbnew,5.0.0*
G04 #@! TF.CreationDate,2018-08-27T22:55:41+02:00*
G04 #@! TF.ProjectId,Wuerfel,5775657266656C2E6B696361645F7063,rev?*
G04 #@! TF.SameCoordinates,Original*
G04 #@! TF.FileFunction,Soldermask,Top*
G04 #@! TF.FilePolarity,Negative*
%FSLAX46Y46*%
G04 Gerber Fmt 4.6, Leading zero omitted, Abs format (unit mm)*
G04 Created by KiCad (PCBNEW 5.0.0) date Mon Aug 27 22:55:41 2018*
%MOMM*%
%LPD*%
G01*
G04 APERTURE LIST*
%ADD10C,0.300000*%
%ADD11C,2.900000*%
%ADD12C,2.200000*%
%ADD13R,2.200000X2.200000*%
%ADD14O,2.000000X2.000000*%
%ADD15C,2.000000*%
%ADD16C,2.400000*%
%ADD17R,2.000000X2.000000*%
G04 APERTURE END LIST*
D10*
X178714285Y-72428571D02*
X179071428Y-73928571D01*
X179357142Y-72857142D01*
X179642857Y-73928571D01*
X180000000Y-72428571D01*
X181214285Y-72928571D02*
X181214285Y-73928571D01*
X180571428Y-72928571D02*
X180571428Y-73714285D01*
X180642857Y-73857142D01*
X180785714Y-73928571D01*
X181000000Y-73928571D01*
X181142857Y-73857142D01*
X181214285Y-73785714D01*
X182500000Y-73857142D02*
X182357142Y-73928571D01*
X182071428Y-73928571D01*
X181928571Y-73857142D01*
X181857142Y-73714285D01*
X181857142Y-73142857D01*
X181928571Y-73000000D01*
X182071428Y-72928571D01*
X182357142Y-72928571D01*
X182500000Y-73000000D01*
X182571428Y-73142857D01*
X182571428Y-73285714D01*
X181857142Y-73428571D01*
X183214285Y-73928571D02*
X183214285Y-72928571D01*
X183214285Y-73214285D02*
X183285714Y-73071428D01*
X183357142Y-73000000D01*
X183500000Y-72928571D01*
X183642857Y-72928571D01*
X183928571Y-72928571D02*
X184500000Y-72928571D01*
X184142857Y-73928571D02*
X184142857Y-72642857D01*
X184214285Y-72500000D01*
X184357142Y-72428571D01*
X184500000Y-72428571D01*
X185571428Y-73857142D02*
X185428571Y-73928571D01*
X185142857Y-73928571D01*
X185000000Y-73857142D01*
X184928571Y-73714285D01*
X184928571Y-73142857D01*
X185000000Y-73000000D01*
X185142857Y-72928571D01*
X185428571Y-72928571D01*
X185571428Y-73000000D01*
X185642857Y-73142857D01*
X185642857Y-73285714D01*
X184928571Y-73428571D01*
X186500000Y-73928571D02*
X186357142Y-73857142D01*
X186285714Y-73714285D01*
X186285714Y-72428571D01*
X186714285Y-74071428D02*
X187857142Y-74071428D01*
X188214285Y-73928571D02*
X188214285Y-72928571D01*
X188214285Y-73214285D02*
X188285714Y-73071428D01*
X188357142Y-73000000D01*
X188500000Y-72928571D01*
X188642857Y-72928571D01*
X189428571Y-72428571D02*
X189571428Y-72428571D01*
X189714285Y-72500000D01*
X189785714Y-72571428D01*
X189857142Y-72714285D01*
X189928571Y-73000000D01*
X189928571Y-73357142D01*
X189857142Y-73642857D01*
X189785714Y-73785714D01*
X189714285Y-73857142D01*
X189571428Y-73928571D01*
X189428571Y-73928571D01*
X189285714Y-73857142D01*
X189214285Y-73785714D01*
X189142857Y-73642857D01*
X189071428Y-73357142D01*
X189071428Y-73000000D01*
X189142857Y-72714285D01*
X189214285Y-72571428D01*
X189285714Y-72500000D01*
X189428571Y-72428571D01*
X191357142Y-73928571D02*
X190500000Y-73928571D01*
X190928571Y-73928571D02*
X190928571Y-72428571D01*
X190785714Y-72642857D01*
X190642857Y-72785714D01*
X190500000Y-72857142D01*
X192285714Y-72428571D02*
X192428571Y-72428571D01*
X192571428Y-72500000D01*
X192642857Y-72571428D01*
X192714285Y-72714285D01*
X192785714Y-73000000D01*
X192785714Y-73357142D01*
X192714285Y-73642857D01*
X192642857Y-73785714D01*
X192571428Y-73857142D01*
X192428571Y-73928571D01*
X192285714Y-73928571D01*
X192142857Y-73857142D01*
X192071428Y-73785714D01*
X192000000Y-73642857D01*
X191928571Y-73357142D01*
X191928571Y-73000000D01*
X192000000Y-72714285D01*
X192071428Y-72571428D01*
X192142857Y-72500000D01*
X192285714Y-72428571D01*
X193357142Y-72571428D02*
X193428571Y-72500000D01*
X193571428Y-72428571D01*
X193928571Y-72428571D01*
X194071428Y-72500000D01*
X194142857Y-72571428D01*
X194214285Y-72714285D01*
X194214285Y-72857142D01*
X194142857Y-73071428D01*
X193285714Y-73928571D01*
X194214285Y-73928571D01*
X178214285Y-69428571D02*
X178500000Y-70428571D01*
X178785714Y-69714285D01*
X179071428Y-70428571D01*
X179357142Y-69428571D01*
X179785714Y-69428571D02*
X180071428Y-70428571D01*
X180357142Y-69714285D01*
X180642857Y-70428571D01*
X180928571Y-69428571D01*
X181357142Y-69428571D02*
X181642857Y-70428571D01*
X181928571Y-69714285D01*
X182214285Y-70428571D01*
X182500000Y-69428571D01*
X183071428Y-70285714D02*
X183142857Y-70357142D01*
X183071428Y-70428571D01*
X183000000Y-70357142D01*
X183071428Y-70285714D01*
X183071428Y-70428571D01*
X183571428Y-69428571D02*
X184142857Y-69428571D01*
X183785714Y-70428571D02*
X183785714Y-69142857D01*
X183857142Y-69000000D01*
X184000000Y-68928571D01*
X184142857Y-68928571D01*
X185285714Y-70428571D02*
X185285714Y-69642857D01*
X185214285Y-69500000D01*
X185071428Y-69428571D01*
X184785714Y-69428571D01*
X184642857Y-69500000D01*
X185285714Y-70357142D02*
X185142857Y-70428571D01*
X184785714Y-70428571D01*
X184642857Y-70357142D01*
X184571428Y-70214285D01*
X184571428Y-70071428D01*
X184642857Y-69928571D01*
X184785714Y-69857142D01*
X185142857Y-69857142D01*
X185285714Y-69785714D01*
X186000000Y-70428571D02*
X186000000Y-69428571D01*
X186000000Y-69714285D02*
X186071428Y-69571428D01*
X186142857Y-69500000D01*
X186285714Y-69428571D01*
X186428571Y-69428571D01*
X187571428Y-70428571D02*
X187571428Y-69642857D01*
X187500000Y-69500000D01*
X187357142Y-69428571D01*
X187071428Y-69428571D01*
X186928571Y-69500000D01*
X187571428Y-70357142D02*
X187428571Y-70428571D01*
X187071428Y-70428571D01*
X186928571Y-70357142D01*
X186857142Y-70214285D01*
X186857142Y-70071428D01*
X186928571Y-69928571D01*
X187071428Y-69857142D01*
X187428571Y-69857142D01*
X187571428Y-69785714D01*
X188071428Y-69428571D02*
X188642857Y-69428571D01*
X188285714Y-70428571D02*
X188285714Y-69142857D01*
X188357142Y-69000000D01*
X188500000Y-68928571D01*
X188642857Y-68928571D01*
X189714285Y-70357142D02*
X189571428Y-70428571D01*
X189285714Y-70428571D01*
X189142857Y-70357142D01*
X189071428Y-70214285D01*
X189071428Y-69642857D01*
X189142857Y-69500000D01*
X189285714Y-69428571D01*
X189571428Y-69428571D01*
X189714285Y-69500000D01*
X189785714Y-69642857D01*
X189785714Y-69785714D01*
X189071428Y-69928571D01*
X190428571Y-70428571D02*
X190428571Y-69428571D01*
X190428571Y-68928571D02*
X190357142Y-69000000D01*
X190428571Y-69071428D01*
X190500000Y-69000000D01*
X190428571Y-68928571D01*
X190428571Y-69071428D01*
X190928571Y-69428571D02*
X191500000Y-69428571D01*
X191142857Y-68928571D02*
X191142857Y-70214285D01*
X191214285Y-70357142D01*
X191357142Y-70428571D01*
X191500000Y-70428571D01*
X192000000Y-70285714D02*
X192071428Y-70357142D01*
X192000000Y-70428571D01*
X191928571Y-70357142D01*
X192000000Y-70285714D01*
X192000000Y-70428571D01*
X193357142Y-70428571D02*
X193357142Y-68928571D01*
X193357142Y-70357142D02*
X193214285Y-70428571D01*
X192928571Y-70428571D01*
X192785714Y-70357142D01*
X192714285Y-70285714D01*
X192642857Y-70142857D01*
X192642857Y-69714285D01*
X192714285Y-69571428D01*
X192785714Y-69500000D01*
X192928571Y-69428571D01*
X193214285Y-69428571D01*
X193357142Y-69500000D01*
X194642857Y-70357142D02*
X194500000Y-70428571D01*
X194214285Y-70428571D01*
X194071428Y-70357142D01*
X194000000Y-70214285D01*
X194000000Y-69642857D01*
X194071428Y-69500000D01*
X194214285Y-69428571D01*
X194500000Y-69428571D01*
X194642857Y-69500000D01*
X194714285Y-69642857D01*
X194714285Y-69785714D01*
X194000000Y-69928571D01*
D11*
G04 #@! TO.C,BT1*
X183000000Y-64000000D03*
X183000000Y-84500000D03*
G04 #@! TD*
D12*
G04 #@! TO.C,D1*
X140540000Y-73250000D03*
D13*
X138000000Y-73250000D03*
G04 #@! TD*
D12*
G04 #@! TO.C,D2*
X150540000Y-63250000D03*
D13*
X148000000Y-63250000D03*
G04 #@! TD*
D12*
G04 #@! TO.C,D3*
X130540000Y-83250000D03*
D13*
X128000000Y-83250000D03*
G04 #@! TD*
D12*
G04 #@! TO.C,D4*
X130540000Y-63250000D03*
D13*
X128000000Y-63250000D03*
G04 #@! TD*
D12*
G04 #@! TO.C,D5*
X150540000Y-83250000D03*
D13*
X148000000Y-83250000D03*
G04 #@! TD*
D12*
G04 #@! TO.C,D6*
X140500000Y-63250000D03*
D13*
X137960000Y-63250000D03*
G04 #@! TD*
D12*
G04 #@! TO.C,D7*
X140540000Y-83250000D03*
D13*
X138000000Y-83250000D03*
G04 #@! TD*
D14*
G04 #@! TO.C,R1*
X144840000Y-74250000D03*
D15*
X155000000Y-74250000D03*
G04 #@! TD*
D14*
G04 #@! TO.C,R2*
X144840000Y-68500000D03*
D15*
X155000000Y-68500000D03*
G04 #@! TD*
D14*
G04 #@! TO.C,R3*
X133500000Y-74250000D03*
D15*
X123340000Y-74250000D03*
G04 #@! TD*
D14*
G04 #@! TO.C,R4*
X133500000Y-68500000D03*
D15*
X123340000Y-68500000D03*
G04 #@! TD*
D14*
G04 #@! TO.C,R5*
X144840000Y-77750000D03*
D15*
X155000000Y-77750000D03*
G04 #@! TD*
D14*
G04 #@! TO.C,R6*
X155840000Y-61000000D03*
D15*
X166000000Y-61000000D03*
G04 #@! TD*
D14*
G04 #@! TO.C,R7*
X133500000Y-77750000D03*
D15*
X123340000Y-77750000D03*
G04 #@! TD*
D16*
G04 #@! TO.C,SW1*
X167500000Y-85000000D03*
X167500000Y-80500000D03*
X161000000Y-85000000D03*
X161000000Y-80500000D03*
G04 #@! TD*
D14*
G04 #@! TO.C,U1*
X159920000Y-73620000D03*
X167540000Y-66000000D03*
X162460000Y-73620000D03*
X165000000Y-66000000D03*
X165000000Y-73620000D03*
X162460000Y-66000000D03*
X167540000Y-73620000D03*
D17*
X159920000Y-66000000D03*
G04 #@! TD*
M02*
