G04 #@! TF.FileFunction,Copper,L1,Top,Signal*
%FSLAX46Y46*%
G04 Gerber Fmt 4.6, Leading zero omitted, Abs format (unit mm)*
G04 Created by KiCad (PCBNEW 4.0.7) date Thu Mar 29 16:49:58 2018*
%MOMM*%
%LPD*%
G01*
G04 APERTURE LIST*
%ADD10C,0.100000*%
%ADD11R,1.800000X1.800000*%
%ADD12C,1.800000*%
%ADD13C,2.000000*%
%ADD14R,1.600000X1.600000*%
%ADD15O,1.600000X1.600000*%
%ADD16C,1.524000*%
%ADD17C,1.600000*%
%ADD18C,0.500000*%
%ADD19C,0.254000*%
G04 APERTURE END LIST*
D10*
D11*
X138000000Y-73250000D03*
D12*
X140540000Y-73250000D03*
D11*
X148000000Y-63250000D03*
D12*
X150540000Y-63250000D03*
D11*
X128000000Y-83250000D03*
D12*
X130540000Y-83250000D03*
D11*
X128000000Y-63250000D03*
D12*
X130540000Y-63250000D03*
D11*
X148000000Y-83250000D03*
D12*
X150540000Y-83250000D03*
D11*
X137960000Y-63250000D03*
D12*
X140500000Y-63250000D03*
D11*
X138000000Y-83250000D03*
D12*
X140540000Y-83250000D03*
D13*
X161000000Y-80500000D03*
X161000000Y-85000000D03*
X167500000Y-80500000D03*
X167500000Y-85000000D03*
D14*
X159920000Y-66000000D03*
D15*
X167540000Y-73620000D03*
X162460000Y-66000000D03*
X165000000Y-73620000D03*
X165000000Y-66000000D03*
X162460000Y-73620000D03*
X167540000Y-66000000D03*
X159920000Y-73620000D03*
D16*
X183000000Y-84500000D03*
X183000000Y-64000000D03*
D17*
X155000000Y-74250000D03*
D15*
X144840000Y-74250000D03*
D17*
X155000000Y-68500000D03*
D15*
X144840000Y-68500000D03*
D17*
X123340000Y-74250000D03*
D15*
X133500000Y-74250000D03*
D17*
X123340000Y-68500000D03*
D15*
X133500000Y-68500000D03*
D17*
X155000000Y-77750000D03*
D15*
X144840000Y-77750000D03*
D17*
X166000000Y-61000000D03*
D15*
X155840000Y-61000000D03*
D17*
X123340000Y-77750000D03*
D15*
X133500000Y-77750000D03*
D18*
X140540000Y-73250000D02*
X141540000Y-74250000D01*
X141540000Y-74250000D02*
X144840000Y-74250000D01*
X140790000Y-73000000D02*
X140540000Y-73250000D01*
X144840000Y-68500000D02*
X145639999Y-67700001D01*
X145639999Y-67700001D02*
X147362791Y-67700001D01*
X147362791Y-67700001D02*
X150540000Y-64522792D01*
X150540000Y-64522792D02*
X150540000Y-63250000D01*
X150540000Y-63300000D02*
X150540000Y-63250000D01*
X133500000Y-74250000D02*
X130540000Y-77210000D01*
X130540000Y-77210000D02*
X130540000Y-83250000D01*
X133500000Y-66210000D02*
X133500000Y-68500000D01*
X130540000Y-63250000D02*
X133500000Y-66210000D01*
X144840000Y-77750000D02*
X145639999Y-78549999D01*
X147112791Y-78549999D02*
X150540000Y-81977208D01*
X145639999Y-78549999D02*
X147112791Y-78549999D01*
X150540000Y-81977208D02*
X150540000Y-83250000D01*
X150540000Y-82700000D02*
X150540000Y-83250000D01*
X155840000Y-61000000D02*
X155040001Y-61799999D01*
X155040001Y-61799999D02*
X141950001Y-61799999D01*
X141399999Y-62350001D02*
X140500000Y-63250000D01*
X141950001Y-61799999D02*
X141399999Y-62350001D01*
X133500000Y-77750000D02*
X136312792Y-77750000D01*
X136312792Y-77750000D02*
X140540000Y-81977208D01*
X140540000Y-81977208D02*
X140540000Y-83250000D01*
X165000000Y-73620000D02*
X162849989Y-71469989D01*
X162849989Y-71469989D02*
X157780011Y-71469989D01*
X157780011Y-71469989D02*
X155000000Y-74250000D01*
X167500000Y-80500000D02*
X167500000Y-73660000D01*
X167500000Y-73660000D02*
X167540000Y-73620000D01*
X161000000Y-80500000D02*
X167500000Y-80500000D01*
X159920000Y-66000000D02*
X160461998Y-66000000D01*
X160461998Y-66000000D02*
X166731997Y-72269999D01*
X166731997Y-72269999D02*
X170769999Y-72269999D01*
X170769999Y-72269999D02*
X180550001Y-82050001D01*
X159920000Y-73620000D02*
X158500000Y-75040000D01*
X158500000Y-75040000D02*
X158500000Y-80294002D01*
X158500000Y-80294002D02*
X160255999Y-82050001D01*
X160255999Y-82050001D02*
X180550001Y-82050001D01*
X180550001Y-82050001D02*
X183000000Y-84500000D01*
X155941997Y-75600001D02*
X157791998Y-73750000D01*
X131501998Y-74250000D02*
X134001998Y-71750000D01*
X142336001Y-72899999D02*
X148151997Y-72899999D01*
X148151997Y-72899999D02*
X154351999Y-79100001D01*
X157791998Y-73750000D02*
X159271999Y-72269999D01*
X155648001Y-79100001D02*
X157699990Y-77048012D01*
X123340000Y-74250000D02*
X131501998Y-74250000D01*
X134001998Y-71750000D02*
X141186002Y-71750000D01*
X141186002Y-71750000D02*
X142336001Y-72899999D01*
X154351999Y-79100001D02*
X155648001Y-79100001D01*
X157699990Y-77048012D02*
X157699990Y-73842008D01*
X157699990Y-73842008D02*
X157791998Y-73750000D01*
X155000000Y-68500000D02*
X153649999Y-69850001D01*
X161109999Y-72269999D02*
X161660001Y-72820001D01*
X153649999Y-69850001D02*
X153649999Y-74898001D01*
X153649999Y-74898001D02*
X154351999Y-75600001D01*
X154351999Y-75600001D02*
X155941997Y-75600001D01*
X159271999Y-72269999D02*
X161109999Y-72269999D01*
X161660001Y-72820001D02*
X162460000Y-73620000D01*
X142667375Y-72099989D02*
X149402009Y-72099989D01*
X149402009Y-72099989D02*
X152849989Y-68652009D01*
X127158620Y-73449990D02*
X131170624Y-73449990D01*
X131170624Y-73449990D02*
X133670624Y-70949990D01*
X133670624Y-70949990D02*
X141517376Y-70949990D01*
X141517376Y-70949990D02*
X142667375Y-72099989D01*
X123340000Y-68500000D02*
X123340000Y-69631370D01*
X123340000Y-69631370D02*
X127158620Y-73449990D01*
X162460000Y-66000000D02*
X161109999Y-64649999D01*
X161109999Y-64649999D02*
X156851999Y-64649999D01*
X156851999Y-64649999D02*
X152849989Y-68652009D01*
X152849989Y-68652009D02*
X152849989Y-75599989D01*
X154200001Y-76950001D02*
X155000000Y-77750000D01*
X152849989Y-75599989D02*
X154200001Y-76950001D01*
X165000000Y-66000000D02*
X165000000Y-62000000D01*
X165000000Y-62000000D02*
X166000000Y-61000000D01*
X123340000Y-77750000D02*
X123340000Y-76618630D01*
X121989999Y-75268629D02*
X121989999Y-67851999D01*
X123340000Y-76618630D02*
X121989999Y-75268629D01*
X121989999Y-67851999D02*
X122691999Y-67149999D01*
X122691999Y-67149999D02*
X130151997Y-67149999D01*
X150520613Y-69850001D02*
X156520625Y-63849989D01*
X156520625Y-63849989D02*
X162849989Y-63849989D01*
X130151997Y-67149999D02*
X132851999Y-69850001D01*
X132851999Y-69850001D02*
X150520613Y-69850001D01*
X162849989Y-63849989D02*
X164200001Y-65200001D01*
X164200001Y-65200001D02*
X165000000Y-66000000D01*
D19*
G36*
X195873000Y-87873000D02*
X120127000Y-87873000D01*
X120127000Y-86152532D01*
X160027073Y-86152532D01*
X160125736Y-86419387D01*
X160735461Y-86645908D01*
X161385460Y-86621856D01*
X161874264Y-86419387D01*
X161972927Y-86152532D01*
X166527073Y-86152532D01*
X166625736Y-86419387D01*
X167235461Y-86645908D01*
X167885460Y-86621856D01*
X168374264Y-86419387D01*
X168472927Y-86152532D01*
X167500000Y-85179605D01*
X166527073Y-86152532D01*
X161972927Y-86152532D01*
X161000000Y-85179605D01*
X160027073Y-86152532D01*
X120127000Y-86152532D01*
X120127000Y-83535750D01*
X126465000Y-83535750D01*
X126465000Y-84276310D01*
X126561673Y-84509699D01*
X126740302Y-84688327D01*
X126973691Y-84785000D01*
X127714250Y-84785000D01*
X127873000Y-84626250D01*
X127873000Y-83377000D01*
X126623750Y-83377000D01*
X126465000Y-83535750D01*
X120127000Y-83535750D01*
X120127000Y-82223690D01*
X126465000Y-82223690D01*
X126465000Y-82964250D01*
X126623750Y-83123000D01*
X127873000Y-83123000D01*
X127873000Y-81873750D01*
X127714250Y-81715000D01*
X126973691Y-81715000D01*
X126740302Y-81811673D01*
X126561673Y-81990301D01*
X126465000Y-82223690D01*
X120127000Y-82223690D01*
X120127000Y-67851999D01*
X121104998Y-67851999D01*
X121104999Y-67852004D01*
X121104999Y-75268624D01*
X121104998Y-75268629D01*
X121144506Y-75467243D01*
X121172366Y-75607304D01*
X121301787Y-75800997D01*
X121364209Y-75894419D01*
X122265145Y-76795354D01*
X122124176Y-76936077D01*
X121905250Y-77463309D01*
X121904752Y-78034187D01*
X122122757Y-78561800D01*
X122526077Y-78965824D01*
X123053309Y-79184750D01*
X123624187Y-79185248D01*
X124151800Y-78967243D01*
X124555824Y-78563923D01*
X124774750Y-78036691D01*
X124775248Y-77465813D01*
X124557243Y-76938200D01*
X124221709Y-76602080D01*
X124157633Y-76279956D01*
X124157633Y-76279955D01*
X123965790Y-75992840D01*
X123965787Y-75992838D01*
X123648253Y-75675304D01*
X124151800Y-75467243D01*
X124484623Y-75135000D01*
X131363420Y-75135000D01*
X129914210Y-76584210D01*
X129722367Y-76871325D01*
X129722367Y-76871326D01*
X129654999Y-77210000D01*
X129655000Y-77210005D01*
X129655000Y-81964532D01*
X129494159Y-82125092D01*
X129438327Y-81990301D01*
X129259698Y-81811673D01*
X129026309Y-81715000D01*
X128285750Y-81715000D01*
X128127000Y-81873750D01*
X128127000Y-83123000D01*
X128147000Y-83123000D01*
X128147000Y-83377000D01*
X128127000Y-83377000D01*
X128127000Y-84626250D01*
X128285750Y-84785000D01*
X129026309Y-84785000D01*
X129259698Y-84688327D01*
X129438327Y-84509699D01*
X129494119Y-84375006D01*
X129669357Y-84550551D01*
X130233330Y-84784733D01*
X130843991Y-84785265D01*
X131408371Y-84552068D01*
X131840551Y-84120643D01*
X132074733Y-83556670D01*
X132074751Y-83535750D01*
X136465000Y-83535750D01*
X136465000Y-84276310D01*
X136561673Y-84509699D01*
X136740302Y-84688327D01*
X136973691Y-84785000D01*
X137714250Y-84785000D01*
X137873000Y-84626250D01*
X137873000Y-83377000D01*
X136623750Y-83377000D01*
X136465000Y-83535750D01*
X132074751Y-83535750D01*
X132075265Y-82946009D01*
X131842068Y-82381629D01*
X131684405Y-82223690D01*
X136465000Y-82223690D01*
X136465000Y-82964250D01*
X136623750Y-83123000D01*
X137873000Y-83123000D01*
X137873000Y-81873750D01*
X137714250Y-81715000D01*
X136973691Y-81715000D01*
X136740302Y-81811673D01*
X136561673Y-81990301D01*
X136465000Y-82223690D01*
X131684405Y-82223690D01*
X131425000Y-81963831D01*
X131425000Y-77750000D01*
X132036887Y-77750000D01*
X132146120Y-78299151D01*
X132457189Y-78764698D01*
X132922736Y-79075767D01*
X133471887Y-79185000D01*
X133528113Y-79185000D01*
X134077264Y-79075767D01*
X134542811Y-78764698D01*
X134629473Y-78635000D01*
X135946212Y-78635000D01*
X139026213Y-81715000D01*
X138285750Y-81715000D01*
X138127000Y-81873750D01*
X138127000Y-83123000D01*
X138147000Y-83123000D01*
X138147000Y-83377000D01*
X138127000Y-83377000D01*
X138127000Y-84626250D01*
X138285750Y-84785000D01*
X139026309Y-84785000D01*
X139259698Y-84688327D01*
X139438327Y-84509699D01*
X139494119Y-84375006D01*
X139669357Y-84550551D01*
X140233330Y-84784733D01*
X140843991Y-84785265D01*
X141408371Y-84552068D01*
X141840551Y-84120643D01*
X142074733Y-83556670D01*
X142074751Y-83535750D01*
X146465000Y-83535750D01*
X146465000Y-84276310D01*
X146561673Y-84509699D01*
X146740302Y-84688327D01*
X146973691Y-84785000D01*
X147714250Y-84785000D01*
X147873000Y-84626250D01*
X147873000Y-83377000D01*
X146623750Y-83377000D01*
X146465000Y-83535750D01*
X142074751Y-83535750D01*
X142075265Y-82946009D01*
X141842068Y-82381629D01*
X141684405Y-82223690D01*
X146465000Y-82223690D01*
X146465000Y-82964250D01*
X146623750Y-83123000D01*
X147873000Y-83123000D01*
X147873000Y-81873750D01*
X147714250Y-81715000D01*
X146973691Y-81715000D01*
X146740302Y-81811673D01*
X146561673Y-81990301D01*
X146465000Y-82223690D01*
X141684405Y-82223690D01*
X141421678Y-81960504D01*
X141357633Y-81638534D01*
X141357633Y-81638533D01*
X141165790Y-81351418D01*
X141165787Y-81351416D01*
X137564372Y-77750000D01*
X143376887Y-77750000D01*
X143486120Y-78299151D01*
X143797189Y-78764698D01*
X144262736Y-79075767D01*
X144811887Y-79185000D01*
X144868113Y-79185000D01*
X144997654Y-79159233D01*
X145014207Y-79175786D01*
X145014209Y-79175789D01*
X145301324Y-79367632D01*
X145639999Y-79434999D01*
X146746211Y-79434999D01*
X149026213Y-81715000D01*
X148285750Y-81715000D01*
X148127000Y-81873750D01*
X148127000Y-83123000D01*
X148147000Y-83123000D01*
X148147000Y-83377000D01*
X148127000Y-83377000D01*
X148127000Y-84626250D01*
X148285750Y-84785000D01*
X149026309Y-84785000D01*
X149259698Y-84688327D01*
X149438327Y-84509699D01*
X149494119Y-84375006D01*
X149669357Y-84550551D01*
X150233330Y-84784733D01*
X150843991Y-84785265D01*
X150964525Y-84735461D01*
X159354092Y-84735461D01*
X159378144Y-85385460D01*
X159580613Y-85874264D01*
X159847468Y-85972927D01*
X160820395Y-85000000D01*
X161179605Y-85000000D01*
X162152532Y-85972927D01*
X162419387Y-85874264D01*
X162645908Y-85264539D01*
X162626331Y-84735461D01*
X165854092Y-84735461D01*
X165878144Y-85385460D01*
X166080613Y-85874264D01*
X166347468Y-85972927D01*
X167320395Y-85000000D01*
X167679605Y-85000000D01*
X168652532Y-85972927D01*
X168919387Y-85874264D01*
X169145908Y-85264539D01*
X169121856Y-84614540D01*
X168919387Y-84125736D01*
X168652532Y-84027073D01*
X167679605Y-85000000D01*
X167320395Y-85000000D01*
X166347468Y-84027073D01*
X166080613Y-84125736D01*
X165854092Y-84735461D01*
X162626331Y-84735461D01*
X162621856Y-84614540D01*
X162419387Y-84125736D01*
X162152532Y-84027073D01*
X161179605Y-85000000D01*
X160820395Y-85000000D01*
X159847468Y-84027073D01*
X159580613Y-84125736D01*
X159354092Y-84735461D01*
X150964525Y-84735461D01*
X151408371Y-84552068D01*
X151840551Y-84120643D01*
X151953983Y-83847468D01*
X160027073Y-83847468D01*
X161000000Y-84820395D01*
X161972927Y-83847468D01*
X166527073Y-83847468D01*
X167500000Y-84820395D01*
X168472927Y-83847468D01*
X168374264Y-83580613D01*
X167764539Y-83354092D01*
X167114540Y-83378144D01*
X166625736Y-83580613D01*
X166527073Y-83847468D01*
X161972927Y-83847468D01*
X161874264Y-83580613D01*
X161264539Y-83354092D01*
X160614540Y-83378144D01*
X160125736Y-83580613D01*
X160027073Y-83847468D01*
X151953983Y-83847468D01*
X152074733Y-83556670D01*
X152075265Y-82946009D01*
X151842068Y-82381629D01*
X151421677Y-81960502D01*
X151357633Y-81638533D01*
X151165790Y-81351418D01*
X151165787Y-81351416D01*
X147738581Y-77924209D01*
X147650933Y-77865645D01*
X147451466Y-77732366D01*
X147395275Y-77721189D01*
X147112791Y-77664998D01*
X147112786Y-77664999D01*
X146286205Y-77664999D01*
X146193880Y-77200849D01*
X145882811Y-76735302D01*
X145417264Y-76424233D01*
X144868113Y-76315000D01*
X144811887Y-76315000D01*
X144262736Y-76424233D01*
X143797189Y-76735302D01*
X143486120Y-77200849D01*
X143376887Y-77750000D01*
X137564372Y-77750000D01*
X136938582Y-77124210D01*
X136824543Y-77048012D01*
X136651467Y-76932367D01*
X136595276Y-76921190D01*
X136312792Y-76864999D01*
X136312787Y-76865000D01*
X134629473Y-76865000D01*
X134542811Y-76735302D01*
X134077264Y-76424233D01*
X133528113Y-76315000D01*
X133471887Y-76315000D01*
X132922736Y-76424233D01*
X132457189Y-76735302D01*
X132146120Y-77200849D01*
X132036887Y-77750000D01*
X131425000Y-77750000D01*
X131425000Y-77576580D01*
X133342346Y-75659233D01*
X133471887Y-75685000D01*
X133528113Y-75685000D01*
X134077264Y-75575767D01*
X134542811Y-75264698D01*
X134853880Y-74799151D01*
X134963113Y-74250000D01*
X134853880Y-73700849D01*
X134743565Y-73535750D01*
X136465000Y-73535750D01*
X136465000Y-74276310D01*
X136561673Y-74509699D01*
X136740302Y-74688327D01*
X136973691Y-74785000D01*
X137714250Y-74785000D01*
X137873000Y-74626250D01*
X137873000Y-73377000D01*
X136623750Y-73377000D01*
X136465000Y-73535750D01*
X134743565Y-73535750D01*
X134542811Y-73235302D01*
X134078511Y-72925066D01*
X134368577Y-72635000D01*
X136465000Y-72635000D01*
X136465000Y-72964250D01*
X136623750Y-73123000D01*
X137873000Y-73123000D01*
X137873000Y-73103000D01*
X138127000Y-73103000D01*
X138127000Y-73123000D01*
X138147000Y-73123000D01*
X138147000Y-73377000D01*
X138127000Y-73377000D01*
X138127000Y-74626250D01*
X138285750Y-74785000D01*
X139026309Y-74785000D01*
X139259698Y-74688327D01*
X139438327Y-74509699D01*
X139494119Y-74375006D01*
X139669357Y-74550551D01*
X140233330Y-74784733D01*
X140823668Y-74785247D01*
X140914208Y-74875787D01*
X140914210Y-74875790D01*
X141061510Y-74974212D01*
X141201326Y-75067634D01*
X141540000Y-75135001D01*
X141540005Y-75135000D01*
X143710527Y-75135000D01*
X143797189Y-75264698D01*
X144262736Y-75575767D01*
X144811887Y-75685000D01*
X144868113Y-75685000D01*
X145417264Y-75575767D01*
X145882811Y-75264698D01*
X146193880Y-74799151D01*
X146303113Y-74250000D01*
X146210618Y-73784999D01*
X147785417Y-73784999D01*
X153726207Y-79725788D01*
X153726209Y-79725791D01*
X154013324Y-79917634D01*
X154069515Y-79928811D01*
X154351999Y-79985002D01*
X154352004Y-79985001D01*
X155647996Y-79985001D01*
X155648001Y-79985002D01*
X155930485Y-79928811D01*
X155986676Y-79917634D01*
X156273791Y-79725791D01*
X157615000Y-78384581D01*
X157615000Y-80293997D01*
X157614999Y-80294002D01*
X157671190Y-80576486D01*
X157682367Y-80632677D01*
X157810067Y-80823795D01*
X157874210Y-80919792D01*
X159630207Y-82675788D01*
X159630209Y-82675791D01*
X159666441Y-82700000D01*
X159917325Y-82867635D01*
X160255999Y-82935002D01*
X160256004Y-82935001D01*
X180183421Y-82935001D01*
X181603126Y-84354706D01*
X181602758Y-84776661D01*
X181814990Y-85290303D01*
X182207630Y-85683629D01*
X182720900Y-85896757D01*
X183276661Y-85897242D01*
X183790303Y-85685010D01*
X184183629Y-85292370D01*
X184396757Y-84779100D01*
X184397242Y-84223339D01*
X184185010Y-83709697D01*
X183792370Y-83316371D01*
X183279100Y-83103243D01*
X182854452Y-83102872D01*
X181175791Y-81424211D01*
X181175788Y-81424209D01*
X171395789Y-71644209D01*
X171293377Y-71575780D01*
X171108674Y-71452366D01*
X171052483Y-71441189D01*
X170769999Y-71384998D01*
X170769994Y-71384999D01*
X167098576Y-71384999D01*
X163044103Y-67330526D01*
X163474698Y-67042811D01*
X163730000Y-66660725D01*
X163985302Y-67042811D01*
X164450849Y-67353880D01*
X165000000Y-67463113D01*
X165549151Y-67353880D01*
X166014698Y-67042811D01*
X166284986Y-66638297D01*
X166387611Y-66855134D01*
X166802577Y-67231041D01*
X167190961Y-67391904D01*
X167413000Y-67269915D01*
X167413000Y-66127000D01*
X167667000Y-66127000D01*
X167667000Y-67269915D01*
X167889039Y-67391904D01*
X168277423Y-67231041D01*
X168692389Y-66855134D01*
X168931914Y-66349041D01*
X168810629Y-66127000D01*
X167667000Y-66127000D01*
X167413000Y-66127000D01*
X167393000Y-66127000D01*
X167393000Y-65873000D01*
X167413000Y-65873000D01*
X167413000Y-64730085D01*
X167667000Y-64730085D01*
X167667000Y-65873000D01*
X168810629Y-65873000D01*
X168931914Y-65650959D01*
X168692389Y-65144866D01*
X168510628Y-64980213D01*
X182199392Y-64980213D01*
X182268857Y-65222397D01*
X182792302Y-65409144D01*
X183347368Y-65381362D01*
X183731143Y-65222397D01*
X183800608Y-64980213D01*
X183000000Y-64179605D01*
X182199392Y-64980213D01*
X168510628Y-64980213D01*
X168277423Y-64768959D01*
X167889039Y-64608096D01*
X167667000Y-64730085D01*
X167413000Y-64730085D01*
X167190961Y-64608096D01*
X166802577Y-64768959D01*
X166387611Y-65144866D01*
X166284986Y-65361703D01*
X166014698Y-64957189D01*
X165885000Y-64870527D01*
X165885000Y-63792302D01*
X181590856Y-63792302D01*
X181618638Y-64347368D01*
X181777603Y-64731143D01*
X182019787Y-64800608D01*
X182820395Y-64000000D01*
X183179605Y-64000000D01*
X183980213Y-64800608D01*
X184222397Y-64731143D01*
X184409144Y-64207698D01*
X184381362Y-63652632D01*
X184222397Y-63268857D01*
X183980213Y-63199392D01*
X183179605Y-64000000D01*
X182820395Y-64000000D01*
X182019787Y-63199392D01*
X181777603Y-63268857D01*
X181590856Y-63792302D01*
X165885000Y-63792302D01*
X165885000Y-63019787D01*
X182199392Y-63019787D01*
X183000000Y-63820395D01*
X183800608Y-63019787D01*
X183731143Y-62777603D01*
X183207698Y-62590856D01*
X182652632Y-62618638D01*
X182268857Y-62777603D01*
X182199392Y-63019787D01*
X165885000Y-63019787D01*
X165885000Y-62434900D01*
X166284187Y-62435248D01*
X166811800Y-62217243D01*
X167215824Y-61813923D01*
X167434750Y-61286691D01*
X167435248Y-60715813D01*
X167217243Y-60188200D01*
X166813923Y-59784176D01*
X166286691Y-59565250D01*
X165715813Y-59564752D01*
X165188200Y-59782757D01*
X164784176Y-60186077D01*
X164565250Y-60713309D01*
X164564840Y-61183580D01*
X164374210Y-61374210D01*
X164182367Y-61661325D01*
X164182367Y-61661326D01*
X164114999Y-62000000D01*
X164115000Y-62000005D01*
X164115000Y-63863420D01*
X163475779Y-63224199D01*
X163324323Y-63123000D01*
X163188664Y-63032356D01*
X163125476Y-63019787D01*
X162849989Y-62964988D01*
X162849984Y-62964989D01*
X156520625Y-62964989D01*
X156181950Y-63032356D01*
X155894835Y-63224199D01*
X155894833Y-63224202D01*
X150154033Y-68965001D01*
X146210618Y-68965001D01*
X146286205Y-68585001D01*
X147362786Y-68585001D01*
X147362791Y-68585002D01*
X147645275Y-68528811D01*
X147701466Y-68517634D01*
X147988581Y-68325791D01*
X151165787Y-65148584D01*
X151165790Y-65148582D01*
X151357633Y-64861467D01*
X151392073Y-64688327D01*
X151421855Y-64538608D01*
X151840551Y-64120643D01*
X152074733Y-63556670D01*
X152075265Y-62946009D01*
X151967418Y-62684999D01*
X155039996Y-62684999D01*
X155040001Y-62685000D01*
X155345606Y-62624210D01*
X155378676Y-62617632D01*
X155665791Y-62425789D01*
X155682347Y-62409233D01*
X155811887Y-62435000D01*
X155868113Y-62435000D01*
X156417264Y-62325767D01*
X156882811Y-62014698D01*
X157193880Y-61549151D01*
X157303113Y-61000000D01*
X157193880Y-60450849D01*
X156882811Y-59985302D01*
X156417264Y-59674233D01*
X155868113Y-59565000D01*
X155811887Y-59565000D01*
X155262736Y-59674233D01*
X154797189Y-59985302D01*
X154486120Y-60450849D01*
X154393795Y-60914999D01*
X141950006Y-60914999D01*
X141950001Y-60914998D01*
X141611326Y-60982366D01*
X141324211Y-61174209D01*
X141324209Y-61174212D01*
X140783173Y-61715247D01*
X140196009Y-61714735D01*
X139631629Y-61947932D01*
X139454159Y-62125092D01*
X139398327Y-61990301D01*
X139219698Y-61811673D01*
X138986309Y-61715000D01*
X138245750Y-61715000D01*
X138087000Y-61873750D01*
X138087000Y-63123000D01*
X138107000Y-63123000D01*
X138107000Y-63377000D01*
X138087000Y-63377000D01*
X138087000Y-64626250D01*
X138245750Y-64785000D01*
X138986309Y-64785000D01*
X139219698Y-64688327D01*
X139398327Y-64509699D01*
X139454119Y-64375006D01*
X139629357Y-64550551D01*
X140193330Y-64784733D01*
X140803991Y-64785265D01*
X141368371Y-64552068D01*
X141800551Y-64120643D01*
X142034733Y-63556670D01*
X142034751Y-63535750D01*
X146465000Y-63535750D01*
X146465000Y-64276310D01*
X146561673Y-64509699D01*
X146740302Y-64688327D01*
X146973691Y-64785000D01*
X147714250Y-64785000D01*
X147873000Y-64626250D01*
X147873000Y-63377000D01*
X146623750Y-63377000D01*
X146465000Y-63535750D01*
X142034751Y-63535750D01*
X142035247Y-62966333D01*
X142316580Y-62684999D01*
X146465000Y-62684999D01*
X146465000Y-62964250D01*
X146623750Y-63123000D01*
X147873000Y-63123000D01*
X147873000Y-63103000D01*
X148127000Y-63103000D01*
X148127000Y-63123000D01*
X148147000Y-63123000D01*
X148147000Y-63377000D01*
X148127000Y-63377000D01*
X148127000Y-64626250D01*
X148285750Y-64785000D01*
X149026213Y-64785000D01*
X146996211Y-66815001D01*
X145639999Y-66815001D01*
X145301324Y-66882368D01*
X145014209Y-67074211D01*
X145014207Y-67074214D01*
X144997654Y-67090767D01*
X144868113Y-67065000D01*
X144811887Y-67065000D01*
X144262736Y-67174233D01*
X143797189Y-67485302D01*
X143486120Y-67950849D01*
X143376887Y-68500000D01*
X143469382Y-68965001D01*
X134870618Y-68965001D01*
X134963113Y-68500000D01*
X134853880Y-67950849D01*
X134542811Y-67485302D01*
X134385000Y-67379856D01*
X134385000Y-66210005D01*
X134385001Y-66210000D01*
X134317633Y-65871325D01*
X134287208Y-65825790D01*
X134125790Y-65584210D01*
X134125787Y-65584208D01*
X132077329Y-63535750D01*
X136425000Y-63535750D01*
X136425000Y-64276310D01*
X136521673Y-64509699D01*
X136700302Y-64688327D01*
X136933691Y-64785000D01*
X137674250Y-64785000D01*
X137833000Y-64626250D01*
X137833000Y-63377000D01*
X136583750Y-63377000D01*
X136425000Y-63535750D01*
X132077329Y-63535750D01*
X132074753Y-63533174D01*
X132075265Y-62946009D01*
X131842068Y-62381629D01*
X131684405Y-62223690D01*
X136425000Y-62223690D01*
X136425000Y-62964250D01*
X136583750Y-63123000D01*
X137833000Y-63123000D01*
X137833000Y-61873750D01*
X137674250Y-61715000D01*
X136933691Y-61715000D01*
X136700302Y-61811673D01*
X136521673Y-61990301D01*
X136425000Y-62223690D01*
X131684405Y-62223690D01*
X131410643Y-61949449D01*
X130846670Y-61715267D01*
X130236009Y-61714735D01*
X129671629Y-61947932D01*
X129494159Y-62125092D01*
X129438327Y-61990301D01*
X129259698Y-61811673D01*
X129026309Y-61715000D01*
X128285750Y-61715000D01*
X128127000Y-61873750D01*
X128127000Y-63123000D01*
X128147000Y-63123000D01*
X128147000Y-63377000D01*
X128127000Y-63377000D01*
X128127000Y-64626250D01*
X128285750Y-64785000D01*
X129026309Y-64785000D01*
X129259698Y-64688327D01*
X129438327Y-64509699D01*
X129494119Y-64375006D01*
X129669357Y-64550551D01*
X130233330Y-64784733D01*
X130823668Y-64785247D01*
X132615000Y-66576579D01*
X132615000Y-67379856D01*
X132457189Y-67485302D01*
X132169474Y-67915897D01*
X130777787Y-66524209D01*
X130490672Y-66332366D01*
X130434481Y-66321189D01*
X130151997Y-66264998D01*
X130151992Y-66264999D01*
X122692004Y-66264999D01*
X122691999Y-66264998D01*
X122409515Y-66321189D01*
X122353324Y-66332366D01*
X122066209Y-66524209D01*
X122066207Y-66524212D01*
X121364209Y-67226209D01*
X121172366Y-67513324D01*
X121172366Y-67513325D01*
X121104998Y-67851999D01*
X120127000Y-67851999D01*
X120127000Y-63535750D01*
X126465000Y-63535750D01*
X126465000Y-64276310D01*
X126561673Y-64509699D01*
X126740302Y-64688327D01*
X126973691Y-64785000D01*
X127714250Y-64785000D01*
X127873000Y-64626250D01*
X127873000Y-63377000D01*
X126623750Y-63377000D01*
X126465000Y-63535750D01*
X120127000Y-63535750D01*
X120127000Y-62223690D01*
X126465000Y-62223690D01*
X126465000Y-62964250D01*
X126623750Y-63123000D01*
X127873000Y-63123000D01*
X127873000Y-61873750D01*
X127714250Y-61715000D01*
X126973691Y-61715000D01*
X126740302Y-61811673D01*
X126561673Y-61990301D01*
X126465000Y-62223690D01*
X120127000Y-62223690D01*
X120127000Y-58127000D01*
X195873000Y-58127000D01*
X195873000Y-87873000D01*
X195873000Y-87873000D01*
G37*
X195873000Y-87873000D02*
X120127000Y-87873000D01*
X120127000Y-86152532D01*
X160027073Y-86152532D01*
X160125736Y-86419387D01*
X160735461Y-86645908D01*
X161385460Y-86621856D01*
X161874264Y-86419387D01*
X161972927Y-86152532D01*
X166527073Y-86152532D01*
X166625736Y-86419387D01*
X167235461Y-86645908D01*
X167885460Y-86621856D01*
X168374264Y-86419387D01*
X168472927Y-86152532D01*
X167500000Y-85179605D01*
X166527073Y-86152532D01*
X161972927Y-86152532D01*
X161000000Y-85179605D01*
X160027073Y-86152532D01*
X120127000Y-86152532D01*
X120127000Y-83535750D01*
X126465000Y-83535750D01*
X126465000Y-84276310D01*
X126561673Y-84509699D01*
X126740302Y-84688327D01*
X126973691Y-84785000D01*
X127714250Y-84785000D01*
X127873000Y-84626250D01*
X127873000Y-83377000D01*
X126623750Y-83377000D01*
X126465000Y-83535750D01*
X120127000Y-83535750D01*
X120127000Y-82223690D01*
X126465000Y-82223690D01*
X126465000Y-82964250D01*
X126623750Y-83123000D01*
X127873000Y-83123000D01*
X127873000Y-81873750D01*
X127714250Y-81715000D01*
X126973691Y-81715000D01*
X126740302Y-81811673D01*
X126561673Y-81990301D01*
X126465000Y-82223690D01*
X120127000Y-82223690D01*
X120127000Y-67851999D01*
X121104998Y-67851999D01*
X121104999Y-67852004D01*
X121104999Y-75268624D01*
X121104998Y-75268629D01*
X121144506Y-75467243D01*
X121172366Y-75607304D01*
X121301787Y-75800997D01*
X121364209Y-75894419D01*
X122265145Y-76795354D01*
X122124176Y-76936077D01*
X121905250Y-77463309D01*
X121904752Y-78034187D01*
X122122757Y-78561800D01*
X122526077Y-78965824D01*
X123053309Y-79184750D01*
X123624187Y-79185248D01*
X124151800Y-78967243D01*
X124555824Y-78563923D01*
X124774750Y-78036691D01*
X124775248Y-77465813D01*
X124557243Y-76938200D01*
X124221709Y-76602080D01*
X124157633Y-76279956D01*
X124157633Y-76279955D01*
X123965790Y-75992840D01*
X123965787Y-75992838D01*
X123648253Y-75675304D01*
X124151800Y-75467243D01*
X124484623Y-75135000D01*
X131363420Y-75135000D01*
X129914210Y-76584210D01*
X129722367Y-76871325D01*
X129722367Y-76871326D01*
X129654999Y-77210000D01*
X129655000Y-77210005D01*
X129655000Y-81964532D01*
X129494159Y-82125092D01*
X129438327Y-81990301D01*
X129259698Y-81811673D01*
X129026309Y-81715000D01*
X128285750Y-81715000D01*
X128127000Y-81873750D01*
X128127000Y-83123000D01*
X128147000Y-83123000D01*
X128147000Y-83377000D01*
X128127000Y-83377000D01*
X128127000Y-84626250D01*
X128285750Y-84785000D01*
X129026309Y-84785000D01*
X129259698Y-84688327D01*
X129438327Y-84509699D01*
X129494119Y-84375006D01*
X129669357Y-84550551D01*
X130233330Y-84784733D01*
X130843991Y-84785265D01*
X131408371Y-84552068D01*
X131840551Y-84120643D01*
X132074733Y-83556670D01*
X132074751Y-83535750D01*
X136465000Y-83535750D01*
X136465000Y-84276310D01*
X136561673Y-84509699D01*
X136740302Y-84688327D01*
X136973691Y-84785000D01*
X137714250Y-84785000D01*
X137873000Y-84626250D01*
X137873000Y-83377000D01*
X136623750Y-83377000D01*
X136465000Y-83535750D01*
X132074751Y-83535750D01*
X132075265Y-82946009D01*
X131842068Y-82381629D01*
X131684405Y-82223690D01*
X136465000Y-82223690D01*
X136465000Y-82964250D01*
X136623750Y-83123000D01*
X137873000Y-83123000D01*
X137873000Y-81873750D01*
X137714250Y-81715000D01*
X136973691Y-81715000D01*
X136740302Y-81811673D01*
X136561673Y-81990301D01*
X136465000Y-82223690D01*
X131684405Y-82223690D01*
X131425000Y-81963831D01*
X131425000Y-77750000D01*
X132036887Y-77750000D01*
X132146120Y-78299151D01*
X132457189Y-78764698D01*
X132922736Y-79075767D01*
X133471887Y-79185000D01*
X133528113Y-79185000D01*
X134077264Y-79075767D01*
X134542811Y-78764698D01*
X134629473Y-78635000D01*
X135946212Y-78635000D01*
X139026213Y-81715000D01*
X138285750Y-81715000D01*
X138127000Y-81873750D01*
X138127000Y-83123000D01*
X138147000Y-83123000D01*
X138147000Y-83377000D01*
X138127000Y-83377000D01*
X138127000Y-84626250D01*
X138285750Y-84785000D01*
X139026309Y-84785000D01*
X139259698Y-84688327D01*
X139438327Y-84509699D01*
X139494119Y-84375006D01*
X139669357Y-84550551D01*
X140233330Y-84784733D01*
X140843991Y-84785265D01*
X141408371Y-84552068D01*
X141840551Y-84120643D01*
X142074733Y-83556670D01*
X142074751Y-83535750D01*
X146465000Y-83535750D01*
X146465000Y-84276310D01*
X146561673Y-84509699D01*
X146740302Y-84688327D01*
X146973691Y-84785000D01*
X147714250Y-84785000D01*
X147873000Y-84626250D01*
X147873000Y-83377000D01*
X146623750Y-83377000D01*
X146465000Y-83535750D01*
X142074751Y-83535750D01*
X142075265Y-82946009D01*
X141842068Y-82381629D01*
X141684405Y-82223690D01*
X146465000Y-82223690D01*
X146465000Y-82964250D01*
X146623750Y-83123000D01*
X147873000Y-83123000D01*
X147873000Y-81873750D01*
X147714250Y-81715000D01*
X146973691Y-81715000D01*
X146740302Y-81811673D01*
X146561673Y-81990301D01*
X146465000Y-82223690D01*
X141684405Y-82223690D01*
X141421678Y-81960504D01*
X141357633Y-81638534D01*
X141357633Y-81638533D01*
X141165790Y-81351418D01*
X141165787Y-81351416D01*
X137564372Y-77750000D01*
X143376887Y-77750000D01*
X143486120Y-78299151D01*
X143797189Y-78764698D01*
X144262736Y-79075767D01*
X144811887Y-79185000D01*
X144868113Y-79185000D01*
X144997654Y-79159233D01*
X145014207Y-79175786D01*
X145014209Y-79175789D01*
X145301324Y-79367632D01*
X145639999Y-79434999D01*
X146746211Y-79434999D01*
X149026213Y-81715000D01*
X148285750Y-81715000D01*
X148127000Y-81873750D01*
X148127000Y-83123000D01*
X148147000Y-83123000D01*
X148147000Y-83377000D01*
X148127000Y-83377000D01*
X148127000Y-84626250D01*
X148285750Y-84785000D01*
X149026309Y-84785000D01*
X149259698Y-84688327D01*
X149438327Y-84509699D01*
X149494119Y-84375006D01*
X149669357Y-84550551D01*
X150233330Y-84784733D01*
X150843991Y-84785265D01*
X150964525Y-84735461D01*
X159354092Y-84735461D01*
X159378144Y-85385460D01*
X159580613Y-85874264D01*
X159847468Y-85972927D01*
X160820395Y-85000000D01*
X161179605Y-85000000D01*
X162152532Y-85972927D01*
X162419387Y-85874264D01*
X162645908Y-85264539D01*
X162626331Y-84735461D01*
X165854092Y-84735461D01*
X165878144Y-85385460D01*
X166080613Y-85874264D01*
X166347468Y-85972927D01*
X167320395Y-85000000D01*
X167679605Y-85000000D01*
X168652532Y-85972927D01*
X168919387Y-85874264D01*
X169145908Y-85264539D01*
X169121856Y-84614540D01*
X168919387Y-84125736D01*
X168652532Y-84027073D01*
X167679605Y-85000000D01*
X167320395Y-85000000D01*
X166347468Y-84027073D01*
X166080613Y-84125736D01*
X165854092Y-84735461D01*
X162626331Y-84735461D01*
X162621856Y-84614540D01*
X162419387Y-84125736D01*
X162152532Y-84027073D01*
X161179605Y-85000000D01*
X160820395Y-85000000D01*
X159847468Y-84027073D01*
X159580613Y-84125736D01*
X159354092Y-84735461D01*
X150964525Y-84735461D01*
X151408371Y-84552068D01*
X151840551Y-84120643D01*
X151953983Y-83847468D01*
X160027073Y-83847468D01*
X161000000Y-84820395D01*
X161972927Y-83847468D01*
X166527073Y-83847468D01*
X167500000Y-84820395D01*
X168472927Y-83847468D01*
X168374264Y-83580613D01*
X167764539Y-83354092D01*
X167114540Y-83378144D01*
X166625736Y-83580613D01*
X166527073Y-83847468D01*
X161972927Y-83847468D01*
X161874264Y-83580613D01*
X161264539Y-83354092D01*
X160614540Y-83378144D01*
X160125736Y-83580613D01*
X160027073Y-83847468D01*
X151953983Y-83847468D01*
X152074733Y-83556670D01*
X152075265Y-82946009D01*
X151842068Y-82381629D01*
X151421677Y-81960502D01*
X151357633Y-81638533D01*
X151165790Y-81351418D01*
X151165787Y-81351416D01*
X147738581Y-77924209D01*
X147650933Y-77865645D01*
X147451466Y-77732366D01*
X147395275Y-77721189D01*
X147112791Y-77664998D01*
X147112786Y-77664999D01*
X146286205Y-77664999D01*
X146193880Y-77200849D01*
X145882811Y-76735302D01*
X145417264Y-76424233D01*
X144868113Y-76315000D01*
X144811887Y-76315000D01*
X144262736Y-76424233D01*
X143797189Y-76735302D01*
X143486120Y-77200849D01*
X143376887Y-77750000D01*
X137564372Y-77750000D01*
X136938582Y-77124210D01*
X136824543Y-77048012D01*
X136651467Y-76932367D01*
X136595276Y-76921190D01*
X136312792Y-76864999D01*
X136312787Y-76865000D01*
X134629473Y-76865000D01*
X134542811Y-76735302D01*
X134077264Y-76424233D01*
X133528113Y-76315000D01*
X133471887Y-76315000D01*
X132922736Y-76424233D01*
X132457189Y-76735302D01*
X132146120Y-77200849D01*
X132036887Y-77750000D01*
X131425000Y-77750000D01*
X131425000Y-77576580D01*
X133342346Y-75659233D01*
X133471887Y-75685000D01*
X133528113Y-75685000D01*
X134077264Y-75575767D01*
X134542811Y-75264698D01*
X134853880Y-74799151D01*
X134963113Y-74250000D01*
X134853880Y-73700849D01*
X134743565Y-73535750D01*
X136465000Y-73535750D01*
X136465000Y-74276310D01*
X136561673Y-74509699D01*
X136740302Y-74688327D01*
X136973691Y-74785000D01*
X137714250Y-74785000D01*
X137873000Y-74626250D01*
X137873000Y-73377000D01*
X136623750Y-73377000D01*
X136465000Y-73535750D01*
X134743565Y-73535750D01*
X134542811Y-73235302D01*
X134078511Y-72925066D01*
X134368577Y-72635000D01*
X136465000Y-72635000D01*
X136465000Y-72964250D01*
X136623750Y-73123000D01*
X137873000Y-73123000D01*
X137873000Y-73103000D01*
X138127000Y-73103000D01*
X138127000Y-73123000D01*
X138147000Y-73123000D01*
X138147000Y-73377000D01*
X138127000Y-73377000D01*
X138127000Y-74626250D01*
X138285750Y-74785000D01*
X139026309Y-74785000D01*
X139259698Y-74688327D01*
X139438327Y-74509699D01*
X139494119Y-74375006D01*
X139669357Y-74550551D01*
X140233330Y-74784733D01*
X140823668Y-74785247D01*
X140914208Y-74875787D01*
X140914210Y-74875790D01*
X141061510Y-74974212D01*
X141201326Y-75067634D01*
X141540000Y-75135001D01*
X141540005Y-75135000D01*
X143710527Y-75135000D01*
X143797189Y-75264698D01*
X144262736Y-75575767D01*
X144811887Y-75685000D01*
X144868113Y-75685000D01*
X145417264Y-75575767D01*
X145882811Y-75264698D01*
X146193880Y-74799151D01*
X146303113Y-74250000D01*
X146210618Y-73784999D01*
X147785417Y-73784999D01*
X153726207Y-79725788D01*
X153726209Y-79725791D01*
X154013324Y-79917634D01*
X154069515Y-79928811D01*
X154351999Y-79985002D01*
X154352004Y-79985001D01*
X155647996Y-79985001D01*
X155648001Y-79985002D01*
X155930485Y-79928811D01*
X155986676Y-79917634D01*
X156273791Y-79725791D01*
X157615000Y-78384581D01*
X157615000Y-80293997D01*
X157614999Y-80294002D01*
X157671190Y-80576486D01*
X157682367Y-80632677D01*
X157810067Y-80823795D01*
X157874210Y-80919792D01*
X159630207Y-82675788D01*
X159630209Y-82675791D01*
X159666441Y-82700000D01*
X159917325Y-82867635D01*
X160255999Y-82935002D01*
X160256004Y-82935001D01*
X180183421Y-82935001D01*
X181603126Y-84354706D01*
X181602758Y-84776661D01*
X181814990Y-85290303D01*
X182207630Y-85683629D01*
X182720900Y-85896757D01*
X183276661Y-85897242D01*
X183790303Y-85685010D01*
X184183629Y-85292370D01*
X184396757Y-84779100D01*
X184397242Y-84223339D01*
X184185010Y-83709697D01*
X183792370Y-83316371D01*
X183279100Y-83103243D01*
X182854452Y-83102872D01*
X181175791Y-81424211D01*
X181175788Y-81424209D01*
X171395789Y-71644209D01*
X171293377Y-71575780D01*
X171108674Y-71452366D01*
X171052483Y-71441189D01*
X170769999Y-71384998D01*
X170769994Y-71384999D01*
X167098576Y-71384999D01*
X163044103Y-67330526D01*
X163474698Y-67042811D01*
X163730000Y-66660725D01*
X163985302Y-67042811D01*
X164450849Y-67353880D01*
X165000000Y-67463113D01*
X165549151Y-67353880D01*
X166014698Y-67042811D01*
X166284986Y-66638297D01*
X166387611Y-66855134D01*
X166802577Y-67231041D01*
X167190961Y-67391904D01*
X167413000Y-67269915D01*
X167413000Y-66127000D01*
X167667000Y-66127000D01*
X167667000Y-67269915D01*
X167889039Y-67391904D01*
X168277423Y-67231041D01*
X168692389Y-66855134D01*
X168931914Y-66349041D01*
X168810629Y-66127000D01*
X167667000Y-66127000D01*
X167413000Y-66127000D01*
X167393000Y-66127000D01*
X167393000Y-65873000D01*
X167413000Y-65873000D01*
X167413000Y-64730085D01*
X167667000Y-64730085D01*
X167667000Y-65873000D01*
X168810629Y-65873000D01*
X168931914Y-65650959D01*
X168692389Y-65144866D01*
X168510628Y-64980213D01*
X182199392Y-64980213D01*
X182268857Y-65222397D01*
X182792302Y-65409144D01*
X183347368Y-65381362D01*
X183731143Y-65222397D01*
X183800608Y-64980213D01*
X183000000Y-64179605D01*
X182199392Y-64980213D01*
X168510628Y-64980213D01*
X168277423Y-64768959D01*
X167889039Y-64608096D01*
X167667000Y-64730085D01*
X167413000Y-64730085D01*
X167190961Y-64608096D01*
X166802577Y-64768959D01*
X166387611Y-65144866D01*
X166284986Y-65361703D01*
X166014698Y-64957189D01*
X165885000Y-64870527D01*
X165885000Y-63792302D01*
X181590856Y-63792302D01*
X181618638Y-64347368D01*
X181777603Y-64731143D01*
X182019787Y-64800608D01*
X182820395Y-64000000D01*
X183179605Y-64000000D01*
X183980213Y-64800608D01*
X184222397Y-64731143D01*
X184409144Y-64207698D01*
X184381362Y-63652632D01*
X184222397Y-63268857D01*
X183980213Y-63199392D01*
X183179605Y-64000000D01*
X182820395Y-64000000D01*
X182019787Y-63199392D01*
X181777603Y-63268857D01*
X181590856Y-63792302D01*
X165885000Y-63792302D01*
X165885000Y-63019787D01*
X182199392Y-63019787D01*
X183000000Y-63820395D01*
X183800608Y-63019787D01*
X183731143Y-62777603D01*
X183207698Y-62590856D01*
X182652632Y-62618638D01*
X182268857Y-62777603D01*
X182199392Y-63019787D01*
X165885000Y-63019787D01*
X165885000Y-62434900D01*
X166284187Y-62435248D01*
X166811800Y-62217243D01*
X167215824Y-61813923D01*
X167434750Y-61286691D01*
X167435248Y-60715813D01*
X167217243Y-60188200D01*
X166813923Y-59784176D01*
X166286691Y-59565250D01*
X165715813Y-59564752D01*
X165188200Y-59782757D01*
X164784176Y-60186077D01*
X164565250Y-60713309D01*
X164564840Y-61183580D01*
X164374210Y-61374210D01*
X164182367Y-61661325D01*
X164182367Y-61661326D01*
X164114999Y-62000000D01*
X164115000Y-62000005D01*
X164115000Y-63863420D01*
X163475779Y-63224199D01*
X163324323Y-63123000D01*
X163188664Y-63032356D01*
X163125476Y-63019787D01*
X162849989Y-62964988D01*
X162849984Y-62964989D01*
X156520625Y-62964989D01*
X156181950Y-63032356D01*
X155894835Y-63224199D01*
X155894833Y-63224202D01*
X150154033Y-68965001D01*
X146210618Y-68965001D01*
X146286205Y-68585001D01*
X147362786Y-68585001D01*
X147362791Y-68585002D01*
X147645275Y-68528811D01*
X147701466Y-68517634D01*
X147988581Y-68325791D01*
X151165787Y-65148584D01*
X151165790Y-65148582D01*
X151357633Y-64861467D01*
X151392073Y-64688327D01*
X151421855Y-64538608D01*
X151840551Y-64120643D01*
X152074733Y-63556670D01*
X152075265Y-62946009D01*
X151967418Y-62684999D01*
X155039996Y-62684999D01*
X155040001Y-62685000D01*
X155345606Y-62624210D01*
X155378676Y-62617632D01*
X155665791Y-62425789D01*
X155682347Y-62409233D01*
X155811887Y-62435000D01*
X155868113Y-62435000D01*
X156417264Y-62325767D01*
X156882811Y-62014698D01*
X157193880Y-61549151D01*
X157303113Y-61000000D01*
X157193880Y-60450849D01*
X156882811Y-59985302D01*
X156417264Y-59674233D01*
X155868113Y-59565000D01*
X155811887Y-59565000D01*
X155262736Y-59674233D01*
X154797189Y-59985302D01*
X154486120Y-60450849D01*
X154393795Y-60914999D01*
X141950006Y-60914999D01*
X141950001Y-60914998D01*
X141611326Y-60982366D01*
X141324211Y-61174209D01*
X141324209Y-61174212D01*
X140783173Y-61715247D01*
X140196009Y-61714735D01*
X139631629Y-61947932D01*
X139454159Y-62125092D01*
X139398327Y-61990301D01*
X139219698Y-61811673D01*
X138986309Y-61715000D01*
X138245750Y-61715000D01*
X138087000Y-61873750D01*
X138087000Y-63123000D01*
X138107000Y-63123000D01*
X138107000Y-63377000D01*
X138087000Y-63377000D01*
X138087000Y-64626250D01*
X138245750Y-64785000D01*
X138986309Y-64785000D01*
X139219698Y-64688327D01*
X139398327Y-64509699D01*
X139454119Y-64375006D01*
X139629357Y-64550551D01*
X140193330Y-64784733D01*
X140803991Y-64785265D01*
X141368371Y-64552068D01*
X141800551Y-64120643D01*
X142034733Y-63556670D01*
X142034751Y-63535750D01*
X146465000Y-63535750D01*
X146465000Y-64276310D01*
X146561673Y-64509699D01*
X146740302Y-64688327D01*
X146973691Y-64785000D01*
X147714250Y-64785000D01*
X147873000Y-64626250D01*
X147873000Y-63377000D01*
X146623750Y-63377000D01*
X146465000Y-63535750D01*
X142034751Y-63535750D01*
X142035247Y-62966333D01*
X142316580Y-62684999D01*
X146465000Y-62684999D01*
X146465000Y-62964250D01*
X146623750Y-63123000D01*
X147873000Y-63123000D01*
X147873000Y-63103000D01*
X148127000Y-63103000D01*
X148127000Y-63123000D01*
X148147000Y-63123000D01*
X148147000Y-63377000D01*
X148127000Y-63377000D01*
X148127000Y-64626250D01*
X148285750Y-64785000D01*
X149026213Y-64785000D01*
X146996211Y-66815001D01*
X145639999Y-66815001D01*
X145301324Y-66882368D01*
X145014209Y-67074211D01*
X145014207Y-67074214D01*
X144997654Y-67090767D01*
X144868113Y-67065000D01*
X144811887Y-67065000D01*
X144262736Y-67174233D01*
X143797189Y-67485302D01*
X143486120Y-67950849D01*
X143376887Y-68500000D01*
X143469382Y-68965001D01*
X134870618Y-68965001D01*
X134963113Y-68500000D01*
X134853880Y-67950849D01*
X134542811Y-67485302D01*
X134385000Y-67379856D01*
X134385000Y-66210005D01*
X134385001Y-66210000D01*
X134317633Y-65871325D01*
X134287208Y-65825790D01*
X134125790Y-65584210D01*
X134125787Y-65584208D01*
X132077329Y-63535750D01*
X136425000Y-63535750D01*
X136425000Y-64276310D01*
X136521673Y-64509699D01*
X136700302Y-64688327D01*
X136933691Y-64785000D01*
X137674250Y-64785000D01*
X137833000Y-64626250D01*
X137833000Y-63377000D01*
X136583750Y-63377000D01*
X136425000Y-63535750D01*
X132077329Y-63535750D01*
X132074753Y-63533174D01*
X132075265Y-62946009D01*
X131842068Y-62381629D01*
X131684405Y-62223690D01*
X136425000Y-62223690D01*
X136425000Y-62964250D01*
X136583750Y-63123000D01*
X137833000Y-63123000D01*
X137833000Y-61873750D01*
X137674250Y-61715000D01*
X136933691Y-61715000D01*
X136700302Y-61811673D01*
X136521673Y-61990301D01*
X136425000Y-62223690D01*
X131684405Y-62223690D01*
X131410643Y-61949449D01*
X130846670Y-61715267D01*
X130236009Y-61714735D01*
X129671629Y-61947932D01*
X129494159Y-62125092D01*
X129438327Y-61990301D01*
X129259698Y-61811673D01*
X129026309Y-61715000D01*
X128285750Y-61715000D01*
X128127000Y-61873750D01*
X128127000Y-63123000D01*
X128147000Y-63123000D01*
X128147000Y-63377000D01*
X128127000Y-63377000D01*
X128127000Y-64626250D01*
X128285750Y-64785000D01*
X129026309Y-64785000D01*
X129259698Y-64688327D01*
X129438327Y-64509699D01*
X129494119Y-64375006D01*
X129669357Y-64550551D01*
X130233330Y-64784733D01*
X130823668Y-64785247D01*
X132615000Y-66576579D01*
X132615000Y-67379856D01*
X132457189Y-67485302D01*
X132169474Y-67915897D01*
X130777787Y-66524209D01*
X130490672Y-66332366D01*
X130434481Y-66321189D01*
X130151997Y-66264998D01*
X130151992Y-66264999D01*
X122692004Y-66264999D01*
X122691999Y-66264998D01*
X122409515Y-66321189D01*
X122353324Y-66332366D01*
X122066209Y-66524209D01*
X122066207Y-66524212D01*
X121364209Y-67226209D01*
X121172366Y-67513324D01*
X121172366Y-67513325D01*
X121104998Y-67851999D01*
X120127000Y-67851999D01*
X120127000Y-63535750D01*
X126465000Y-63535750D01*
X126465000Y-64276310D01*
X126561673Y-64509699D01*
X126740302Y-64688327D01*
X126973691Y-64785000D01*
X127714250Y-64785000D01*
X127873000Y-64626250D01*
X127873000Y-63377000D01*
X126623750Y-63377000D01*
X126465000Y-63535750D01*
X120127000Y-63535750D01*
X120127000Y-62223690D01*
X126465000Y-62223690D01*
X126465000Y-62964250D01*
X126623750Y-63123000D01*
X127873000Y-63123000D01*
X127873000Y-61873750D01*
X127714250Y-61715000D01*
X126973691Y-61715000D01*
X126740302Y-61811673D01*
X126561673Y-61990301D01*
X126465000Y-62223690D01*
X120127000Y-62223690D01*
X120127000Y-58127000D01*
X195873000Y-58127000D01*
X195873000Y-87873000D01*
M02*
