<?xml version="1.0" standalone="no"?>
 <!DOCTYPE svg PUBLIC "-//W3C//DTD SVG 1.1//EN" 
 "http://www.w3.org/Graphics/SVG/1.1/DTD/svg11.dtd"> 
<svg xmlns="http://www.w3.org/2000/svg" version="1.1" 
    width="29.7002cm" height="21.0007cm" viewBox="0 0 116930 82680 ">
<title>SVG Picture created as Wuerfel-brd.svg date 2018/08/27 22:56:15 </title>
  <desc>Picture generated by PCBNEW </desc>
<g style="fill:#000000; fill-opacity:1;stroke:#000000; stroke-opacity:1;
stroke-linecap:round; stroke-linejoin:round; "
 transform="translate(0 0) scale(1 1)">
</g>
<g style="fill:#000000; fill-opacity:0.0; 
stroke:#000000; stroke-width:-0.000393701; stroke-opacity:1; 
stroke-linecap:round; stroke-linejoin:round;">
</g>
<g style="fill:#000000; fill-opacity:0.0; 
stroke:#000000; stroke-width:39.3701; stroke-opacity:1; 
stroke-linecap:round; stroke-linejoin:round;">
</g>
<g style="fill:#000000; fill-opacity:0.0; 
stroke:#000000; stroke-width:59.0551; stroke-opacity:1; 
stroke-linecap:round; stroke-linejoin:round;">
<rect x="69685.9" y="65357.2" width="42519.7" height="12598.4" rx="0" />
</g>
<g style="fill:#000000; fill-opacity:0.0; 
stroke:#000000; stroke-width:39.3701; stroke-opacity:1; 
stroke-linecap:round; stroke-linejoin:round;">
</g>
<g style="fill:#000000; fill-opacity:0.0; 
stroke:#000000; stroke-width:59.0551; stroke-opacity:1; 
stroke-linecap:round; stroke-linejoin:round;">
<rect x="3937.01" y="3937.01" width="109056" height="74806" rx="0" />
</g>
<g style="fill:#000000; fill-opacity:0.0; 
stroke:#000000; stroke-width:39.3701; stroke-opacity:1; 
stroke-linecap:round; stroke-linejoin:round;">
</g>
<g style="fill:#000000; fill-opacity:0.0; 
stroke:#000000; stroke-width:59.0551; stroke-opacity:1; 
stroke-linecap:round; stroke-linejoin:round;">
<rect x="4724.41" y="4724.41" width="107481" height="73231.2" rx="0" />
</g>
<g style="fill:#000000; fill-opacity:0.0; 
stroke:#000000; stroke-width:39.3701; stroke-opacity:1; 
stroke-linecap:round; stroke-linejoin:round;">
</g>
<g style="fill:#000000; fill-opacity:0.0; 
stroke:#000000; stroke-width:59.0551; stroke-opacity:1; 
stroke-linecap:round; stroke-linejoin:round;">
<path d="M23622 4724
L23622 3937
" />
</g>
<g style="fill:#000000; fill-opacity:0.0; 
stroke:#000000; stroke-width:39.3701; stroke-opacity:1; 
stroke-linecap:round; stroke-linejoin:round;">
</g>
<g style="fill:#000000; fill-opacity:0.0; 
stroke:#000000; stroke-width:59.0551; stroke-opacity:1; 
stroke-linecap:round; stroke-linejoin:round;">
<path d="M43307 4724
L43307 3937
" />
</g>
<g style="fill:#000000; fill-opacity:0.0; 
stroke:#000000; stroke-width:39.3701; stroke-opacity:1; 
stroke-linecap:round; stroke-linejoin:round;">
</g>
<g style="fill:#000000; fill-opacity:0.0; 
stroke:#000000; stroke-width:59.0551; stroke-opacity:1; 
stroke-linecap:round; stroke-linejoin:round;">
<path d="M62992 4724
L62992 3937
" />
</g>
<g style="fill:#000000; fill-opacity:0.0; 
stroke:#000000; stroke-width:39.3701; stroke-opacity:1; 
stroke-linecap:round; stroke-linejoin:round;">
</g>
<g style="fill:#000000; fill-opacity:0.0; 
stroke:#000000; stroke-width:59.0551; stroke-opacity:1; 
stroke-linecap:round; stroke-linejoin:round;">
<path d="M82677 4724
L82677 3937
" />
</g>
<g style="fill:#000000; fill-opacity:0.0; 
stroke:#000000; stroke-width:39.3701; stroke-opacity:1; 
stroke-linecap:round; stroke-linejoin:round;">
</g>
<g style="fill:#000000; fill-opacity:0.0; 
stroke:#000000; stroke-width:59.0551; stroke-opacity:1; 
stroke-linecap:round; stroke-linejoin:round;">
<path d="M102362 4724
L102362 3937
" />
</g>
<g style="fill:#000000; fill-opacity:0.0; 
stroke:#000000; stroke-width:39.3701; stroke-opacity:1; 
stroke-linecap:round; stroke-linejoin:round;">
</g>
<g style="fill:#000000; fill-opacity:0.0; 
stroke:#000000; stroke-width:59.0551; stroke-opacity:1; 
stroke-linecap:round; stroke-linejoin:round;">
<path d="M14199 4562
L13906 4562
" />
<path d="M14052 4562
L14052 4050
L14004 4123
L13955 4172
L13906 4196
" />
</g>
<g style="fill:#000000; fill-opacity:0.0; 
stroke:#000000; stroke-width:39.3701; stroke-opacity:1; 
stroke-linecap:round; stroke-linejoin:round;">
</g>
<g style="fill:#000000; fill-opacity:0.0; 
stroke:#000000; stroke-width:59.0551; stroke-opacity:1; 
stroke-linecap:round; stroke-linejoin:round;">
<path d="M33591 4099
L33615 4074
L33664 4050
L33786 4050
L33835 4074
L33859 4099
L33884 4147
L33884 4196
L33859 4269
L33567 4562
L33884 4562
" />
</g>
<g style="fill:#000000; fill-opacity:0.0; 
stroke:#000000; stroke-width:39.3701; stroke-opacity:1; 
stroke-linecap:round; stroke-linejoin:round;">
</g>
<g style="fill:#000000; fill-opacity:0.0; 
stroke:#000000; stroke-width:59.0551; stroke-opacity:1; 
stroke-linecap:round; stroke-linejoin:round;">
<path d="M53252 4050
L53569 4050
L53398 4245
L53471 4245
L53520 4269
L53544 4294
L53569 4342
L53569 4464
L53544 4513
L53520 4537
L53471 4562
L53325 4562
L53276 4537
L53252 4513
" />
</g>
<g style="fill:#000000; fill-opacity:0.0; 
stroke:#000000; stroke-width:39.3701; stroke-opacity:1; 
stroke-linecap:round; stroke-linejoin:round;">
</g>
<g style="fill:#000000; fill-opacity:0.0; 
stroke:#000000; stroke-width:59.0551; stroke-opacity:1; 
stroke-linecap:round; stroke-linejoin:round;">
<path d="M73205 4221
L73205 4562
" />
<path d="M73083 4026
L72961 4391
L73278 4391
" />
</g>
<g style="fill:#000000; fill-opacity:0.0; 
stroke:#000000; stroke-width:39.3701; stroke-opacity:1; 
stroke-linecap:round; stroke-linejoin:round;">
</g>
<g style="fill:#000000; fill-opacity:0.0; 
stroke:#000000; stroke-width:59.0551; stroke-opacity:1; 
stroke-linecap:round; stroke-linejoin:round;">
<path d="M92914 4050
L92671 4050
L92646 4294
L92671 4269
L92719 4245
L92841 4245
L92890 4269
L92914 4294
L92939 4342
L92939 4464
L92914 4513
L92890 4537
L92841 4562
L92719 4562
L92671 4537
L92646 4513
" />
</g>
<g style="fill:#000000; fill-opacity:0.0; 
stroke:#000000; stroke-width:39.3701; stroke-opacity:1; 
stroke-linecap:round; stroke-linejoin:round;">
</g>
<g style="fill:#000000; fill-opacity:0.0; 
stroke:#000000; stroke-width:59.0551; stroke-opacity:1; 
stroke-linecap:round; stroke-linejoin:round;">
<path d="M112575 4050
L112477 4050
L112429 4074
L112404 4099
L112356 4172
L112331 4269
L112331 4464
L112356 4513
L112380 4537
L112429 4562
L112526 4562
L112575 4537
L112599 4513
L112624 4464
L112624 4342
L112599 4294
L112575 4269
L112526 4245
L112429 4245
L112380 4269
L112356 4294
L112331 4342
" />
</g>
<g style="fill:#000000; fill-opacity:0.0; 
stroke:#000000; stroke-width:39.3701; stroke-opacity:1; 
stroke-linecap:round; stroke-linejoin:round;">
</g>
<g style="fill:#000000; fill-opacity:0.0; 
stroke:#000000; stroke-width:59.0551; stroke-opacity:1; 
stroke-linecap:round; stroke-linejoin:round;">
<path d="M23622 77955
L23622 78742
" />
</g>
<g style="fill:#000000; fill-opacity:0.0; 
stroke:#000000; stroke-width:39.3701; stroke-opacity:1; 
stroke-linecap:round; stroke-linejoin:round;">
</g>
<g style="fill:#000000; fill-opacity:0.0; 
stroke:#000000; stroke-width:59.0551; stroke-opacity:1; 
stroke-linecap:round; stroke-linejoin:round;">
<path d="M43307 77955
L43307 78742
" />
</g>
<g style="fill:#000000; fill-opacity:0.0; 
stroke:#000000; stroke-width:39.3701; stroke-opacity:1; 
stroke-linecap:round; stroke-linejoin:round;">
</g>
<g style="fill:#000000; fill-opacity:0.0; 
stroke:#000000; stroke-width:59.0551; stroke-opacity:1; 
stroke-linecap:round; stroke-linejoin:round;">
<path d="M62992 77955
L62992 78742
" />
</g>
<g style="fill:#000000; fill-opacity:0.0; 
stroke:#000000; stroke-width:39.3701; stroke-opacity:1; 
stroke-linecap:round; stroke-linejoin:round;">
</g>
<g style="fill:#000000; fill-opacity:0.0; 
stroke:#000000; stroke-width:59.0551; stroke-opacity:1; 
stroke-linecap:round; stroke-linejoin:round;">
<path d="M82677 77955
L82677 78742
" />
</g>
<g style="fill:#000000; fill-opacity:0.0; 
stroke:#000000; stroke-width:39.3701; stroke-opacity:1; 
stroke-linecap:round; stroke-linejoin:round;">
</g>
<g style="fill:#000000; fill-opacity:0.0; 
stroke:#000000; stroke-width:59.0551; stroke-opacity:1; 
stroke-linecap:round; stroke-linejoin:round;">
<path d="M102362 77955
L102362 78742
" />
</g>
<g style="fill:#000000; fill-opacity:0.0; 
stroke:#000000; stroke-width:39.3701; stroke-opacity:1; 
stroke-linecap:round; stroke-linejoin:round;">
</g>
<g style="fill:#000000; fill-opacity:0.0; 
stroke:#000000; stroke-width:59.0551; stroke-opacity:1; 
stroke-linecap:round; stroke-linejoin:round;">
<path d="M14199 78580
L13906 78580
" />
<path d="M14052 78580
L14052 78069
L14004 78142
L13955 78190
L13906 78215
" />
</g>
<g style="fill:#000000; fill-opacity:0.0; 
stroke:#000000; stroke-width:39.3701; stroke-opacity:1; 
stroke-linecap:round; stroke-linejoin:round;">
</g>
<g style="fill:#000000; fill-opacity:0.0; 
stroke:#000000; stroke-width:59.0551; stroke-opacity:1; 
stroke-linecap:round; stroke-linejoin:round;">
<path d="M33591 78117
L33615 78093
L33664 78069
L33786 78069
L33835 78093
L33859 78117
L33884 78166
L33884 78215
L33859 78288
L33567 78580
L33884 78580
" />
</g>
<g style="fill:#000000; fill-opacity:0.0; 
stroke:#000000; stroke-width:39.3701; stroke-opacity:1; 
stroke-linecap:round; stroke-linejoin:round;">
</g>
<g style="fill:#000000; fill-opacity:0.0; 
stroke:#000000; stroke-width:59.0551; stroke-opacity:1; 
stroke-linecap:round; stroke-linejoin:round;">
<path d="M53252 78069
L53569 78069
L53398 78263
L53471 78263
L53520 78288
L53544 78312
L53569 78361
L53569 78483
L53544 78532
L53520 78556
L53471 78580
L53325 78580
L53276 78556
L53252 78532
" />
</g>
<g style="fill:#000000; fill-opacity:0.0; 
stroke:#000000; stroke-width:39.3701; stroke-opacity:1; 
stroke-linecap:round; stroke-linejoin:round;">
</g>
<g style="fill:#000000; fill-opacity:0.0; 
stroke:#000000; stroke-width:59.0551; stroke-opacity:1; 
stroke-linecap:round; stroke-linejoin:round;">
<path d="M73205 78239
L73205 78580
" />
<path d="M73083 78044
L72961 78410
L73278 78410
" />
</g>
<g style="fill:#000000; fill-opacity:0.0; 
stroke:#000000; stroke-width:39.3701; stroke-opacity:1; 
stroke-linecap:round; stroke-linejoin:round;">
</g>
<g style="fill:#000000; fill-opacity:0.0; 
stroke:#000000; stroke-width:59.0551; stroke-opacity:1; 
stroke-linecap:round; stroke-linejoin:round;">
<path d="M92914 78069
L92671 78069
L92646 78312
L92671 78288
L92719 78263
L92841 78263
L92890 78288
L92914 78312
L92939 78361
L92939 78483
L92914 78532
L92890 78556
L92841 78580
L92719 78580
L92671 78556
L92646 78532
" />
</g>
<g style="fill:#000000; fill-opacity:0.0; 
stroke:#000000; stroke-width:39.3701; stroke-opacity:1; 
stroke-linecap:round; stroke-linejoin:round;">
</g>
<g style="fill:#000000; fill-opacity:0.0; 
stroke:#000000; stroke-width:59.0551; stroke-opacity:1; 
stroke-linecap:round; stroke-linejoin:round;">
<path d="M112575 78069
L112477 78069
L112429 78093
L112404 78117
L112356 78190
L112331 78288
L112331 78483
L112356 78532
L112380 78556
L112429 78580
L112526 78580
L112575 78556
L112599 78532
L112624 78483
L112624 78361
L112599 78312
L112575 78288
L112526 78263
L112429 78263
L112380 78288
L112356 78312
L112331 78361
" />
</g>
<g style="fill:#000000; fill-opacity:0.0; 
stroke:#000000; stroke-width:39.3701; stroke-opacity:1; 
stroke-linecap:round; stroke-linejoin:round;">
</g>
<g style="fill:#000000; fill-opacity:0.0; 
stroke:#000000; stroke-width:59.0551; stroke-opacity:1; 
stroke-linecap:round; stroke-linejoin:round;">
<path d="M3937 23622
L4724 23622
" />
</g>
<g style="fill:#000000; fill-opacity:0.0; 
stroke:#000000; stroke-width:39.3701; stroke-opacity:1; 
stroke-linecap:round; stroke-linejoin:round;">
</g>
<g style="fill:#000000; fill-opacity:0.0; 
stroke:#000000; stroke-width:59.0551; stroke-opacity:1; 
stroke-linecap:round; stroke-linejoin:round;">
<path d="M3937 43307
L4724 43307
" />
</g>
<g style="fill:#000000; fill-opacity:0.0; 
stroke:#000000; stroke-width:39.3701; stroke-opacity:1; 
stroke-linecap:round; stroke-linejoin:round;">
</g>
<g style="fill:#000000; fill-opacity:0.0; 
stroke:#000000; stroke-width:59.0551; stroke-opacity:1; 
stroke-linecap:round; stroke-linejoin:round;">
<path d="M3937 62992
L4724 62992
" />
</g>
<g style="fill:#000000; fill-opacity:0.0; 
stroke:#000000; stroke-width:39.3701; stroke-opacity:1; 
stroke-linecap:round; stroke-linejoin:round;">
</g>
<g style="fill:#000000; fill-opacity:0.0; 
stroke:#000000; stroke-width:59.0551; stroke-opacity:1; 
stroke-linecap:round; stroke-linejoin:round;">
<path d="M4208 13864
L4452 13864
" />
<path d="M4160 14011
L4330 13499
L4501 14011
" />
</g>
<g style="fill:#000000; fill-opacity:0.0; 
stroke:#000000; stroke-width:39.3701; stroke-opacity:1; 
stroke-linecap:round; stroke-linejoin:round;">
</g>
<g style="fill:#000000; fill-opacity:0.0; 
stroke:#000000; stroke-width:59.0551; stroke-opacity:1; 
stroke-linecap:round; stroke-linejoin:round;">
<path d="M4367 33428
L4440 33452
L4464 33476
L4489 33525
L4489 33598
L4464 33647
L4440 33671
L4391 33696
L4196 33696
L4196 33184
L4367 33184
L4416 33208
L4440 33233
L4464 33281
L4464 33330
L4440 33379
L4416 33403
L4367 33428
L4196 33428
" />
</g>
<g style="fill:#000000; fill-opacity:0.0; 
stroke:#000000; stroke-width:39.3701; stroke-opacity:1; 
stroke-linecap:round; stroke-linejoin:round;">
</g>
<g style="fill:#000000; fill-opacity:0.0; 
stroke:#000000; stroke-width:59.0551; stroke-opacity:1; 
stroke-linecap:round; stroke-linejoin:round;">
<path d="M4489 53332
L4464 53356
L4391 53381
L4342 53381
L4269 53356
L4221 53308
L4196 53259
L4172 53161
L4172 53088
L4196 52991
L4221 52942
L4269 52893
L4342 52869
L4391 52869
L4464 52893
L4489 52918
" />
</g>
<g style="fill:#000000; fill-opacity:0.0; 
stroke:#000000; stroke-width:39.3701; stroke-opacity:1; 
stroke-linecap:round; stroke-linejoin:round;">
</g>
<g style="fill:#000000; fill-opacity:0.0; 
stroke:#000000; stroke-width:59.0551; stroke-opacity:1; 
stroke-linecap:round; stroke-linejoin:round;">
<path d="M4196 73066
L4196 72554
L4318 72554
L4391 72578
L4440 72627
L4464 72676
L4489 72773
L4489 72846
L4464 72944
L4440 72993
L4391 73041
L4318 73066
L4196 73066
" />
</g>
<g style="fill:#000000; fill-opacity:0.0; 
stroke:#000000; stroke-width:39.3701; stroke-opacity:1; 
stroke-linecap:round; stroke-linejoin:round;">
</g>
<g style="fill:#000000; fill-opacity:0.0; 
stroke:#000000; stroke-width:59.0551; stroke-opacity:1; 
stroke-linecap:round; stroke-linejoin:round;">
<path d="M112992 23622
L112205 23622
" />
</g>
<g style="fill:#000000; fill-opacity:0.0; 
stroke:#000000; stroke-width:39.3701; stroke-opacity:1; 
stroke-linecap:round; stroke-linejoin:round;">
</g>
<g style="fill:#000000; fill-opacity:0.0; 
stroke:#000000; stroke-width:59.0551; stroke-opacity:1; 
stroke-linecap:round; stroke-linejoin:round;">
<path d="M112992 43307
L112205 43307
" />
</g>
<g style="fill:#000000; fill-opacity:0.0; 
stroke:#000000; stroke-width:39.3701; stroke-opacity:1; 
stroke-linecap:round; stroke-linejoin:round;">
</g>
<g style="fill:#000000; fill-opacity:0.0; 
stroke:#000000; stroke-width:59.0551; stroke-opacity:1; 
stroke-linecap:round; stroke-linejoin:round;">
<path d="M112992 62992
L112205 62992
" />
</g>
<g style="fill:#000000; fill-opacity:0.0; 
stroke:#000000; stroke-width:39.3701; stroke-opacity:1; 
stroke-linecap:round; stroke-linejoin:round;">
</g>
<g style="fill:#000000; fill-opacity:0.0; 
stroke:#000000; stroke-width:59.0551; stroke-opacity:1; 
stroke-linecap:round; stroke-linejoin:round;">
<path d="M112477 13864
L112721 13864
" />
<path d="M112428 14011
L112599 13499
L112769 14011
" />
</g>
<g style="fill:#000000; fill-opacity:0.0; 
stroke:#000000; stroke-width:39.3701; stroke-opacity:1; 
stroke-linecap:round; stroke-linejoin:round;">
</g>
<g style="fill:#000000; fill-opacity:0.0; 
stroke:#000000; stroke-width:59.0551; stroke-opacity:1; 
stroke-linecap:round; stroke-linejoin:round;">
<path d="M112635 33428
L112708 33452
L112733 33476
L112757 33525
L112757 33598
L112733 33647
L112708 33671
L112660 33696
L112465 33696
L112465 33184
L112635 33184
L112684 33208
L112708 33233
L112733 33281
L112733 33330
L112708 33379
L112684 33403
L112635 33428
L112465 33428
" />
</g>
<g style="fill:#000000; fill-opacity:0.0; 
stroke:#000000; stroke-width:39.3701; stroke-opacity:1; 
stroke-linecap:round; stroke-linejoin:round;">
</g>
<g style="fill:#000000; fill-opacity:0.0; 
stroke:#000000; stroke-width:59.0551; stroke-opacity:1; 
stroke-linecap:round; stroke-linejoin:round;">
<path d="M112757 53332
L112733 53356
L112660 53381
L112611 53381
L112538 53356
L112489 53308
L112465 53259
L112440 53161
L112440 53088
L112465 52991
L112489 52942
L112538 52893
L112611 52869
L112660 52869
L112733 52893
L112757 52918
" />
</g>
<g style="fill:#000000; fill-opacity:0.0; 
stroke:#000000; stroke-width:39.3701; stroke-opacity:1; 
stroke-linecap:round; stroke-linejoin:round;">
</g>
<g style="fill:#000000; fill-opacity:0.0; 
stroke:#000000; stroke-width:59.0551; stroke-opacity:1; 
stroke-linecap:round; stroke-linejoin:round;">
<path d="M112465 73066
L112465 72554
L112587 72554
L112660 72578
L112708 72627
L112733 72676
L112757 72773
L112757 72846
L112733 72944
L112708 72993
L112660 73041
L112587 73066
L112465 73066
" />
</g>
<g style="fill:#000000; fill-opacity:0.0; 
stroke:#000000; stroke-width:39.3701; stroke-opacity:1; 
stroke-linecap:round; stroke-linejoin:round;">
</g>
<g style="fill:#000000; fill-opacity:0.0; 
stroke:#000000; stroke-width:59.0551; stroke-opacity:1; 
stroke-linecap:round; stroke-linejoin:round;">
<path d="M78911 76293
L78911 75703
L79051 75703
L79136 75731
L79192 75787
L79220 75843
L79248 75956
L79248 76040
L79220 76153
L79192 76209
L79136 76265
L79051 76293
L78911 76293
" />
<path d="M79754 76293
L79754 75984
L79726 75928
L79670 75899
L79557 75899
L79501 75928
" />
<path d="M79754 76265
L79698 76293
L79557 76293
L79501 76265
L79473 76209
L79473 76153
L79501 76096
L79557 76068
L79698 76068
L79754 76040
" />
<path d="M79951 75899
L80176 75899
" />
<path d="M80036 75703
L80036 76209
L80064 76265
L80120 76293
L80176 76293
" />
<path d="M80598 76265
L80542 76293
L80429 76293
L80373 76265
L80345 76209
L80345 75984
L80373 75928
L80429 75899
L80542 75899
L80598 75928
L80626 75984
L80626 76040
L80345 76096
" />
<path d="M80879 76237
L80907 76265
L80879 76293
L80851 76265
L80879 76237
L80879 76293
" />
<path d="M80879 75928
L80907 75956
L80879 75984
L80851 75956
L80879 75928
L80879 75984
" />
</g>
<g style="fill:#000000; fill-opacity:0.0; 
stroke:#000000; stroke-width:39.3701; stroke-opacity:1; 
stroke-linecap:round; stroke-linejoin:round;">
</g>
<g style="fill:#000000; fill-opacity:0.0; 
stroke:#000000; stroke-width:59.0551; stroke-opacity:1; 
stroke-linecap:round; stroke-linejoin:round;">
<path d="M69685 76577
L112205 76577
" />
</g>
<g style="fill:#000000; fill-opacity:0.0; 
stroke:#000000; stroke-width:39.3701; stroke-opacity:1; 
stroke-linecap:round; stroke-linejoin:round;">
</g>
<g style="fill:#000000; fill-opacity:0.0; 
stroke:#000000; stroke-width:59.0551; stroke-opacity:1; 
stroke-linecap:round; stroke-linejoin:round;">
<path d="M70249 77395
L70249 76805
" />
<path d="M70587 77395
L70334 77058
" />
<path d="M70587 76805
L70249 77142
" />
<path d="M70840 77395
L70840 77002
" />
<path d="M70840 76805
L70812 76833
L70840 76861
L70868 76833
L70840 76805
L70840 76861
" />
<path d="M71458 77339
L71430 77367
L71346 77395
L71290 77395
L71205 77367
L71149 77311
L71121 77255
L71093 77142
L71093 77058
L71121 76946
L71149 76889
L71205 76833
L71290 76805
L71346 76805
L71430 76833
L71458 76861
" />
<path d="M71965 77395
L71965 77086
L71937 77030
L71880 77002
L71768 77002
L71712 77030
" />
<path d="M71965 77367
L71908 77395
L71768 77395
L71712 77367
L71683 77311
L71683 77255
L71712 77199
L71768 77171
L71908 77171
L71965 77142
" />
<path d="M72499 77395
L72499 76805
" />
<path d="M72499 77367
L72443 77395
L72330 77395
L72274 77367
L72246 77339
L72218 77283
L72218 77114
L72246 77058
L72274 77030
L72330 77002
L72443 77002
L72499 77030
" />
<path d="M73230 77086
L73427 77086
" />
<path d="M73511 77395
L73230 77395
L73230 76805
L73511 76805
" />
<path d="M73764 77339
L73793 77367
L73764 77395
L73736 77367
L73764 77339
L73764 77395
" />
<path d="M74046 77395
L74046 76805
L74186 76805
L74271 76833
L74327 76889
L74355 76946
L74383 77058
L74383 77142
L74355 77255
L74327 77311
L74271 77367
L74186 77395
L74046 77395
" />
<path d="M74636 77339
L74664 77367
L74636 77395
L74608 77367
L74636 77339
L74636 77395
" />
<path d="M74889 77227
L75171 77227
" />
<path d="M74833 77395
L75030 76805
L75227 77395
" />
<path d="M75424 77339
L75452 77367
L75424 77395
L75395 77367
L75424 77339
L75424 77395
" />
<path d="M76605 77395
L76605 76805
" />
<path d="M76661 77171
L76830 77395
" />
<path d="M76830 77002
L76605 77227
" />
<path d="M77083 77395
L77083 77002
" />
<path d="M77083 76805
L77055 76833
L77083 76861
L77111 76833
L77083 76805
L77083 76861
" />
<path d="M77617 77367
L77561 77395
L77448 77395
L77392 77367
L77364 77339
L77336 77283
L77336 77114
L77364 77058
L77392 77030
L77448 77002
L77561 77002
L77617 77030
" />
<path d="M78123 77395
L78123 77086
L78095 77030
L78039 77002
L77926 77002
L77870 77030
" />
<path d="M78123 77367
L78067 77395
L77926 77395
L77870 77367
L77842 77311
L77842 77255
L77870 77199
L77926 77171
L78067 77171
L78123 77142
" />
<path d="M78658 77395
L78658 76805
" />
<path d="M78658 77367
L78601 77395
L78489 77395
L78433 77367
L78404 77339
L78376 77283
L78376 77114
L78404 77058
L78433 77030
L78489 77002
L78601 77002
L78658 77030
" />
<path d="M79670 76805
L79389 76805
L79361 77086
L79389 77058
L79445 77030
L79586 77030
L79642 77058
L79670 77086
L79698 77142
L79698 77283
L79670 77339
L79642 77367
L79586 77395
L79445 77395
L79389 77367
L79361 77339
" />
<path d="M79951 77339
L79979 77367
L79951 77395
L79923 77367
L79951 77339
L79951 77395
" />
<path d="M80345 76805
L80401 76805
L80457 76833
L80485 76861
L80514 76917
L80542 77030
L80542 77171
L80514 77283
L80485 77339
L80457 77367
L80401 77395
L80345 77395
L80289 77367
L80260 77339
L80232 77283
L80204 77171
L80204 77030
L80232 76917
L80260 76861
L80289 76833
L80345 76805
" />
<path d="M80795 77339
L80823 77367
L80795 77395
L80767 77367
L80795 77339
L80795 77395
" />
<path d="M81188 76805
L81245 76805
L81301 76833
L81329 76861
L81357 76917
L81385 77030
L81385 77171
L81357 77283
L81329 77339
L81301 77367
L81245 77395
L81188 77395
L81132 77367
L81104 77339
L81076 77283
L81048 77171
L81048 77030
L81076 76917
L81104 76861
L81132 76833
L81188 76805
" />
</g>
<g style="fill:#000000; fill-opacity:0.0; 
stroke:#000000; stroke-width:39.3701; stroke-opacity:1; 
stroke-linecap:round; stroke-linejoin:round;">
</g>
<g style="fill:#000000; fill-opacity:0.0; 
stroke:#000000; stroke-width:59.0551; stroke-opacity:1; 
stroke-linecap:round; stroke-linejoin:round;">
<path d="M69685 75396
L112205 75396
" />
</g>
<g style="fill:#000000; fill-opacity:0.0; 
stroke:#000000; stroke-width:39.3701; stroke-opacity:1; 
stroke-linecap:round; stroke-linejoin:round;">
</g>
<g style="fill:#000000; fill-opacity:0.0; 
stroke:#000000; stroke-width:118.11; stroke-opacity:1; 
stroke-linecap:round; stroke-linejoin:round;">
<path d="M104099 76293
L103902 76012
" />
<path d="M103761 76293
L103761 75703
L103986 75703
L104042 75731
L104070 75759
L104099 75815
L104099 75899
L104070 75956
L104042 75984
L103986 76012
L103761 76012
" />
<path d="M104577 76265
L104520 76293
L104408 76293
L104352 76265
L104323 76209
L104323 75984
L104352 75928
L104408 75899
L104520 75899
L104577 75928
L104605 75984
L104605 76040
L104323 76096
" />
<path d="M104802 75899
L104942 76293
L105083 75899
" />
<path d="M105308 76237
L105336 76265
L105308 76293
L105280 76265
L105308 76237
L105308 76293
" />
<path d="M105308 75928
L105336 75956
L105308 75984
L105280 75956
L105308 75928
L105308 75984
" />
</g>
<g style="fill:#000000; fill-opacity:0.0; 
stroke:#000000; stroke-width:39.3701; stroke-opacity:1; 
stroke-linecap:round; stroke-linejoin:round;">
</g>
<g style="fill:#000000; fill-opacity:0.0; 
stroke:#000000; stroke-width:59.0551; stroke-opacity:1; 
stroke-linecap:round; stroke-linejoin:round;">
<path d="M70221 76265
L70305 76293
L70446 76293
L70502 76265
L70530 76237
L70559 76181
L70559 76124
L70530 76068
L70502 76040
L70446 76012
L70334 75984
L70277 75956
L70249 75928
L70221 75871
L70221 75815
L70249 75759
L70277 75731
L70334 75703
L70474 75703
L70559 75731
" />
<path d="M70812 76293
L70812 75899
" />
<path d="M70812 75703
L70784 75731
L70812 75759
L70840 75731
L70812 75703
L70812 75759
" />
<path d="M71037 75899
L71346 75899
L71037 76293
L71346 76293
" />
<path d="M71796 76265
L71740 76293
L71627 76293
L71571 76265
L71543 76209
L71543 75984
L71571 75928
L71627 75899
L71740 75899
L71796 75928
L71824 75984
L71824 76040
L71543 76096
" />
<path d="M72077 76237
L72105 76265
L72077 76293
L72049 76265
L72077 76237
L72077 76293
" />
<path d="M72077 75928
L72105 75956
L72077 75984
L72049 75956
L72077 75928
L72077 75984
" />
<path d="M72780 76124
L73061 76124
" />
<path d="M72724 76293
L72921 75703
L73118 76293
" />
<path d="M73568 75899
L73568 76293
" />
<path d="M73427 75674
L73286 76096
L73652 76096
" />
</g>
<g style="fill:#000000; fill-opacity:0.0; 
stroke:#000000; stroke-width:39.3701; stroke-opacity:1; 
stroke-linecap:round; stroke-linejoin:round;">
</g>
<g style="fill:#000000; fill-opacity:0.0; 
stroke:#000000; stroke-width:59.0551; stroke-opacity:1; 
stroke-linecap:round; stroke-linejoin:round;">
<path d="M103714 77395
L103714 76805
" />
<path d="M104248 77395
L104248 76805
" />
<path d="M104248 77367
L104192 77395
L104079 77395
L104023 77367
L103995 77339
L103967 77283
L103967 77114
L103995 77058
L104023 77030
L104079 77002
L104192 77002
L104248 77030
" />
<path d="M104529 77339
L104557 77367
L104529 77395
L104501 77367
L104529 77339
L104529 77395
" />
<path d="M104529 77030
L104557 77058
L104529 77086
L104501 77058
L104529 77030
L104529 77086
" />
<path d="M105570 77395
L105232 77395
" />
<path d="M105401 77395
L105401 76805
L105345 76889
L105289 76946
L105232 76974
" />
<path d="M106245 76777
L105739 77536
" />
<path d="M106751 77395
L106413 77395
" />
<path d="M106582 77395
L106582 76805
L106526 76889
L106470 76946
L106413 76974
" />
</g>
<g style="fill:#000000; fill-opacity:0.0; 
stroke:#000000; stroke-width:39.3701; stroke-opacity:1; 
stroke-linecap:round; stroke-linejoin:round;">
</g>
<g style="fill:#000000; fill-opacity:0.0; 
stroke:#000000; stroke-width:59.0551; stroke-opacity:1; 
stroke-linecap:round; stroke-linejoin:round;">
<path d="M69685 73821
L112205 73821
" />
</g>
<g style="fill:#000000; fill-opacity:0.0; 
stroke:#000000; stroke-width:39.3701; stroke-opacity:1; 
stroke-linecap:round; stroke-linejoin:round;">
</g>
<g style="fill:#000000; fill-opacity:0.0; 
stroke:#000000; stroke-width:157.48; stroke-opacity:1; 
stroke-linecap:round; stroke-linejoin:round;">
<path d="M70360 74099
L70810 74099
" />
<path d="M70486 74886
L70585 74099
" />
<path d="M70974 74886
L71039 74361
" />
<path d="M71072 74099
L71030 74136
L71063 74174
L71105 74136
L71072 74099
L71063 74174
" />
<path d="M71302 74361
L71602 74361
" />
<path d="M71447 74099
L71363 74774
L71391 74849
L71461 74886
L71536 74886
" />
<path d="M71911 74886
L71841 74849
L71813 74774
L71897 74099
" />
<path d="M72516 74849
L72436 74886
L72286 74886
L72216 74849
L72187 74774
L72225 74474
L72272 74399
L72352 74361
L72501 74361
L72572 74399
L72600 74474
L72591 74549
L72206 74624
" />
<path d="M72895 74811
L72928 74849
L72886 74886
L72853 74849
L72895 74811
L72886 74886
" />
<path d="M72947 74399
L72980 74436
L72937 74474
L72905 74436
L72947 74399
L72937 74474
" />
</g>
<g style="fill:#000000; fill-opacity:0.0; 
stroke:#000000; stroke-width:39.3701; stroke-opacity:1; 
stroke-linecap:round; stroke-linejoin:round;">
</g>
<g style="fill:#000000; fill-opacity:0.0; 
stroke:#000000; stroke-width:59.0551; stroke-opacity:1; 
stroke-linecap:round; stroke-linejoin:round;">
<path d="M70446 73070
L70249 73070
" />
<path d="M70249 73380
L70249 72789
L70530 72789
" />
<path d="M70755 73380
L70755 72986
" />
<path d="M70755 72789
L70727 72817
L70755 72845
L70784 72817
L70755 72789
L70755 72845
" />
<path d="M71121 73380
L71065 73352
L71037 73295
L71037 72789
" />
<path d="M71571 73352
L71515 73380
L71402 73380
L71346 73352
L71318 73295
L71318 73070
L71346 73014
L71402 72986
L71515 72986
L71571 73014
L71599 73070
L71599 73127
L71318 73183
" />
<path d="M71852 73323
L71880 73352
L71852 73380
L71824 73352
L71852 73323
L71852 73380
" />
<path d="M71852 73014
L71880 73042
L71852 73070
L71824 73042
L71852 73014
L71852 73070
" />
<path d="M72527 72789
L72668 73380
L72780 72958
L72893 73380
L73033 72789
" />
<path d="M73511 72986
L73511 73380
" />
<path d="M73258 72986
L73258 73295
L73286 73352
L73343 73380
L73427 73380
L73483 73352
L73511 73323
" />
<path d="M74018 73352
L73961 73380
L73849 73380
L73793 73352
L73764 73295
L73764 73070
L73793 73014
L73849 72986
L73961 72986
L74018 73014
L74046 73070
L74046 73127
L73764 73183
" />
<path d="M74299 73380
L74299 72986
" />
<path d="M74299 73099
L74327 73042
L74355 73014
L74411 72986
L74467 72986
" />
<path d="M74580 72986
L74805 72986
" />
<path d="M74664 73380
L74664 72874
L74692 72817
L74749 72789
L74805 72789
" />
<path d="M75227 73352
L75171 73380
L75058 73380
L75002 73352
L74974 73295
L74974 73070
L75002 73014
L75058 72986
L75171 72986
L75227 73014
L75255 73070
L75255 73127
L74974 73183
" />
<path d="M75592 73380
L75536 73352
L75508 73295
L75508 72789
" />
<path d="M75817 73323
L75845 73352
L75817 73380
L75789 73352
L75817 73323
L75817 73380
" />
<path d="M76099 73380
L76099 72789
" />
<path d="M76155 73155
L76323 73380
" />
<path d="M76323 72986
L76099 73211
" />
<path d="M76577 73380
L76577 72986
" />
<path d="M76577 72789
L76548 72817
L76577 72845
L76605 72817
L76577 72789
L76577 72845
" />
<path d="M77111 73352
L77055 73380
L76942 73380
L76886 73352
L76858 73323
L76830 73267
L76830 73099
L76858 73042
L76886 73014
L76942 72986
L77055 72986
L77111 73014
" />
<path d="M77617 73380
L77617 73070
L77589 73014
L77533 72986
L77420 72986
L77364 73014
" />
<path d="M77617 73352
L77561 73380
L77420 73380
L77364 73352
L77336 73295
L77336 73239
L77364 73183
L77420 73155
L77561 73155
L77617 73127
" />
<path d="M78151 73380
L78151 72789
" />
<path d="M78151 73352
L78095 73380
L77983 73380
L77926 73352
L77898 73323
L77870 73267
L77870 73099
L77898 73042
L77926 73014
L77983 72986
L78095 72986
L78151 73014
" />
<path d="M78292 73436
L78742 73436
" />
<path d="M78883 72986
L78883 73577
" />
<path d="M78883 73014
L78939 72986
L79051 72986
L79108 73014
L79136 73042
L79164 73099
L79164 73267
L79136 73323
L79108 73352
L79051 73380
L78939 73380
L78883 73352
" />
<path d="M79670 73352
L79614 73380
L79501 73380
L79445 73352
L79417 73323
L79389 73267
L79389 73099
L79417 73042
L79445 73014
L79501 72986
L79614 72986
L79670 73014
" />
<path d="M79923 73380
L79923 72789
" />
<path d="M79923 73014
L79979 72986
L80092 72986
L80148 73014
L80176 73042
L80204 73099
L80204 73267
L80176 73323
L80148 73352
L80092 73380
L79979 73380
L79923 73352
" />
</g>
<g style="fill:#000000; fill-opacity:0.0; 
stroke:#000000; stroke-width:39.3701; stroke-opacity:1; 
stroke-linecap:round; stroke-linejoin:round;">
</g>
<g style="fill:#000000; fill-opacity:0.0; 
stroke:#000000; stroke-width:59.0551; stroke-opacity:1; 
stroke-linecap:round; stroke-linejoin:round;">
<path d="M69685 71459
L112205 71459
" />
</g>
<g style="fill:#000000; fill-opacity:0.0; 
stroke:#000000; stroke-width:39.3701; stroke-opacity:1; 
stroke-linecap:round; stroke-linejoin:round;">
</g>
<g style="fill:#000000; fill-opacity:0.0; 
stroke:#000000; stroke-width:59.0551; stroke-opacity:1; 
stroke-linecap:round; stroke-linejoin:round;">
<path d="M70221 72289
L70305 72317
L70446 72317
L70502 72289
L70530 72260
L70559 72204
L70559 72148
L70530 72092
L70502 72064
L70446 72036
L70334 72007
L70277 71979
L70249 71951
L70221 71895
L70221 71839
L70249 71782
L70277 71754
L70334 71726
L70474 71726
L70559 71754
" />
<path d="M70812 72317
L70812 71726
" />
<path d="M71065 72317
L71065 72007
L71037 71951
L70980 71923
L70896 71923
L70840 71951
L70812 71979
" />
<path d="M71571 72289
L71515 72317
L71402 72317
L71346 72289
L71318 72232
L71318 72007
L71346 71951
L71402 71923
L71515 71923
L71571 71951
L71599 72007
L71599 72064
L71318 72120
" />
<path d="M72077 72289
L72021 72317
L71908 72317
L71852 72289
L71824 72232
L71824 72007
L71852 71951
L71908 71923
L72021 71923
L72077 71951
L72105 72007
L72105 72064
L71824 72120
" />
<path d="M72274 71923
L72499 71923
" />
<path d="M72358 71726
L72358 72232
L72386 72289
L72443 72317
L72499 72317
" />
<path d="M72696 72260
L72724 72289
L72696 72317
L72668 72289
L72696 72260
L72696 72317
" />
<path d="M72696 71951
L72724 71979
L72696 72007
L72668 71979
L72696 71951
L72696 72007
" />
</g>
<g style="fill:#000000; fill-opacity:0.0; 
stroke:#000000; stroke-width:39.3701; stroke-opacity:1; 
stroke-linecap:round; stroke-linejoin:round;">
</g>
<g style="fill:#000000; fill-opacity:0.0; 
stroke:#000000; stroke-width:59.0551; stroke-opacity:1; 
stroke-linecap:round; stroke-linejoin:round;">
<path d="M77559 75396
L77559 76577
" />
</g>
<g style="fill:#000000; fill-opacity:0.0; 
stroke:#000000; stroke-width:39.3701; stroke-opacity:1; 
stroke-linecap:round; stroke-linejoin:round;">
</g>
<g style="fill:#000000; fill-opacity:0.0; 
stroke:#000000; stroke-width:59.0551; stroke-opacity:1; 
stroke-linecap:round; stroke-linejoin:round;">
<path d="M102756 75396
L102756 77955
" />
</g>
<g style="fill:#840084; fill-opacity:0.0; 
stroke:#840084; stroke-width:59.0551; stroke-opacity:1; 
stroke-linecap:round; stroke-linejoin:round;">
<circle cx="72047.2" cy="27755.9" r="4488.19" /> 
<path d="M73307 34133
L73307 32086
" />
<path d="M70787 34133
L73307 34133
" />
<path d="M70787 34133
L70787 32086
" />
</g>
<g style="fill:#840084; fill-opacity:0.0; 
stroke:#840084; stroke-width:47.2441; stroke-opacity:1; 
stroke-linecap:round; stroke-linejoin:round;">
<path d="M53822 29446
L53822 28230
" />
<circle cx="54830.7" cy="28838.6" r="984.252" /> 
<path d="M56007.9 28838.8 A1177.17 1177.17 0.0 0 0 53822.8 28230.4 " />
<path d="M53822.8 29446.8 A1177.17 1177.17 0.0 0 0 56007.9 28838.4 " />
<path d="M57759 25509
L57759 24293
" />
<circle cx="58767.7" cy="24901.6" r="984.252" /> 
<path d="M59944.9 24901.8 A1177.17 1177.17 0.0 0 0 57759.8 24293.4 " />
<path d="M57759.8 25509.8 A1177.17 1177.17 0.0 0 0 59944.9 24901.4 " />
<path d="M49885 33383
L49885 32167
" />
<circle cx="50893.7" cy="32775.6" r="984.252" /> 
<path d="M52070.9 32775.8 A1177.17 1177.17 0.0 0 0 49885.8 32167.4 " />
<path d="M49885.8 33383.8 A1177.17 1177.17 0.0 0 0 52070.9 32775.4 " />
<path d="M49885 25509
L49885 24293
" />
<circle cx="50893.7" cy="24901.6" r="984.252" /> 
<path d="M52070.9 24901.8 A1177.17 1177.17 0.0 0 0 49885.8 24293.4 " />
<path d="M49885.8 25509.8 A1177.17 1177.17 0.0 0 0 52070.9 24901.4 " />
<path d="M57759 33383
L57759 32167
" />
<circle cx="58767.7" cy="32775.6" r="984.252" /> 
<path d="M59944.9 32775.8 A1177.17 1177.17 0.0 0 0 57759.8 32167.4 " />
<path d="M57759.8 33383.8 A1177.17 1177.17 0.0 0 0 59944.9 32775.4 " />
<path d="M53807 25509
L53807 24293
" />
<circle cx="54815" cy="24901.6" r="984.252" /> 
<path d="M55992.1 24901.8 A1177.17 1177.17 0.0 0 0 53807.1 24293.4 " />
<path d="M53807.1 25509.8 A1177.17 1177.17 0.0 0 0 55992.1 24901.4 " />
<path d="M53822 33383
L53822 32167
" />
<circle cx="54830.7" cy="32775.6" r="984.252" /> 
<path d="M56007.9 32775.8 A1177.17 1177.17 0.0 0 0 53822.8 32167.4 " />
<path d="M53822.8 33383.8 A1177.17 1177.17 0.0 0 0 56007.9 32775.4 " />
<path d="M57433 29232
L57736 29232
" />
<path d="M60614 29232
L60311 29232
" />
<path d="M57736 28692
L60311 28692
" />
<path d="M57736 29771
L57736 28692
" />
<path d="M60311 29771
L57736 29771
" />
<path d="M60311 28692
L60311 29771
" />
<path d="M57433 26968
L57736 26968
" />
<path d="M60614 26968
L60311 26968
" />
<path d="M57736 26429
L60311 26429
" />
<path d="M57736 27507
L57736 26429
" />
<path d="M60311 27507
L57736 27507
" />
<path d="M60311 26429
L60311 27507
" />
<path d="M52149 29232
L51846 29232
" />
<path d="M48968 29232
L49271 29232
" />
<path d="M51846 29771
L49271 29771
" />
<path d="M51846 28692
L51846 29771
" />
<path d="M49271 28692
L51846 28692
" />
<path d="M49271 29771
L49271 28692
" />
<path d="M52149 26968
L51846 26968
" />
<path d="M48968 26968
L49271 26968
" />
<path d="M51846 27507
L49271 27507
" />
<path d="M51846 26429
L51846 27507
" />
<path d="M49271 26429
L51846 26429
" />
<path d="M49271 27507
L49271 26429
" />
<path d="M57433 30610
L57736 30610
" />
<path d="M60614 30610
L60311 30610
" />
<path d="M57736 30070
L60311 30070
" />
<path d="M57736 31149
L57736 30070
" />
<path d="M60311 31149
L57736 31149
" />
<path d="M60311 30070
L60311 31149
" />
<path d="M61763 24015
L62066 24015
" />
<path d="M64944 24015
L64641 24015
" />
<path d="M62066 23476
L64641 23476
" />
<path d="M62066 24555
L62066 23476
" />
<path d="M64641 24555
L62066 24555
" />
<path d="M64641 23476
L64641 24555
" />
<path d="M52149 30610
L51846 30610
" />
<path d="M48968 30610
L49271 30610
" />
<path d="M51846 31149
L49271 31149
" />
<path d="M51846 30070
L51846 31149
" />
<path d="M49271 30070
L51846 30070
" />
<path d="M49271 31149
L49271 30070
" />
<path d="M66043 32283
L66043 32874
" />
<path d="M65551 33858
L63779 33858
" />
<path d="M63287 32874
L63287 32283
" />
<path d="M63779 31299
L65551 31299
" />
<path d="M62437 28527
L62437 27877
" />
<path d="M66484 28527
L62437 28527
" />
<path d="M66484 26440
L66484 28527
" />
<path d="M62437 26440
L66484 26440
" />
<path d="M62437 27090
L62437 26440
" />
<path d="M62437 27878 A393.701 393.701 0.0 0 0 62437 27090.6 " />
</g>
<g style="fill:#840084; fill-opacity:0.0; 
stroke:#840084; stroke-width:59.0551; stroke-opacity:1; 
stroke-linecap:round; stroke-linejoin:round;">
<path d="M74718 32944
L74662 32963
L74643 32981
L74625 33019
L74625 33075
L74643 33113
L74662 33131
L74700 33150
L74850 33150
L74850 32756
L74718 32756
L74681 32775
L74662 32794
L74643 32831
L74643 32869
L74662 32906
L74681 32925
L74718 32944
L74850 32944
" />
<path d="M74512 32756
L74287 32756
" />
<path d="M74400 33150
L74400 32756
" />
<path d="M73950 33150
L74175 33150
" />
<path d="M74062 33150
L74062 32756
L74100 32813
L74137 32850
L74175 32869
" />
<path d="M55121 30575
L55121 30182
L55027 30182
L54971 30200
L54933 30238
L54915 30275
L54896 30350
L54896 30407
L54915 30482
L54933 30519
L54971 30556
L55027 30575
L55121 30575
" />
<path d="M54521 30575
L54746 30575
" />
<path d="M54633 30575
L54633 30182
L54671 30238
L54708 30275
L54746 30294
" />
<path d="M57475 24882
L57475 24489
L57381 24489
L57325 24507
L57288 24545
L57269 24582
L57250 24657
L57250 24714
L57269 24789
L57288 24826
L57325 24864
L57381 24882
L57475 24882
" />
<path d="M57100 24526
L57081 24507
L57044 24489
L56950 24489
L56913 24507
L56894 24526
L56875 24564
L56875 24601
L56894 24657
L57119 24882
L56875 24882
" />
<path d="M49601 32953
L49601 32559
L49507 32559
L49451 32578
L49414 32616
L49395 32653
L49376 32728
L49376 32784
L49395 32859
L49414 32897
L49451 32934
L49507 32953
L49601 32953
" />
<path d="M49245 32559
L49001 32559
L49132 32709
L49076 32709
L49039 32728
L49020 32747
L49001 32784
L49001 32878
L49020 32916
L49039 32934
L49076 32953
L49189 32953
L49226 32934
L49245 32916
" />
<path d="M49404 24981
L49404 24587
L49311 24587
L49254 24606
L49217 24643
L49198 24681
L49179 24756
L49179 24812
L49198 24887
L49217 24925
L49254 24962
L49311 24981
L49404 24981
" />
<path d="M48842 24718
L48842 24981
" />
<path d="M48936 24568
L49029 24850
L48786 24850
" />
<path d="M57475 32953
L57475 32559
L57381 32559
L57325 32578
L57288 32616
L57269 32653
L57250 32728
L57250 32784
L57269 32859
L57288 32897
L57325 32934
L57381 32953
L57475 32953
" />
<path d="M56894 32559
L57081 32559
L57100 32747
L57081 32728
L57044 32709
L56950 32709
L56913 32728
L56894 32747
L56875 32784
L56875 32878
L56894 32916
L56913 32934
L56950 32953
L57044 32953
L57081 32934
L57100 32916
" />
<path d="M53538 24981
L53538 24587
L53444 24587
L53388 24606
L53351 24643
L53332 24681
L53313 24756
L53313 24812
L53332 24887
L53351 24925
L53388 24962
L53444 24981
L53538 24981
" />
<path d="M52976 24587
L53051 24587
L53088 24606
L53107 24625
L53144 24681
L53163 24756
L53163 24906
L53144 24943
L53126 24962
L53088 24981
L53013 24981
L52976 24962
L52957 24943
L52938 24906
L52938 24812
L52957 24775
L52976 24756
L53013 24737
L53088 24737
L53126 24756
L53144 24775
L53163 24812
" />
<path d="M53538 32953
L53538 32559
L53444 32559
L53388 32578
L53351 32616
L53332 32653
L53313 32728
L53313 32784
L53332 32859
L53351 32897
L53388 32934
L53444 32953
L53538 32953
" />
<path d="M53182 32559
L52919 32559
L53088 32953
" />
<path d="M57053 28622
L57185 28435
" />
<path d="M57278 28622
L57278 28229
L57128 28229
L57091 28248
L57072 28266
L57053 28304
L57053 28360
L57072 28398
L57091 28416
L57128 28435
L57278 28435
" />
<path d="M56678 28622
L56903 28622
" />
<path d="M56791 28622
L56791 28229
L56828 28285
L56866 28323
L56903 28341
" />
<path d="M57053 26260
L57185 26073
" />
<path d="M57278 26260
L57278 25867
L57128 25867
L57091 25885
L57072 25904
L57053 25942
L57053 25998
L57072 26035
L57091 26054
L57128 26073
L57278 26073
" />
<path d="M56903 25904
L56885 25885
L56847 25867
L56753 25867
L56716 25885
L56697 25904
L56678 25942
L56678 25979
L56697 26035
L56922 26260
L56678 26260
" />
<path d="M52624 28721
L52755 28533
" />
<path d="M52849 28721
L52849 28327
L52699 28327
L52662 28346
L52643 28365
L52624 28402
L52624 28458
L52643 28496
L52662 28515
L52699 28533
L52849 28533
" />
<path d="M52493 28327
L52249 28327
L52380 28477
L52324 28477
L52287 28496
L52268 28515
L52249 28552
L52249 28646
L52268 28683
L52287 28702
L52324 28721
L52437 28721
L52474 28702
L52493 28683
" />
<path d="M52624 26457
L52755 26270
" />
<path d="M52849 26457
L52849 26063
L52699 26063
L52662 26082
L52643 26101
L52624 26138
L52624 26195
L52643 26232
L52662 26251
L52699 26270
L52849 26270
" />
<path d="M52287 26195
L52287 26457
" />
<path d="M52380 26045
L52474 26326
L52230 26326
" />
<path d="M57053 31575
L57185 31388
" />
<path d="M57278 31575
L57278 31182
L57128 31182
L57091 31200
L57072 31219
L57053 31257
L57053 31313
L57072 31350
L57091 31369
L57128 31388
L57278 31388
" />
<path d="M56697 31182
L56885 31182
L56903 31369
L56885 31350
L56847 31332
L56753 31332
L56716 31350
L56697 31369
L56678 31407
L56678 31500
L56697 31538
L56716 31556
L56753 31575
L56847 31575
L56885 31556
L56903 31538
" />
<path d="M66502 24095
L66633 23907
" />
<path d="M66727 24095
L66727 23701
L66577 23701
L66540 23720
L66521 23739
L66502 23776
L66502 23832
L66521 23870
L66540 23889
L66577 23907
L66727 23907
" />
<path d="M66165 23701
L66240 23701
L66277 23720
L66296 23739
L66333 23795
L66352 23870
L66352 24020
L66333 24057
L66315 24076
L66277 24095
L66202 24095
L66165 24076
L66146 24057
L66127 24020
L66127 23926
L66146 23889
L66165 23870
L66202 23851
L66277 23851
L66315 23870
L66333 23889
L66352 23926
" />
<path d="M52624 31477
L52755 31289
" />
<path d="M52849 31477
L52849 31083
L52699 31083
L52662 31102
L52643 31121
L52624 31158
L52624 31214
L52643 31252
L52662 31271
L52699 31289
L52849 31289
" />
<path d="M52493 31083
L52230 31083
L52399 31477
" />
<path d="M65190 34411
L65134 34430
L65040 34430
L65002 34411
L64984 34392
L64965 34355
L64965 34317
L64984 34280
L65002 34261
L65040 34242
L65115 34223
L65152 34205
L65171 34186
L65190 34148
L65190 34111
L65171 34073
L65152 34055
L65115 34036
L65021 34036
L64965 34055
" />
<path d="M64834 34036
L64740 34430
L64665 34148
L64590 34430
L64496 34036
" />
<path d="M64140 34430
L64365 34430
" />
<path d="M64252 34430
L64252 34036
L64290 34092
L64327 34130
L64365 34148
" />
<path d="M61827 27184
L62146 27184
L62183 27203
L62202 27221
L62221 27259
L62221 27334
L62202 27371
L62183 27390
L62146 27409
L61827 27409
" />
<path d="M62221 27802
L62221 27577
" />
<path d="M62221 27690
L61827 27690
L61883 27652
L61921 27615
L61940 27577
" />
</g>
<g style="fill:#000000; fill-opacity:0.0; 
stroke:#000000; stroke-width:59.0551; stroke-opacity:1; 
stroke-linecap:round; stroke-linejoin:round;">
</g>
<g style="fill:#848400; fill-opacity:0.0; 
stroke:#848400; stroke-width:59.0551; stroke-opacity:1; 
stroke-linecap:round; stroke-linejoin:round;">
</g>
<g style="fill:#848400; fill-opacity:1.0; 
stroke:#848400; stroke-width:0; stroke-opacity:1; 
stroke-linecap:round; stroke-linejoin:round;">
<circle cx="72047.2" cy="25196.9" r="492.126" /> 
</g>
<g style="fill:#848400; fill-opacity:1.0; 
stroke:#848400; stroke-width:39.3701; stroke-opacity:1; 
stroke-linecap:round; stroke-linejoin:round;">
</g>
<g style="fill:#848400; fill-opacity:1.0; 
stroke:#848400; stroke-width:0; stroke-opacity:1; 
stroke-linecap:round; stroke-linejoin:round;">
<circle cx="72047.2" cy="33267.7" r="492.126" /> 
</g>
<g style="fill:#848400; fill-opacity:1.0; 
stroke:#848400; stroke-width:39.3701; stroke-opacity:1; 
stroke-linecap:round; stroke-linejoin:round;">
</g>
<g style="fill:#848400; fill-opacity:1.0; 
stroke:#848400; stroke-width:0; stroke-opacity:1; 
stroke-linecap:round; stroke-linejoin:round;">
<circle cx="55330.7" cy="28838.6" r="354.331" /> 
</g>
<g style="fill:#848400; fill-opacity:1.0; 
stroke:#848400; stroke-width:39.3701; stroke-opacity:1; 
stroke-linecap:round; stroke-linejoin:round;">
</g>
<g style="fill:#848400; fill-opacity:1.0; 
stroke:#848400; stroke-width:0; stroke-opacity:1; 
stroke-linecap:round; stroke-linejoin:round;">
<polyline style="fill-rule:evenodd;"
points="53976,29192
53976,28484
54685,28484
54685,29192
53976,29192
" /> 
<circle cx="59267.7" cy="24901.6" r="354.331" /> 
</g>
<g style="fill:#848400; fill-opacity:1.0; 
stroke:#848400; stroke-width:39.3701; stroke-opacity:1; 
stroke-linecap:round; stroke-linejoin:round;">
</g>
<g style="fill:#848400; fill-opacity:1.0; 
stroke:#848400; stroke-width:0; stroke-opacity:1; 
stroke-linecap:round; stroke-linejoin:round;">
<polyline style="fill-rule:evenodd;"
points="57913,25255
57913,24547
58622,24547
58622,25255
57913,25255
" /> 
<circle cx="51393.7" cy="32775.6" r="354.331" /> 
</g>
<g style="fill:#848400; fill-opacity:1.0; 
stroke:#848400; stroke-width:39.3701; stroke-opacity:1; 
stroke-linecap:round; stroke-linejoin:round;">
</g>
<g style="fill:#848400; fill-opacity:1.0; 
stroke:#848400; stroke-width:0; stroke-opacity:1; 
stroke-linecap:round; stroke-linejoin:round;">
<polyline style="fill-rule:evenodd;"
points="50039,33129
50039,32421
50748,32421
50748,33129
50039,33129
" /> 
<circle cx="51393.7" cy="24901.6" r="354.331" /> 
</g>
<g style="fill:#848400; fill-opacity:1.0; 
stroke:#848400; stroke-width:39.3701; stroke-opacity:1; 
stroke-linecap:round; stroke-linejoin:round;">
</g>
<g style="fill:#848400; fill-opacity:1.0; 
stroke:#848400; stroke-width:0; stroke-opacity:1; 
stroke-linecap:round; stroke-linejoin:round;">
<polyline style="fill-rule:evenodd;"
points="50039,25255
50039,24547
50748,24547
50748,25255
50039,25255
" /> 
<circle cx="59267.7" cy="32775.6" r="354.331" /> 
</g>
<g style="fill:#848400; fill-opacity:1.0; 
stroke:#848400; stroke-width:39.3701; stroke-opacity:1; 
stroke-linecap:round; stroke-linejoin:round;">
</g>
<g style="fill:#848400; fill-opacity:1.0; 
stroke:#848400; stroke-width:0; stroke-opacity:1; 
stroke-linecap:round; stroke-linejoin:round;">
<polyline style="fill-rule:evenodd;"
points="57913,33129
57913,32421
58622,32421
58622,33129
57913,33129
" /> 
<circle cx="55315" cy="24901.6" r="354.331" /> 
</g>
<g style="fill:#848400; fill-opacity:1.0; 
stroke:#848400; stroke-width:39.3701; stroke-opacity:1; 
stroke-linecap:round; stroke-linejoin:round;">
</g>
<g style="fill:#848400; fill-opacity:1.0; 
stroke:#848400; stroke-width:0; stroke-opacity:1; 
stroke-linecap:round; stroke-linejoin:round;">
<polyline style="fill-rule:evenodd;"
points="53960,25255
53960,24547
54669,24547
54669,25255
53960,25255
" /> 
<circle cx="55330.7" cy="32775.6" r="354.331" /> 
</g>
<g style="fill:#848400; fill-opacity:1.0; 
stroke:#848400; stroke-width:39.3701; stroke-opacity:1; 
stroke-linecap:round; stroke-linejoin:round;">
</g>
<g style="fill:#848400; fill-opacity:1.0; 
stroke:#848400; stroke-width:0; stroke-opacity:1; 
stroke-linecap:round; stroke-linejoin:round;">
<polyline style="fill-rule:evenodd;"
points="53976,33129
53976,32421
54685,32421
54685,33129
53976,33129
" /> 
</g>
<g style="fill:#848400; fill-opacity:1.0; 
stroke:#848400; stroke-width:629.921; stroke-opacity:1; 
stroke-linecap:round; stroke-linejoin:round;">
</g>
<g style="fill:#848400; fill-opacity:0.0; 
stroke:#848400; stroke-width:629.921; stroke-opacity:1; 
stroke-linecap:round; stroke-linejoin:round;">
<path d="M57023 29232
L57023 29232
" />
</g>
<g style="fill:#848400; fill-opacity:1.0; 
stroke:#848400; stroke-width:0; stroke-opacity:1; 
stroke-linecap:round; stroke-linejoin:round;">
<circle cx="61023.6" cy="29232.3" r="314.961" /> 
</g>
<g style="fill:#848400; fill-opacity:1.0; 
stroke:#848400; stroke-width:39.3701; stroke-opacity:1; 
stroke-linecap:round; stroke-linejoin:round;">
</g>
<g style="fill:#848400; fill-opacity:1.0; 
stroke:#848400; stroke-width:629.921; stroke-opacity:1; 
stroke-linecap:round; stroke-linejoin:round;">
</g>
<g style="fill:#848400; fill-opacity:0.0; 
stroke:#848400; stroke-width:629.921; stroke-opacity:1; 
stroke-linecap:round; stroke-linejoin:round;">
<path d="M57023 26968
L57023 26968
" />
</g>
<g style="fill:#848400; fill-opacity:1.0; 
stroke:#848400; stroke-width:0; stroke-opacity:1; 
stroke-linecap:round; stroke-linejoin:round;">
<circle cx="61023.6" cy="26968.5" r="314.961" /> 
</g>
<g style="fill:#848400; fill-opacity:1.0; 
stroke:#848400; stroke-width:39.3701; stroke-opacity:1; 
stroke-linecap:round; stroke-linejoin:round;">
</g>
<g style="fill:#848400; fill-opacity:1.0; 
stroke:#848400; stroke-width:629.921; stroke-opacity:1; 
stroke-linecap:round; stroke-linejoin:round;">
</g>
<g style="fill:#848400; fill-opacity:0.0; 
stroke:#848400; stroke-width:629.921; stroke-opacity:1; 
stroke-linecap:round; stroke-linejoin:round;">
<path d="M52559 29232
L52559 29232
" />
</g>
<g style="fill:#848400; fill-opacity:1.0; 
stroke:#848400; stroke-width:0; stroke-opacity:1; 
stroke-linecap:round; stroke-linejoin:round;">
<circle cx="48559.1" cy="29232.3" r="314.961" /> 
</g>
<g style="fill:#848400; fill-opacity:1.0; 
stroke:#848400; stroke-width:39.3701; stroke-opacity:1; 
stroke-linecap:round; stroke-linejoin:round;">
</g>
<g style="fill:#848400; fill-opacity:1.0; 
stroke:#848400; stroke-width:629.921; stroke-opacity:1; 
stroke-linecap:round; stroke-linejoin:round;">
</g>
<g style="fill:#848400; fill-opacity:0.0; 
stroke:#848400; stroke-width:629.921; stroke-opacity:1; 
stroke-linecap:round; stroke-linejoin:round;">
<path d="M52559 26968
L52559 26968
" />
</g>
<g style="fill:#848400; fill-opacity:1.0; 
stroke:#848400; stroke-width:0; stroke-opacity:1; 
stroke-linecap:round; stroke-linejoin:round;">
<circle cx="48559.1" cy="26968.5" r="314.961" /> 
</g>
<g style="fill:#848400; fill-opacity:1.0; 
stroke:#848400; stroke-width:39.3701; stroke-opacity:1; 
stroke-linecap:round; stroke-linejoin:round;">
</g>
<g style="fill:#848400; fill-opacity:1.0; 
stroke:#848400; stroke-width:629.921; stroke-opacity:1; 
stroke-linecap:round; stroke-linejoin:round;">
</g>
<g style="fill:#848400; fill-opacity:0.0; 
stroke:#848400; stroke-width:629.921; stroke-opacity:1; 
stroke-linecap:round; stroke-linejoin:round;">
<path d="M57023 30610
L57023 30610
" />
</g>
<g style="fill:#848400; fill-opacity:1.0; 
stroke:#848400; stroke-width:0; stroke-opacity:1; 
stroke-linecap:round; stroke-linejoin:round;">
<circle cx="61023.6" cy="30610.2" r="314.961" /> 
</g>
<g style="fill:#848400; fill-opacity:1.0; 
stroke:#848400; stroke-width:39.3701; stroke-opacity:1; 
stroke-linecap:round; stroke-linejoin:round;">
</g>
<g style="fill:#848400; fill-opacity:1.0; 
stroke:#848400; stroke-width:629.921; stroke-opacity:1; 
stroke-linecap:round; stroke-linejoin:round;">
</g>
<g style="fill:#848400; fill-opacity:0.0; 
stroke:#848400; stroke-width:629.921; stroke-opacity:1; 
stroke-linecap:round; stroke-linejoin:round;">
<path d="M61354 24015
L61354 24015
" />
</g>
<g style="fill:#848400; fill-opacity:1.0; 
stroke:#848400; stroke-width:0; stroke-opacity:1; 
stroke-linecap:round; stroke-linejoin:round;">
<circle cx="65354.3" cy="24015.7" r="314.961" /> 
</g>
<g style="fill:#848400; fill-opacity:1.0; 
stroke:#848400; stroke-width:39.3701; stroke-opacity:1; 
stroke-linecap:round; stroke-linejoin:round;">
</g>
<g style="fill:#848400; fill-opacity:1.0; 
stroke:#848400; stroke-width:629.921; stroke-opacity:1; 
stroke-linecap:round; stroke-linejoin:round;">
</g>
<g style="fill:#848400; fill-opacity:0.0; 
stroke:#848400; stroke-width:629.921; stroke-opacity:1; 
stroke-linecap:round; stroke-linejoin:round;">
<path d="M52559 30610
L52559 30610
" />
</g>
<g style="fill:#848400; fill-opacity:1.0; 
stroke:#848400; stroke-width:0; stroke-opacity:1; 
stroke-linecap:round; stroke-linejoin:round;">
<circle cx="48559.1" cy="30610.2" r="314.961" /> 
</g>
<g style="fill:#848400; fill-opacity:1.0; 
stroke:#848400; stroke-width:39.3701; stroke-opacity:1; 
stroke-linecap:round; stroke-linejoin:round;">
</g>
<g style="fill:#848400; fill-opacity:1.0; 
stroke:#848400; stroke-width:0; stroke-opacity:1; 
stroke-linecap:round; stroke-linejoin:round;">
<circle cx="65944.9" cy="33464.6" r="393.701" /> 
</g>
<g style="fill:#848400; fill-opacity:1.0; 
stroke:#848400; stroke-width:39.3701; stroke-opacity:1; 
stroke-linecap:round; stroke-linejoin:round;">
</g>
<g style="fill:#848400; fill-opacity:1.0; 
stroke:#848400; stroke-width:0; stroke-opacity:1; 
stroke-linecap:round; stroke-linejoin:round;">
<circle cx="65944.9" cy="31692.9" r="393.701" /> 
</g>
<g style="fill:#848400; fill-opacity:1.0; 
stroke:#848400; stroke-width:39.3701; stroke-opacity:1; 
stroke-linecap:round; stroke-linejoin:round;">
</g>
<g style="fill:#848400; fill-opacity:1.0; 
stroke:#848400; stroke-width:0; stroke-opacity:1; 
stroke-linecap:round; stroke-linejoin:round;">
<circle cx="63385.8" cy="33464.6" r="393.701" /> 
</g>
<g style="fill:#848400; fill-opacity:1.0; 
stroke:#848400; stroke-width:39.3701; stroke-opacity:1; 
stroke-linecap:round; stroke-linejoin:round;">
</g>
<g style="fill:#848400; fill-opacity:1.0; 
stroke:#848400; stroke-width:0; stroke-opacity:1; 
stroke-linecap:round; stroke-linejoin:round;">
<circle cx="63385.8" cy="31692.9" r="393.701" /> 
</g>
<g style="fill:#848400; fill-opacity:1.0; 
stroke:#848400; stroke-width:39.3701; stroke-opacity:1; 
stroke-linecap:round; stroke-linejoin:round;">
</g>
<g style="fill:#848400; fill-opacity:1.0; 
stroke:#848400; stroke-width:629.921; stroke-opacity:1; 
stroke-linecap:round; stroke-linejoin:round;">
</g>
<g style="fill:#848400; fill-opacity:0.0; 
stroke:#848400; stroke-width:629.921; stroke-opacity:1; 
stroke-linecap:round; stroke-linejoin:round;">
<path d="M62960 28984
L62960 28984
" />
<path d="M65960 25984
L65960 25984
" />
<path d="M63960 28984
L63960 28984
" />
<path d="M64960 25984
L64960 25984
" />
<path d="M64960 28984
L64960 28984
" />
<path d="M63960 25984
L63960 25984
" />
<path d="M65960 28984
L65960 28984
" />
</g>
<g style="fill:#848400; fill-opacity:0.0; 
stroke:#848400; stroke-width:0; stroke-opacity:1; 
stroke-linecap:round; stroke-linejoin:round;">
</g>
<g style="fill:#848400; fill-opacity:1.0; 
stroke:#848400; stroke-width:0; stroke-opacity:1; 
stroke-linecap:round; stroke-linejoin:round;">
<polyline style="fill-rule:evenodd;"
points="62645,25669
63275,25669
63275,26299
62645,26299
62645,25669
" /> 
</g>
<g style="fill:#840000; fill-opacity:1.0; 
stroke:#840000; stroke-width:0; stroke-opacity:1; 
stroke-linecap:round; stroke-linejoin:round;">
</g>
<g style="fill:#840000; fill-opacity:1.0; 
stroke:#840000; stroke-width:196.85; stroke-opacity:1; 
stroke-linecap:round; stroke-linejoin:round;">
</g>
<g style="fill:#840000; fill-opacity:0.0; 
stroke:#840000; stroke-width:196.85; stroke-opacity:1; 
stroke-linecap:round; stroke-linejoin:round;">
<path d="M55330 28838
L55724 29232
" />
<path d="M55724 29232
L57023 29232
" />
<path d="M55429 28740
L55330 28838
" />
<path d="M57023 26968
L57338 26653
" />
<path d="M57338 26653
L58016 26653
" />
<path d="M58016 26653
L59267 25402
" />
<path d="M59267 25402
L59267 24901
" />
<path d="M59267 24921
L59267 24901
" />
<path d="M52559 29232
L51393 30397
" />
<path d="M51393 30397
L51393 32775
" />
<path d="M52559 26066
L52559 26968
" />
<path d="M51393 24901
L52559 26066
" />
<path d="M57023 30610
L57338 30925
" />
<path d="M57918 30925
L59267 32274
" />
<path d="M57338 30925
L57918 30925
" />
<path d="M59267 32274
L59267 32775
" />
<path d="M59267 32559
L59267 32775
" />
<path d="M61354 24015
L61039 24330
" />
<path d="M61039 24330
L55885 24330
" />
<path d="M55669 24547
L55314 24901
" />
<path d="M55885 24330
L55669 24547
" />
<path d="M52559 30610
L53666 30610
" />
<path d="M53666 30610
L55330 32274
" />
<path d="M55330 32274
L55330 32775
" />
<path d="M64960 28984
L64114 28137
" />
<path d="M64114 28137
L62118 28137
" />
<path d="M62118 28137
L61023 29232
" />
<path d="M65944 31692
L65944 29000
" />
<path d="M65944 29000
L65960 28984
" />
<path d="M63385 31692
L65944 31692
" />
<path d="M62960 25984
L63174 25984
" />
<path d="M63174 25984
L65642 28452
" />
<path d="M65642 28452
L67232 28452
" />
<path d="M67232 28452
L71082 32303
" />
<path d="M62960 28984
L62401 29543
" />
<path d="M62401 29543
L62401 31611
" />
<path d="M62401 31611
L63092 32303
" />
<path d="M63092 32303
L71082 32303
" />
<path d="M71082 32303
L72047 33267
" />
<path d="M61394 29763
L62122 29035
" />
<path d="M51772 29232
L52756 28248
" />
<path d="M56037 28700
L58327 28700
" />
<path d="M58327 28700
L60768 31141
" />
<path d="M62122 29035
L62705 28452
" />
<path d="M61278 31141
L62086 30333
" />
<path d="M48559 29232
L51772 29232
" />
<path d="M52756 28248
L55585 28248
" />
<path d="M55585 28248
L56037 28700
" />
<path d="M60768 31141
L61278 31141
" />
<path d="M62086 30333
L62086 29071
" />
<path d="M62086 29071
L62122 29035
" />
<path d="M61023 26968
L60492 27500
" />
<path d="M63429 28452
L63645 28669
" />
<path d="M60492 27500
L60492 29487
" />
<path d="M60492 29487
L60768 29763
" />
<path d="M60768 29763
L61394 29763
" />
<path d="M62705 28452
L63429 28452
" />
<path d="M63645 28669
L63960 28984
" />
<path d="M56168 28385
L58819 28385
" />
<path d="M58819 28385
L60177 27028
" />
<path d="M50062 28917
L51641 28917
" />
<path d="M51641 28917
L52626 27933
" />
<path d="M52626 27933
L55715 27933
" />
<path d="M55715 27933
L56168 28385
" />
<path d="M48559 26968
L48559 27413
" />
<path d="M48559 27413
L50062 28917
" />
<path d="M63960 25984
L63429 25452
" />
<path d="M63429 25452
L61752 25452
" />
<path d="M61752 25452
L60177 27028
" />
<path d="M60177 27028
L60177 29763
" />
<path d="M60708 30295
L61023 30610
" />
<path d="M60177 29763
L60708 30295
" />
<path d="M64960 25984
L64960 24409
" />
<path d="M64960 24409
L65354 24015
" />
<path d="M48559 30610
L48559 30164
" />
<path d="M48027 29633
L48027 26713
" />
<path d="M48559 30164
L48027 29633
" />
<path d="M48027 26713
L48303 26437
" />
<path d="M48303 26437
L51240 26437
" />
<path d="M59260 27500
L61622 25137
" />
<path d="M61622 25137
L64114 25137
" />
<path d="M51240 26437
L52303 27500
" />
<path d="M52303 27500
L59260 27500
" />
<path d="M64114 25137
L64645 25669
" />
<path d="M64645 25669
L64960 25984
" />
</g>
<g style="fill:#840000; fill-opacity:1.0; 
stroke:#840000; stroke-width:100; stroke-opacity:1; 
stroke-linecap:round; stroke-linejoin:round;">
<polyline style="fill-rule:evenodd;"
points="77115,34595
47294,34595
47294,33918
63002,33918
63041,34023
63281,34112
63537,34103
63730,34023
63768,33918
65561,33918
65600,34023
65840,34112
66096,34103
66289,34023
66327,33918
65944,33535
65561,33918
63768,33918
63385,33535
63002,33918
47294,33918
47294,32888
49789,32888
49789,33179
49827,33271
49897,33341
49989,33379
50281,33379
50343,33317
50343,32825
49851,32825
49789,32888
47294,32888
47294,32371
49789,32371
49789,32663
49851,32725
50343,32725
50343,32233
50281,32171
49989,32171
49897,32209
49827,32279
49789,32371
47294,32371
47294,26713
47672,26713
47679,26747
47679,29599
47672,29633
47679,29667
47679,29667
47699,29769
47776,29884
47805,29903
48135,30234
48080,30290
47994,30497
47994,30722
48080,30930
48239,31089
48446,31175
48671,31175
48879,31089
49038,30930
49124,30722
49124,30497
49038,30290
48914,30166
48914,30164
48907,30130
48907,30130
48887,30028
48810,29913
48781,29894
48680,29793
48879,29711
49009,29580
51717,29580
51171,30126
51142,30146
51065,30261
51045,30363
51045,30363
51038,30397
51045,30431
51045,32269
50981,32332
50959,32279
50889,32209
50797,32171
50506,32171
50443,32233
50443,32725
50451,32725
50451,32825
50443,32825
50443,33317
50506,33379
50797,33379
50889,33341
50959,33271
50981,33218
51051,33287
51273,33379
51513,33379
51736,33287
51906,33117
51998,32895
51998,32888
53726,32888
53726,33179
53764,33271
53834,33341
53926,33379
54218,33379
54280,33317
54280,32825
53788,32825
53726,32888
51998,32888
51998,32655
51906,32433
51844,32371
53726,32371
53726,32663
53788,32725
54280,32725
54280,32233
54218,32171
53926,32171
53834,32209
53764,32279
53726,32371
51844,32371
51742,32269
51742,30610
51983,30610
52026,30830
52151,31017
52338,31142
52503,31175
52614,31175
52779,31142
52966,31017
53005,30958
53522,30958
54734,32171
54443,32171
54380,32233
54380,32725
54388,32725
54388,32825
54380,32825
54380,33317
54443,33379
54734,33379
54826,33341
54896,33271
54918,33218
54988,33287
55210,33379
55450,33379
55673,33287
55843,33117
55935,32895
55935,32888
57663,32888
57663,33179
57701,33271
57771,33341
57863,33379
58155,33379
58217,33317
58217,32825
57725,32825
57663,32888
55935,32888
55935,32655
55843,32433
55781,32371
57663,32371
57663,32663
57725,32725
58217,32725
58217,32233
58155,32171
57863,32171
57771,32209
57701,32279
57663,32371
55781,32371
55685,32275
55685,32274
55679,32240
55679,32240
55658,32138
55581,32023
55552,32003
54159,30610
56447,30610
56491,30830
56616,31017
56803,31142
56967,31175
57079,31175
57085,31173
57087,31176
57116,31195
57116,31195
57160,31225
57202,31253
57304,31273
57304,31273
57338,31280
57372,31273
57774,31273
58671,32171
58380,32171
58317,32233
58317,32725
58325,32725
58325,32825
58317,32825
58317,33317
58380,33379
58671,33379
58763,33341
58833,33271
58855,33218
58925,33287
59147,33379
59387,33379
59435,33360
62737,33360
62747,33616
62827,33808
62932,33847
63315,33464
63456,33464
63839,33847
63944,33808
64033,33568
64026,33360
65296,33360
65306,33616
65386,33808
65491,33847
65874,33464
66015,33464
66398,33847
66503,33808
66592,33568
66583,33312
66503,33120
66398,33081
66015,33464
65874,33464
65491,33081
65386,33120
65296,33360
64026,33360
64024,33312
63944,33120
63839,33081
63456,33464
63315,33464
62932,33081
62827,33120
62737,33360
59435,33360
59610,33287
59780,33117
59824,33010
63002,33010
63385,33393
63768,33010
65561,33010
65944,33393
66327,33010
66289,32905
66049,32816
65793,32826
65600,32905
65561,33010
63768,33010
63730,32905
63489,32816
63234,32826
63041,32905
63002,33010
59824,33010
59872,32895
59872,32655
59780,32433
59622,32275
59622,32274
59616,32240
59616,32240
59595,32138
59518,32023
59489,32003
58189,30703
58169,30673
58054,30596
57952,30576
57952,30576
57918,30569
57884,30576
57592,30576
57555,30389
57430,30202
57244,30078
57079,30045
56967,30045
56803,30078
56616,30202
56491,30389
56447,30610
54159,30610
53937,30388
53917,30359
53802,30282
53700,30261
53700,30261
53666,30254
53632,30261
53005,30261
52966,30202
52779,30078
52614,30045
52503,30045
52338,30078
52151,30202
52026,30389
51983,30610
51742,30610
51742,30541
52489,29794
52503,29797
52614,29797
52779,29764
52966,29639
53091,29452
53135,29232
53091,29011
53050,28951
53726,28951
53726,29242
53764,29334
53834,29404
53926,29442
54218,29442
54280,29380
54280,28888
53788,28888
53726,28951
53050,28951
52966,28824
52790,28707
52901,28596
53726,28596
53726,28726
53788,28788
54280,28788
54280,28780
54380,28780
54380,28788
54388,28788
54388,28888
54380,28888
54380,29380
54443,29442
54734,29442
54826,29404
54896,29334
54918,29281
54988,29350
55210,29442
55442,29442
55453,29454
55473,29483
55502,29502
55502,29502
55571,29549
55588,29560
55690,29580
55690,29580
55724,29587
55758,29580
56576,29580
56616,29639
56803,29764
56967,29797
57079,29797
57244,29764
57430,29639
57555,29452
57599,29232
57563,29049
58183,29049
60497,31363
60517,31392
60546,31412
60546,31412
60590,31441
60632,31469
60734,31490
60734,31490
60768,31496
60802,31490
61244,31490
61278,31496
61313,31490
61313,31490
61414,31469
61529,31392
61549,31363
62053,30860
62053,31577
62046,31611
62073,31747
62130,31833
62130,31833
62150,31863
62179,31882
62822,32525
62841,32554
62870,32573
62870,32573
62914,32602
62956,32631
63058,32651
63058,32651
63092,32658
63127,32651
70938,32651
71334,33048
71305,33120
71305,33415
71418,33688
71626,33896
71899,34009
72194,34009
72467,33896
72676,33688
72789,33415
72789,33120
72676,32847
72467,32638
72194,32525
71899,32525
71827,32555
71353,32081
71333,32051
71304,32032
67502,28230
67483,28201
67368,28124
67266,28104
67266,28104
67232,28097
67197,28104
65786,28104
64191,26509
64367,26391
64460,26252
64553,26391
64740,26516
64904,26549
65016,26549
65181,26516
65367,26391
65468,26240
65506,26320
65670,26468
65823,26532
65910,26484
65910,26034
66010,26034
66010,26484
66098,26532
66250,26468
66414,26320
66508,26121
66460,26034
66010,26034
65910,26034
65902,26034
65902,25934
65910,25934
65910,25484
66010,25484
66010,25934
66460,25934
66508,25846
66449,25721
71593,25721
71643,25837
71919,25942
72214,25934
72450,25837
72501,25721
72047,25267
71593,25721
66449,25721
66414,25647
66250,25499
66098,25436
66010,25484
65910,25484
65823,25436
65670,25499
65506,25647
65468,25727
65367,25576
65309,25537
65309,25069
71301,25069
71309,25364
71407,25600
71522,25651
71976,25196
72117,25196
72572,25651
72687,25600
72793,25324
72785,25029
72687,24793
72572,24742
72117,25196
71976,25196
71522,24742
71407,24793
71301,25069
65309,25069
65309,24671
71593,24671
72047,25126
72501,24671
72450,24556
72174,24451
71879,24458
71643,24556
71593,24671
65309,24671
65309,24580
65466,24580
65674,24494
65833,24335
65919,24128
65919,23903
65833,23695
65674,23536
65466,23450
65241,23450
65034,23536
64875,23695
64789,23903
64789,24087
64738,24138
64709,24158
64689,24187
64689,24187
64632,24273
64605,24409
64612,24443
64612,25143
64384,24915
64365,24886
64250,24809
64148,24789
64148,24789
64114,24782
64079,24789
61656,24789
61622,24782
61587,24789
61587,24789
61486,24809
61486,24809
61486,24809
61400,24867
61400,24867
61371,24886
61351,24915
59115,27151
57563,27151
57592,27001
57982,27001
58016,27008
58051,27001
58051,27001
58152,26981
58268,26904
58287,26875
59489,25673
59518,25653
59595,25538
59616,25436
59616,25436
59622,25402
59622,25401
59780,25243
59872,25021
59872,24781
59829,24679
61005,24679
61039,24685
61073,24679
61073,24679
61175,24658
61290,24581
61292,24579
61298,24580
61409,24580
61574,24547
61761,24423
61886,24236
61930,24015
61886,23795
61761,23608
61574,23483
61409,23450
61298,23450
61133,23483
60947,23608
60822,23795
60784,23982
55920,23982
55885,23975
55851,23982
55851,23982
55749,24002
55634,24079
55615,24108
55447,24276
55447,24276
55426,24297
55194,24297
54972,24389
54903,24458
54881,24405
54810,24335
54719,24297
54427,24297
54364,24359
54364,24851
54372,24851
54372,24951
54364,24951
54364,25443
54427,25505
54719,25505
54810,25467
54881,25397
54903,25344
54972,25413
55194,25505
55435,25505
55657,25413
55827,25243
55919,25021
55919,25014
57663,25014
57663,25305
57701,25397
57771,25467
57863,25505
58155,25505
58217,25443
58217,24951
57725,24951
57663,25014
55919,25014
55919,24789
55939,24769
55939,24769
56030,24679
57663,24679
57663,24789
57725,24851
58217,24851
58217,24843
58317,24843
58317,24851
58325,24851
58325,24951
58317,24951
58317,25443
58380,25505
58671,25505
57872,26305
57372,26305
57338,26298
57304,26305
57304,26305
57202,26325
57181,26339
57116,26382
57116,26382
57087,26402
57085,26404
57079,26403
56967,26403
56803,26436
56616,26561
56491,26748
56447,26968
56484,27151
53098,27151
53135,26968
53091,26748
52966,26561
52907,26521
52907,26101
52914,26066
52907,26032
52907,26032
52887,25930
52858,25888
52829,25844
52829,25844
52810,25815
52781,25796
51998,25014
53710,25014
53710,25305
53748,25397
53819,25467
53910,25505
54202,25505
54264,25443
54264,24951
53773,24951
53710,25014
51998,25014
51998,25013
51998,24781
51906,24559
51844,24497
53710,24497
53710,24789
53773,24851
54264,24851
54264,24359
54202,24297
53910,24297
53819,24335
53748,24405
53710,24497
51844,24497
51736,24389
51513,24297
51273,24297
51051,24389
50981,24458
50959,24405
50889,24335
50797,24297
50506,24297
50443,24359
50443,24851
50451,24851
50451,24951
50443,24951
50443,25443
50506,25505
50797,25505
50889,25467
50959,25397
50981,25344
51051,25413
51273,25505
51505,25505
52210,26211
52210,26521
52151,26561
52034,26737
51511,26214
51492,26185
51376,26108
51275,26088
51275,26088
51240,26081
51206,26088
48338,26088
48303,26081
48269,26088
48269,26088
48167,26108
48081,26166
48081,26166
48052,26185
48033,26214
47805,26442
47776,26462
47756,26491
47756,26491
47699,26577
47672,26713
47294,26713
47294,25014
49789,25014
49789,25305
49827,25397
49897,25467
49989,25505
50281,25505
50343,25443
50343,24951
49851,24951
49789,25014
47294,25014
47294,24497
49789,24497
49789,24789
49851,24851
50343,24851
50343,24359
50281,24297
49989,24297
49897,24335
49827,24405
49789,24497
47294,24497
47294,22884
77115,22884
77115,34595
" /> 
</g>
<g style="fill:#FFFFFF; fill-opacity:1.0; 
stroke:#FFFFFF; stroke-width:100; stroke-opacity:1; 
stroke-linecap:round; stroke-linejoin:round;">
</g>
<g style="fill:#FFFFFF; fill-opacity:1.0; 
stroke:#FFFFFF; stroke-width:0; stroke-opacity:1; 
stroke-linecap:round; stroke-linejoin:round;">
<circle cx="72047.2" cy="25196.9" r="236.22" /> 
</g>
<g style="fill:#FFFFFF; fill-opacity:1.0; 
stroke:#FFFFFF; stroke-width:39.3701; stroke-opacity:1; 
stroke-linecap:round; stroke-linejoin:round;">
</g>
<g style="fill:#FFFFFF; fill-opacity:1.0; 
stroke:#FFFFFF; stroke-width:0; stroke-opacity:1; 
stroke-linecap:round; stroke-linejoin:round;">
<circle cx="72047.2" cy="33267.7" r="236.22" /> 
</g>
<g style="fill:#FFFFFF; fill-opacity:1.0; 
stroke:#FFFFFF; stroke-width:39.3701; stroke-opacity:1; 
stroke-linecap:round; stroke-linejoin:round;">
</g>
<g style="fill:#FFFFFF; fill-opacity:1.0; 
stroke:#FFFFFF; stroke-width:0; stroke-opacity:1; 
stroke-linecap:round; stroke-linejoin:round;">
<circle cx="55330.7" cy="28838.6" r="177.165" /> 
</g>
<g style="fill:#FFFFFF; fill-opacity:1.0; 
stroke:#FFFFFF; stroke-width:39.3701; stroke-opacity:1; 
stroke-linecap:round; stroke-linejoin:round;">
</g>
<g style="fill:#FFFFFF; fill-opacity:1.0; 
stroke:#FFFFFF; stroke-width:0; stroke-opacity:1; 
stroke-linecap:round; stroke-linejoin:round;">
<circle cx="54330.7" cy="28838.6" r="177.165" /> 
</g>
<g style="fill:#FFFFFF; fill-opacity:1.0; 
stroke:#FFFFFF; stroke-width:39.3701; stroke-opacity:1; 
stroke-linecap:round; stroke-linejoin:round;">
</g>
<g style="fill:#FFFFFF; fill-opacity:1.0; 
stroke:#FFFFFF; stroke-width:0; stroke-opacity:1; 
stroke-linecap:round; stroke-linejoin:round;">
<circle cx="59267.7" cy="24901.6" r="177.165" /> 
</g>
<g style="fill:#FFFFFF; fill-opacity:1.0; 
stroke:#FFFFFF; stroke-width:39.3701; stroke-opacity:1; 
stroke-linecap:round; stroke-linejoin:round;">
</g>
<g style="fill:#FFFFFF; fill-opacity:1.0; 
stroke:#FFFFFF; stroke-width:0; stroke-opacity:1; 
stroke-linecap:round; stroke-linejoin:round;">
<circle cx="58267.7" cy="24901.6" r="177.165" /> 
</g>
<g style="fill:#FFFFFF; fill-opacity:1.0; 
stroke:#FFFFFF; stroke-width:39.3701; stroke-opacity:1; 
stroke-linecap:round; stroke-linejoin:round;">
</g>
<g style="fill:#FFFFFF; fill-opacity:1.0; 
stroke:#FFFFFF; stroke-width:0; stroke-opacity:1; 
stroke-linecap:round; stroke-linejoin:round;">
<circle cx="51393.7" cy="32775.6" r="177.165" /> 
</g>
<g style="fill:#FFFFFF; fill-opacity:1.0; 
stroke:#FFFFFF; stroke-width:39.3701; stroke-opacity:1; 
stroke-linecap:round; stroke-linejoin:round;">
</g>
<g style="fill:#FFFFFF; fill-opacity:1.0; 
stroke:#FFFFFF; stroke-width:0; stroke-opacity:1; 
stroke-linecap:round; stroke-linejoin:round;">
<circle cx="50393.7" cy="32775.6" r="177.165" /> 
</g>
<g style="fill:#FFFFFF; fill-opacity:1.0; 
stroke:#FFFFFF; stroke-width:39.3701; stroke-opacity:1; 
stroke-linecap:round; stroke-linejoin:round;">
</g>
<g style="fill:#FFFFFF; fill-opacity:1.0; 
stroke:#FFFFFF; stroke-width:0; stroke-opacity:1; 
stroke-linecap:round; stroke-linejoin:round;">
<circle cx="51393.7" cy="24901.6" r="177.165" /> 
</g>
<g style="fill:#FFFFFF; fill-opacity:1.0; 
stroke:#FFFFFF; stroke-width:39.3701; stroke-opacity:1; 
stroke-linecap:round; stroke-linejoin:round;">
</g>
<g style="fill:#FFFFFF; fill-opacity:1.0; 
stroke:#FFFFFF; stroke-width:0; stroke-opacity:1; 
stroke-linecap:round; stroke-linejoin:round;">
<circle cx="50393.7" cy="24901.6" r="177.165" /> 
</g>
<g style="fill:#FFFFFF; fill-opacity:1.0; 
stroke:#FFFFFF; stroke-width:39.3701; stroke-opacity:1; 
stroke-linecap:round; stroke-linejoin:round;">
</g>
<g style="fill:#FFFFFF; fill-opacity:1.0; 
stroke:#FFFFFF; stroke-width:0; stroke-opacity:1; 
stroke-linecap:round; stroke-linejoin:round;">
<circle cx="59267.7" cy="32775.6" r="177.165" /> 
</g>
<g style="fill:#FFFFFF; fill-opacity:1.0; 
stroke:#FFFFFF; stroke-width:39.3701; stroke-opacity:1; 
stroke-linecap:round; stroke-linejoin:round;">
</g>
<g style="fill:#FFFFFF; fill-opacity:1.0; 
stroke:#FFFFFF; stroke-width:0; stroke-opacity:1; 
stroke-linecap:round; stroke-linejoin:round;">
<circle cx="58267.7" cy="32775.6" r="177.165" /> 
</g>
<g style="fill:#FFFFFF; fill-opacity:1.0; 
stroke:#FFFFFF; stroke-width:39.3701; stroke-opacity:1; 
stroke-linecap:round; stroke-linejoin:round;">
</g>
<g style="fill:#FFFFFF; fill-opacity:1.0; 
stroke:#FFFFFF; stroke-width:0; stroke-opacity:1; 
stroke-linecap:round; stroke-linejoin:round;">
<circle cx="55315" cy="24901.6" r="177.165" /> 
</g>
<g style="fill:#FFFFFF; fill-opacity:1.0; 
stroke:#FFFFFF; stroke-width:39.3701; stroke-opacity:1; 
stroke-linecap:round; stroke-linejoin:round;">
</g>
<g style="fill:#FFFFFF; fill-opacity:1.0; 
stroke:#FFFFFF; stroke-width:0; stroke-opacity:1; 
stroke-linecap:round; stroke-linejoin:round;">
<circle cx="54315" cy="24901.6" r="177.165" /> 
</g>
<g style="fill:#FFFFFF; fill-opacity:1.0; 
stroke:#FFFFFF; stroke-width:39.3701; stroke-opacity:1; 
stroke-linecap:round; stroke-linejoin:round;">
</g>
<g style="fill:#FFFFFF; fill-opacity:1.0; 
stroke:#FFFFFF; stroke-width:0; stroke-opacity:1; 
stroke-linecap:round; stroke-linejoin:round;">
<circle cx="55330.7" cy="32775.6" r="177.165" /> 
</g>
<g style="fill:#FFFFFF; fill-opacity:1.0; 
stroke:#FFFFFF; stroke-width:39.3701; stroke-opacity:1; 
stroke-linecap:round; stroke-linejoin:round;">
</g>
<g style="fill:#FFFFFF; fill-opacity:1.0; 
stroke:#FFFFFF; stroke-width:0; stroke-opacity:1; 
stroke-linecap:round; stroke-linejoin:round;">
<circle cx="54330.7" cy="32775.6" r="177.165" /> 
</g>
<g style="fill:#FFFFFF; fill-opacity:1.0; 
stroke:#FFFFFF; stroke-width:39.3701; stroke-opacity:1; 
stroke-linecap:round; stroke-linejoin:round;">
</g>
<g style="fill:#FFFFFF; fill-opacity:1.0; 
stroke:#FFFFFF; stroke-width:0; stroke-opacity:1; 
stroke-linecap:round; stroke-linejoin:round;">
<circle cx="57023.6" cy="29232.3" r="157.48" /> 
</g>
<g style="fill:#FFFFFF; fill-opacity:1.0; 
stroke:#FFFFFF; stroke-width:39.3701; stroke-opacity:1; 
stroke-linecap:round; stroke-linejoin:round;">
</g>
<g style="fill:#FFFFFF; fill-opacity:1.0; 
stroke:#FFFFFF; stroke-width:0; stroke-opacity:1; 
stroke-linecap:round; stroke-linejoin:round;">
<circle cx="61023.6" cy="29232.3" r="157.48" /> 
</g>
<g style="fill:#FFFFFF; fill-opacity:1.0; 
stroke:#FFFFFF; stroke-width:39.3701; stroke-opacity:1; 
stroke-linecap:round; stroke-linejoin:round;">
</g>
<g style="fill:#FFFFFF; fill-opacity:1.0; 
stroke:#FFFFFF; stroke-width:0; stroke-opacity:1; 
stroke-linecap:round; stroke-linejoin:round;">
<circle cx="57023.6" cy="26968.5" r="157.48" /> 
</g>
<g style="fill:#FFFFFF; fill-opacity:1.0; 
stroke:#FFFFFF; stroke-width:39.3701; stroke-opacity:1; 
stroke-linecap:round; stroke-linejoin:round;">
</g>
<g style="fill:#FFFFFF; fill-opacity:1.0; 
stroke:#FFFFFF; stroke-width:0; stroke-opacity:1; 
stroke-linecap:round; stroke-linejoin:round;">
<circle cx="61023.6" cy="26968.5" r="157.48" /> 
</g>
<g style="fill:#FFFFFF; fill-opacity:1.0; 
stroke:#FFFFFF; stroke-width:39.3701; stroke-opacity:1; 
stroke-linecap:round; stroke-linejoin:round;">
</g>
<g style="fill:#FFFFFF; fill-opacity:1.0; 
stroke:#FFFFFF; stroke-width:0; stroke-opacity:1; 
stroke-linecap:round; stroke-linejoin:round;">
<circle cx="52559.1" cy="29232.3" r="157.48" /> 
</g>
<g style="fill:#FFFFFF; fill-opacity:1.0; 
stroke:#FFFFFF; stroke-width:39.3701; stroke-opacity:1; 
stroke-linecap:round; stroke-linejoin:round;">
</g>
<g style="fill:#FFFFFF; fill-opacity:1.0; 
stroke:#FFFFFF; stroke-width:0; stroke-opacity:1; 
stroke-linecap:round; stroke-linejoin:round;">
<circle cx="48559.1" cy="29232.3" r="157.48" /> 
</g>
<g style="fill:#FFFFFF; fill-opacity:1.0; 
stroke:#FFFFFF; stroke-width:39.3701; stroke-opacity:1; 
stroke-linecap:round; stroke-linejoin:round;">
</g>
<g style="fill:#FFFFFF; fill-opacity:1.0; 
stroke:#FFFFFF; stroke-width:0; stroke-opacity:1; 
stroke-linecap:round; stroke-linejoin:round;">
<circle cx="52559.1" cy="26968.5" r="157.48" /> 
</g>
<g style="fill:#FFFFFF; fill-opacity:1.0; 
stroke:#FFFFFF; stroke-width:39.3701; stroke-opacity:1; 
stroke-linecap:round; stroke-linejoin:round;">
</g>
<g style="fill:#FFFFFF; fill-opacity:1.0; 
stroke:#FFFFFF; stroke-width:0; stroke-opacity:1; 
stroke-linecap:round; stroke-linejoin:round;">
<circle cx="48559.1" cy="26968.5" r="157.48" /> 
</g>
<g style="fill:#FFFFFF; fill-opacity:1.0; 
stroke:#FFFFFF; stroke-width:39.3701; stroke-opacity:1; 
stroke-linecap:round; stroke-linejoin:round;">
</g>
<g style="fill:#FFFFFF; fill-opacity:1.0; 
stroke:#FFFFFF; stroke-width:0; stroke-opacity:1; 
stroke-linecap:round; stroke-linejoin:round;">
<circle cx="57023.6" cy="30610.2" r="157.48" /> 
</g>
<g style="fill:#FFFFFF; fill-opacity:1.0; 
stroke:#FFFFFF; stroke-width:39.3701; stroke-opacity:1; 
stroke-linecap:round; stroke-linejoin:round;">
</g>
<g style="fill:#FFFFFF; fill-opacity:1.0; 
stroke:#FFFFFF; stroke-width:0; stroke-opacity:1; 
stroke-linecap:round; stroke-linejoin:round;">
<circle cx="61023.6" cy="30610.2" r="157.48" /> 
</g>
<g style="fill:#FFFFFF; fill-opacity:1.0; 
stroke:#FFFFFF; stroke-width:39.3701; stroke-opacity:1; 
stroke-linecap:round; stroke-linejoin:round;">
</g>
<g style="fill:#FFFFFF; fill-opacity:1.0; 
stroke:#FFFFFF; stroke-width:0; stroke-opacity:1; 
stroke-linecap:round; stroke-linejoin:round;">
<circle cx="61354.3" cy="24015.7" r="157.48" /> 
</g>
<g style="fill:#FFFFFF; fill-opacity:1.0; 
stroke:#FFFFFF; stroke-width:39.3701; stroke-opacity:1; 
stroke-linecap:round; stroke-linejoin:round;">
</g>
<g style="fill:#FFFFFF; fill-opacity:1.0; 
stroke:#FFFFFF; stroke-width:0; stroke-opacity:1; 
stroke-linecap:round; stroke-linejoin:round;">
<circle cx="65354.3" cy="24015.7" r="157.48" /> 
</g>
<g style="fill:#FFFFFF; fill-opacity:1.0; 
stroke:#FFFFFF; stroke-width:39.3701; stroke-opacity:1; 
stroke-linecap:round; stroke-linejoin:round;">
</g>
<g style="fill:#FFFFFF; fill-opacity:1.0; 
stroke:#FFFFFF; stroke-width:0; stroke-opacity:1; 
stroke-linecap:round; stroke-linejoin:round;">
<circle cx="52559.1" cy="30610.2" r="157.48" /> 
</g>
<g style="fill:#FFFFFF; fill-opacity:1.0; 
stroke:#FFFFFF; stroke-width:39.3701; stroke-opacity:1; 
stroke-linecap:round; stroke-linejoin:round;">
</g>
<g style="fill:#FFFFFF; fill-opacity:1.0; 
stroke:#FFFFFF; stroke-width:0; stroke-opacity:1; 
stroke-linecap:round; stroke-linejoin:round;">
<circle cx="48559.1" cy="30610.2" r="157.48" /> 
</g>
<g style="fill:#FFFFFF; fill-opacity:1.0; 
stroke:#FFFFFF; stroke-width:39.3701; stroke-opacity:1; 
stroke-linecap:round; stroke-linejoin:round;">
</g>
<g style="fill:#FFFFFF; fill-opacity:1.0; 
stroke:#FFFFFF; stroke-width:0; stroke-opacity:1; 
stroke-linecap:round; stroke-linejoin:round;">
<circle cx="65944.9" cy="33464.6" r="216.535" /> 
</g>
<g style="fill:#FFFFFF; fill-opacity:1.0; 
stroke:#FFFFFF; stroke-width:39.3701; stroke-opacity:1; 
stroke-linecap:round; stroke-linejoin:round;">
</g>
<g style="fill:#FFFFFF; fill-opacity:1.0; 
stroke:#FFFFFF; stroke-width:0; stroke-opacity:1; 
stroke-linecap:round; stroke-linejoin:round;">
<circle cx="65944.9" cy="31692.9" r="216.535" /> 
</g>
<g style="fill:#FFFFFF; fill-opacity:1.0; 
stroke:#FFFFFF; stroke-width:39.3701; stroke-opacity:1; 
stroke-linecap:round; stroke-linejoin:round;">
</g>
<g style="fill:#FFFFFF; fill-opacity:1.0; 
stroke:#FFFFFF; stroke-width:0; stroke-opacity:1; 
stroke-linecap:round; stroke-linejoin:round;">
<circle cx="63385.8" cy="33464.6" r="216.535" /> 
</g>
<g style="fill:#FFFFFF; fill-opacity:1.0; 
stroke:#FFFFFF; stroke-width:39.3701; stroke-opacity:1; 
stroke-linecap:round; stroke-linejoin:round;">
</g>
<g style="fill:#FFFFFF; fill-opacity:1.0; 
stroke:#FFFFFF; stroke-width:0; stroke-opacity:1; 
stroke-linecap:round; stroke-linejoin:round;">
<circle cx="63385.8" cy="31692.9" r="216.535" /> 
</g>
<g style="fill:#FFFFFF; fill-opacity:1.0; 
stroke:#FFFFFF; stroke-width:39.3701; stroke-opacity:1; 
stroke-linecap:round; stroke-linejoin:round;">
</g>
<g style="fill:#FFFFFF; fill-opacity:1.0; 
stroke:#FFFFFF; stroke-width:0; stroke-opacity:1; 
stroke-linecap:round; stroke-linejoin:round;">
<circle cx="62960.6" cy="28984.3" r="157.48" /> 
</g>
<g style="fill:#FFFFFF; fill-opacity:1.0; 
stroke:#FFFFFF; stroke-width:39.3701; stroke-opacity:1; 
stroke-linecap:round; stroke-linejoin:round;">
</g>
<g style="fill:#FFFFFF; fill-opacity:1.0; 
stroke:#FFFFFF; stroke-width:0; stroke-opacity:1; 
stroke-linecap:round; stroke-linejoin:round;">
<circle cx="65960.6" cy="25984.3" r="157.48" /> 
</g>
<g style="fill:#FFFFFF; fill-opacity:1.0; 
stroke:#FFFFFF; stroke-width:39.3701; stroke-opacity:1; 
stroke-linecap:round; stroke-linejoin:round;">
</g>
<g style="fill:#FFFFFF; fill-opacity:1.0; 
stroke:#FFFFFF; stroke-width:0; stroke-opacity:1; 
stroke-linecap:round; stroke-linejoin:round;">
<circle cx="63960.6" cy="28984.3" r="157.48" /> 
</g>
<g style="fill:#FFFFFF; fill-opacity:1.0; 
stroke:#FFFFFF; stroke-width:39.3701; stroke-opacity:1; 
stroke-linecap:round; stroke-linejoin:round;">
</g>
<g style="fill:#FFFFFF; fill-opacity:1.0; 
stroke:#FFFFFF; stroke-width:0; stroke-opacity:1; 
stroke-linecap:round; stroke-linejoin:round;">
<circle cx="64960.6" cy="25984.3" r="157.48" /> 
</g>
<g style="fill:#FFFFFF; fill-opacity:1.0; 
stroke:#FFFFFF; stroke-width:39.3701; stroke-opacity:1; 
stroke-linecap:round; stroke-linejoin:round;">
</g>
<g style="fill:#FFFFFF; fill-opacity:1.0; 
stroke:#FFFFFF; stroke-width:0; stroke-opacity:1; 
stroke-linecap:round; stroke-linejoin:round;">
<circle cx="64960.6" cy="28984.3" r="157.48" /> 
</g>
<g style="fill:#FFFFFF; fill-opacity:1.0; 
stroke:#FFFFFF; stroke-width:39.3701; stroke-opacity:1; 
stroke-linecap:round; stroke-linejoin:round;">
</g>
<g style="fill:#FFFFFF; fill-opacity:1.0; 
stroke:#FFFFFF; stroke-width:0; stroke-opacity:1; 
stroke-linecap:round; stroke-linejoin:round;">
<circle cx="63960.6" cy="25984.3" r="157.48" /> 
</g>
<g style="fill:#FFFFFF; fill-opacity:1.0; 
stroke:#FFFFFF; stroke-width:39.3701; stroke-opacity:1; 
stroke-linecap:round; stroke-linejoin:round;">
</g>
<g style="fill:#FFFFFF; fill-opacity:1.0; 
stroke:#FFFFFF; stroke-width:0; stroke-opacity:1; 
stroke-linecap:round; stroke-linejoin:round;">
<circle cx="65960.6" cy="28984.3" r="157.48" /> 
</g>
<g style="fill:#FFFFFF; fill-opacity:1.0; 
stroke:#FFFFFF; stroke-width:39.3701; stroke-opacity:1; 
stroke-linecap:round; stroke-linejoin:round;">
</g>
<g style="fill:#FFFFFF; fill-opacity:1.0; 
stroke:#FFFFFF; stroke-width:0; stroke-opacity:1; 
stroke-linecap:round; stroke-linejoin:round;">
<circle cx="62960.6" cy="25984.3" r="157.48" /> 
</g>
<g style="fill:#FFFFFF; fill-opacity:1.0; 
stroke:#FFFFFF; stroke-width:39.3701; stroke-opacity:1; 
stroke-linecap:round; stroke-linejoin:round;">
</g>
<g style="fill:#000000; fill-opacity:1.0; 
stroke:#000000; stroke-width:39.3701; stroke-opacity:1; 
stroke-linecap:round; stroke-linejoin:round;">
</g>
<g style="fill:#C200C2; fill-opacity:1.0; 
stroke:#C200C2; stroke-width:39.3701; stroke-opacity:1; 
stroke-linecap:round; stroke-linejoin:round;">
</g>
<g style="fill:#C200C2; fill-opacity:1.0; 
stroke:#C200C2; stroke-width:78.7402; stroke-opacity:1; 
stroke-linecap:round; stroke-linejoin:round;">
</g>
<g style="fill:#C200C2; fill-opacity:0.0; 
stroke:#C200C2; stroke-width:78.7402; stroke-opacity:1; 
stroke-linecap:round; stroke-linejoin:round;">
<path d="M77165 24015
L77165 33464
" />
<path d="M47244 33464
L47244 24015
" />
<path d="M47244.1 33464.6 A1181.1 1181.1 0.0 0 0 48425.2 34645.7 " />
<path d="M77165.4 24015.7 A1181.1 1181.1 0.0 0 0 75984.3 22834.6 " />
<path d="M75984 34645
L48425 34645
" />
<path d="M75984.3 34645.7 A1181.1 1181.1 0.0 0 0 77165.4 33464.6 " />
<path d="M48425 22834
L75984 22834
" />
<path d="M48425.2 22834.6 A1181.1 1181.1 0.0 0 0 47244.1 24015.7 " />
</g>
<g style="fill:#000000; fill-opacity:0.0; 
stroke:#000000; stroke-width:78.7402; stroke-opacity:1; 
stroke-linecap:round; stroke-linejoin:round;">
</g> 
</svg>
