G04 #@! TF.FileFunction,Copper,L2,Bot,Signal*
%FSLAX46Y46*%
G04 Gerber Fmt 4.6, Leading zero omitted, Abs format (unit mm)*
G04 Created by KiCad (PCBNEW 4.0.7) date Thu Mar 29 16:49:58 2018*
%MOMM*%
%LPD*%
G01*
G04 APERTURE LIST*
%ADD10C,0.100000*%
%ADD11R,1.800000X1.800000*%
%ADD12C,1.800000*%
%ADD13C,2.000000*%
%ADD14R,1.600000X1.600000*%
%ADD15O,1.600000X1.600000*%
%ADD16C,1.524000*%
%ADD17C,1.600000*%
G04 APERTURE END LIST*
D10*
D11*
X138000000Y-73250000D03*
D12*
X140540000Y-73250000D03*
D11*
X148000000Y-63250000D03*
D12*
X150540000Y-63250000D03*
D11*
X128000000Y-83250000D03*
D12*
X130540000Y-83250000D03*
D11*
X128000000Y-63250000D03*
D12*
X130540000Y-63250000D03*
D11*
X148000000Y-83250000D03*
D12*
X150540000Y-83250000D03*
D11*
X137960000Y-63250000D03*
D12*
X140500000Y-63250000D03*
D11*
X138000000Y-83250000D03*
D12*
X140540000Y-83250000D03*
D13*
X161000000Y-80500000D03*
X161000000Y-85000000D03*
X167500000Y-80500000D03*
X167500000Y-85000000D03*
D14*
X159920000Y-66000000D03*
D15*
X167540000Y-73620000D03*
X162460000Y-66000000D03*
X165000000Y-73620000D03*
X165000000Y-66000000D03*
X162460000Y-73620000D03*
X167540000Y-66000000D03*
X159920000Y-73620000D03*
D16*
X183000000Y-84500000D03*
X183000000Y-64000000D03*
D17*
X155000000Y-74250000D03*
D15*
X144840000Y-74250000D03*
D17*
X155000000Y-68500000D03*
D15*
X144840000Y-68500000D03*
D17*
X123340000Y-74250000D03*
D15*
X133500000Y-74250000D03*
D17*
X123340000Y-68500000D03*
D15*
X133500000Y-68500000D03*
D17*
X155000000Y-77750000D03*
D15*
X144840000Y-77750000D03*
D17*
X166000000Y-61000000D03*
D15*
X155840000Y-61000000D03*
D17*
X123340000Y-77750000D03*
D15*
X133500000Y-77750000D03*
M02*
