G04 #@! TF.FileFunction,Legend,Bot*
%FSLAX46Y46*%
G04 Gerber Fmt 4.6, Leading zero omitted, Abs format (unit mm)*
G04 Created by KiCad (PCBNEW 4.0.7) date Thu Mar 29 16:49:58 2018*
%MOMM*%
%LPD*%
G01*
G04 APERTURE LIST*
%ADD10C,0.100000*%
%ADD11C,0.120000*%
%ADD12C,0.150000*%
G04 APERTURE END LIST*
D10*
D11*
X142260000Y-73249538D02*
G75*
G02X136710000Y-74794830I-2990000J-462D01*
G01*
X142260000Y-73250462D02*
G75*
G03X136710000Y-71705170I-2990000J462D01*
G01*
X141770000Y-73250000D02*
G75*
G03X141770000Y-73250000I-2500000J0D01*
G01*
X136710000Y-74795000D02*
X136710000Y-71705000D01*
X152260000Y-63249538D02*
G75*
G02X146710000Y-64794830I-2990000J-462D01*
G01*
X152260000Y-63250462D02*
G75*
G03X146710000Y-61705170I-2990000J462D01*
G01*
X151770000Y-63250000D02*
G75*
G03X151770000Y-63250000I-2500000J0D01*
G01*
X146710000Y-64795000D02*
X146710000Y-61705000D01*
X132260000Y-83249538D02*
G75*
G02X126710000Y-84794830I-2990000J-462D01*
G01*
X132260000Y-83250462D02*
G75*
G03X126710000Y-81705170I-2990000J462D01*
G01*
X131770000Y-83250000D02*
G75*
G03X131770000Y-83250000I-2500000J0D01*
G01*
X126710000Y-84795000D02*
X126710000Y-81705000D01*
X132260000Y-63249538D02*
G75*
G02X126710000Y-64794830I-2990000J-462D01*
G01*
X132260000Y-63250462D02*
G75*
G03X126710000Y-61705170I-2990000J462D01*
G01*
X131770000Y-63250000D02*
G75*
G03X131770000Y-63250000I-2500000J0D01*
G01*
X126710000Y-64795000D02*
X126710000Y-61705000D01*
X152260000Y-83249538D02*
G75*
G02X146710000Y-84794830I-2990000J-462D01*
G01*
X152260000Y-83250462D02*
G75*
G03X146710000Y-81705170I-2990000J462D01*
G01*
X151770000Y-83250000D02*
G75*
G03X151770000Y-83250000I-2500000J0D01*
G01*
X146710000Y-84795000D02*
X146710000Y-81705000D01*
X142220000Y-63249538D02*
G75*
G02X136670000Y-64794830I-2990000J-462D01*
G01*
X142220000Y-63250462D02*
G75*
G03X136670000Y-61705170I-2990000J462D01*
G01*
X141730000Y-63250000D02*
G75*
G03X141730000Y-63250000I-2500000J0D01*
G01*
X136670000Y-64795000D02*
X136670000Y-61705000D01*
X142260000Y-83249538D02*
G75*
G02X136710000Y-84794830I-2990000J-462D01*
G01*
X142260000Y-83250462D02*
G75*
G03X136710000Y-81705170I-2990000J462D01*
G01*
X141770000Y-83250000D02*
G75*
G03X141770000Y-83250000I-2500000J0D01*
G01*
X136710000Y-84795000D02*
X136710000Y-81705000D01*
X162000000Y-79500000D02*
X166500000Y-79500000D01*
X160750000Y-83500000D02*
X160750000Y-82000000D01*
X166500000Y-86000000D02*
X162000000Y-86000000D01*
X167750000Y-82000000D02*
X167750000Y-83500000D01*
X158590000Y-70810000D02*
G75*
G03X158590000Y-68810000I0J1000000D01*
G01*
X158590000Y-68810000D02*
X158590000Y-67160000D01*
X158590000Y-67160000D02*
X168870000Y-67160000D01*
X168870000Y-67160000D02*
X168870000Y-72460000D01*
X168870000Y-72460000D02*
X158590000Y-72460000D01*
X158590000Y-72460000D02*
X158590000Y-70810000D01*
D12*
X179800000Y-86700000D02*
X179800000Y-81500000D01*
X179800000Y-86700000D02*
X186200000Y-86700000D01*
X186200000Y-86700000D02*
X186200000Y-81500000D01*
X194400000Y-70500000D02*
G75*
G03X194400000Y-70500000I-11400000J0D01*
G01*
D11*
X153130000Y-72940000D02*
X153130000Y-75560000D01*
X153130000Y-75560000D02*
X146710000Y-75560000D01*
X146710000Y-75560000D02*
X146710000Y-72940000D01*
X146710000Y-72940000D02*
X153130000Y-72940000D01*
X154020000Y-74250000D02*
X153130000Y-74250000D01*
X145820000Y-74250000D02*
X146710000Y-74250000D01*
X153130000Y-67190000D02*
X153130000Y-69810000D01*
X153130000Y-69810000D02*
X146710000Y-69810000D01*
X146710000Y-69810000D02*
X146710000Y-67190000D01*
X146710000Y-67190000D02*
X153130000Y-67190000D01*
X154020000Y-68500000D02*
X153130000Y-68500000D01*
X145820000Y-68500000D02*
X146710000Y-68500000D01*
X125210000Y-75560000D02*
X125210000Y-72940000D01*
X125210000Y-72940000D02*
X131630000Y-72940000D01*
X131630000Y-72940000D02*
X131630000Y-75560000D01*
X131630000Y-75560000D02*
X125210000Y-75560000D01*
X124320000Y-74250000D02*
X125210000Y-74250000D01*
X132520000Y-74250000D02*
X131630000Y-74250000D01*
X125210000Y-69810000D02*
X125210000Y-67190000D01*
X125210000Y-67190000D02*
X131630000Y-67190000D01*
X131630000Y-67190000D02*
X131630000Y-69810000D01*
X131630000Y-69810000D02*
X125210000Y-69810000D01*
X124320000Y-68500000D02*
X125210000Y-68500000D01*
X132520000Y-68500000D02*
X131630000Y-68500000D01*
X153130000Y-76440000D02*
X153130000Y-79060000D01*
X153130000Y-79060000D02*
X146710000Y-79060000D01*
X146710000Y-79060000D02*
X146710000Y-76440000D01*
X146710000Y-76440000D02*
X153130000Y-76440000D01*
X154020000Y-77750000D02*
X153130000Y-77750000D01*
X145820000Y-77750000D02*
X146710000Y-77750000D01*
X164130000Y-59690000D02*
X164130000Y-62310000D01*
X164130000Y-62310000D02*
X157710000Y-62310000D01*
X157710000Y-62310000D02*
X157710000Y-59690000D01*
X157710000Y-59690000D02*
X164130000Y-59690000D01*
X165020000Y-61000000D02*
X164130000Y-61000000D01*
X156820000Y-61000000D02*
X157710000Y-61000000D01*
X125210000Y-79060000D02*
X125210000Y-76440000D01*
X125210000Y-76440000D02*
X131630000Y-76440000D01*
X131630000Y-76440000D02*
X131630000Y-79060000D01*
X131630000Y-79060000D02*
X125210000Y-79060000D01*
X124320000Y-77750000D02*
X125210000Y-77750000D01*
X132520000Y-77750000D02*
X131630000Y-77750000D01*
D12*
X140008095Y-77662381D02*
X140008095Y-76662381D01*
X139770000Y-76662381D01*
X139627142Y-76710000D01*
X139531904Y-76805238D01*
X139484285Y-76900476D01*
X139436666Y-77090952D01*
X139436666Y-77233810D01*
X139484285Y-77424286D01*
X139531904Y-77519524D01*
X139627142Y-77614762D01*
X139770000Y-77662381D01*
X140008095Y-77662381D01*
X138484285Y-77662381D02*
X139055714Y-77662381D01*
X138770000Y-77662381D02*
X138770000Y-76662381D01*
X138865238Y-76805238D01*
X138960476Y-76900476D01*
X139055714Y-76948095D01*
X145988095Y-63202381D02*
X145988095Y-62202381D01*
X145750000Y-62202381D01*
X145607142Y-62250000D01*
X145511904Y-62345238D01*
X145464285Y-62440476D01*
X145416666Y-62630952D01*
X145416666Y-62773810D01*
X145464285Y-62964286D01*
X145511904Y-63059524D01*
X145607142Y-63154762D01*
X145750000Y-63202381D01*
X145988095Y-63202381D01*
X145035714Y-62297619D02*
X144988095Y-62250000D01*
X144892857Y-62202381D01*
X144654761Y-62202381D01*
X144559523Y-62250000D01*
X144511904Y-62297619D01*
X144464285Y-62392857D01*
X144464285Y-62488095D01*
X144511904Y-62630952D01*
X145083333Y-63202381D01*
X144464285Y-63202381D01*
X125988095Y-83702381D02*
X125988095Y-82702381D01*
X125750000Y-82702381D01*
X125607142Y-82750000D01*
X125511904Y-82845238D01*
X125464285Y-82940476D01*
X125416666Y-83130952D01*
X125416666Y-83273810D01*
X125464285Y-83464286D01*
X125511904Y-83559524D01*
X125607142Y-83654762D01*
X125750000Y-83702381D01*
X125988095Y-83702381D01*
X125083333Y-82702381D02*
X124464285Y-82702381D01*
X124797619Y-83083333D01*
X124654761Y-83083333D01*
X124559523Y-83130952D01*
X124511904Y-83178571D01*
X124464285Y-83273810D01*
X124464285Y-83511905D01*
X124511904Y-83607143D01*
X124559523Y-83654762D01*
X124654761Y-83702381D01*
X124940476Y-83702381D01*
X125035714Y-83654762D01*
X125083333Y-83607143D01*
X125488095Y-63452381D02*
X125488095Y-62452381D01*
X125250000Y-62452381D01*
X125107142Y-62500000D01*
X125011904Y-62595238D01*
X124964285Y-62690476D01*
X124916666Y-62880952D01*
X124916666Y-63023810D01*
X124964285Y-63214286D01*
X125011904Y-63309524D01*
X125107142Y-63404762D01*
X125250000Y-63452381D01*
X125488095Y-63452381D01*
X124059523Y-62785714D02*
X124059523Y-63452381D01*
X124297619Y-62404762D02*
X124535714Y-63119048D01*
X123916666Y-63119048D01*
X145988095Y-83702381D02*
X145988095Y-82702381D01*
X145750000Y-82702381D01*
X145607142Y-82750000D01*
X145511904Y-82845238D01*
X145464285Y-82940476D01*
X145416666Y-83130952D01*
X145416666Y-83273810D01*
X145464285Y-83464286D01*
X145511904Y-83559524D01*
X145607142Y-83654762D01*
X145750000Y-83702381D01*
X145988095Y-83702381D01*
X144511904Y-82702381D02*
X144988095Y-82702381D01*
X145035714Y-83178571D01*
X144988095Y-83130952D01*
X144892857Y-83083333D01*
X144654761Y-83083333D01*
X144559523Y-83130952D01*
X144511904Y-83178571D01*
X144464285Y-83273810D01*
X144464285Y-83511905D01*
X144511904Y-83607143D01*
X144559523Y-83654762D01*
X144654761Y-83702381D01*
X144892857Y-83702381D01*
X144988095Y-83654762D01*
X145035714Y-83607143D01*
X135988095Y-63452381D02*
X135988095Y-62452381D01*
X135750000Y-62452381D01*
X135607142Y-62500000D01*
X135511904Y-62595238D01*
X135464285Y-62690476D01*
X135416666Y-62880952D01*
X135416666Y-63023810D01*
X135464285Y-63214286D01*
X135511904Y-63309524D01*
X135607142Y-63404762D01*
X135750000Y-63452381D01*
X135988095Y-63452381D01*
X134559523Y-62452381D02*
X134750000Y-62452381D01*
X134845238Y-62500000D01*
X134892857Y-62547619D01*
X134988095Y-62690476D01*
X135035714Y-62880952D01*
X135035714Y-63261905D01*
X134988095Y-63357143D01*
X134940476Y-63404762D01*
X134845238Y-63452381D01*
X134654761Y-63452381D01*
X134559523Y-63404762D01*
X134511904Y-63357143D01*
X134464285Y-63261905D01*
X134464285Y-63023810D01*
X134511904Y-62928571D01*
X134559523Y-62880952D01*
X134654761Y-62833333D01*
X134845238Y-62833333D01*
X134940476Y-62880952D01*
X134988095Y-62928571D01*
X135035714Y-63023810D01*
X135988095Y-83702381D02*
X135988095Y-82702381D01*
X135750000Y-82702381D01*
X135607142Y-82750000D01*
X135511904Y-82845238D01*
X135464285Y-82940476D01*
X135416666Y-83130952D01*
X135416666Y-83273810D01*
X135464285Y-83464286D01*
X135511904Y-83559524D01*
X135607142Y-83654762D01*
X135750000Y-83702381D01*
X135988095Y-83702381D01*
X135083333Y-82702381D02*
X134416666Y-82702381D01*
X134845238Y-83702381D01*
X172333333Y-83154762D02*
X172190476Y-83202381D01*
X171952380Y-83202381D01*
X171857142Y-83154762D01*
X171809523Y-83107143D01*
X171761904Y-83011905D01*
X171761904Y-82916667D01*
X171809523Y-82821429D01*
X171857142Y-82773810D01*
X171952380Y-82726190D01*
X172142857Y-82678571D01*
X172238095Y-82630952D01*
X172285714Y-82583333D01*
X172333333Y-82488095D01*
X172333333Y-82392857D01*
X172285714Y-82297619D01*
X172238095Y-82250000D01*
X172142857Y-82202381D01*
X171904761Y-82202381D01*
X171761904Y-82250000D01*
X171428571Y-82202381D02*
X171190476Y-83202381D01*
X170999999Y-82488095D01*
X170809523Y-83202381D01*
X170571428Y-82202381D01*
X169666666Y-83202381D02*
X170238095Y-83202381D01*
X169952381Y-83202381D02*
X169952381Y-82202381D01*
X170047619Y-82345238D01*
X170142857Y-82440476D01*
X170238095Y-82488095D01*
X157042381Y-69048095D02*
X157851905Y-69048095D01*
X157947143Y-69095714D01*
X157994762Y-69143333D01*
X158042381Y-69238571D01*
X158042381Y-69429048D01*
X157994762Y-69524286D01*
X157947143Y-69571905D01*
X157851905Y-69619524D01*
X157042381Y-69619524D01*
X158042381Y-70619524D02*
X158042381Y-70048095D01*
X158042381Y-70333809D02*
X157042381Y-70333809D01*
X157185238Y-70238571D01*
X157280476Y-70143333D01*
X157328095Y-70048095D01*
X189785714Y-83678571D02*
X189642857Y-83726190D01*
X189595238Y-83773810D01*
X189547619Y-83869048D01*
X189547619Y-84011905D01*
X189595238Y-84107143D01*
X189642857Y-84154762D01*
X189738095Y-84202381D01*
X190119048Y-84202381D01*
X190119048Y-83202381D01*
X189785714Y-83202381D01*
X189690476Y-83250000D01*
X189642857Y-83297619D01*
X189595238Y-83392857D01*
X189595238Y-83488095D01*
X189642857Y-83583333D01*
X189690476Y-83630952D01*
X189785714Y-83678571D01*
X190119048Y-83678571D01*
X189261905Y-83202381D02*
X188690476Y-83202381D01*
X188976191Y-84202381D02*
X188976191Y-83202381D01*
X187833333Y-84202381D02*
X188404762Y-84202381D01*
X188119048Y-84202381D02*
X188119048Y-83202381D01*
X188214286Y-83345238D01*
X188309524Y-83440476D01*
X188404762Y-83488095D01*
X144916666Y-72702381D02*
X145250000Y-72226190D01*
X145488095Y-72702381D02*
X145488095Y-71702381D01*
X145107142Y-71702381D01*
X145011904Y-71750000D01*
X144964285Y-71797619D01*
X144916666Y-71892857D01*
X144916666Y-72035714D01*
X144964285Y-72130952D01*
X145011904Y-72178571D01*
X145107142Y-72226190D01*
X145488095Y-72226190D01*
X143964285Y-72702381D02*
X144535714Y-72702381D01*
X144250000Y-72702381D02*
X144250000Y-71702381D01*
X144345238Y-71845238D01*
X144440476Y-71940476D01*
X144535714Y-71988095D01*
X144916666Y-66702381D02*
X145250000Y-66226190D01*
X145488095Y-66702381D02*
X145488095Y-65702381D01*
X145107142Y-65702381D01*
X145011904Y-65750000D01*
X144964285Y-65797619D01*
X144916666Y-65892857D01*
X144916666Y-66035714D01*
X144964285Y-66130952D01*
X145011904Y-66178571D01*
X145107142Y-66226190D01*
X145488095Y-66226190D01*
X144535714Y-65797619D02*
X144488095Y-65750000D01*
X144392857Y-65702381D01*
X144154761Y-65702381D01*
X144059523Y-65750000D01*
X144011904Y-65797619D01*
X143964285Y-65892857D01*
X143964285Y-65988095D01*
X144011904Y-66130952D01*
X144583333Y-66702381D01*
X143964285Y-66702381D01*
X133666666Y-72952381D02*
X134000000Y-72476190D01*
X134238095Y-72952381D02*
X134238095Y-71952381D01*
X133857142Y-71952381D01*
X133761904Y-72000000D01*
X133714285Y-72047619D01*
X133666666Y-72142857D01*
X133666666Y-72285714D01*
X133714285Y-72380952D01*
X133761904Y-72428571D01*
X133857142Y-72476190D01*
X134238095Y-72476190D01*
X133333333Y-71952381D02*
X132714285Y-71952381D01*
X133047619Y-72333333D01*
X132904761Y-72333333D01*
X132809523Y-72380952D01*
X132761904Y-72428571D01*
X132714285Y-72523810D01*
X132714285Y-72761905D01*
X132761904Y-72857143D01*
X132809523Y-72904762D01*
X132904761Y-72952381D01*
X133190476Y-72952381D01*
X133285714Y-72904762D01*
X133333333Y-72857143D01*
X133666666Y-67202381D02*
X134000000Y-66726190D01*
X134238095Y-67202381D02*
X134238095Y-66202381D01*
X133857142Y-66202381D01*
X133761904Y-66250000D01*
X133714285Y-66297619D01*
X133666666Y-66392857D01*
X133666666Y-66535714D01*
X133714285Y-66630952D01*
X133761904Y-66678571D01*
X133857142Y-66726190D01*
X134238095Y-66726190D01*
X132809523Y-66535714D02*
X132809523Y-67202381D01*
X133047619Y-66154762D02*
X133285714Y-66869048D01*
X132666666Y-66869048D01*
X144916666Y-80202381D02*
X145250000Y-79726190D01*
X145488095Y-80202381D02*
X145488095Y-79202381D01*
X145107142Y-79202381D01*
X145011904Y-79250000D01*
X144964285Y-79297619D01*
X144916666Y-79392857D01*
X144916666Y-79535714D01*
X144964285Y-79630952D01*
X145011904Y-79678571D01*
X145107142Y-79726190D01*
X145488095Y-79726190D01*
X144011904Y-79202381D02*
X144488095Y-79202381D01*
X144535714Y-79678571D01*
X144488095Y-79630952D01*
X144392857Y-79583333D01*
X144154761Y-79583333D01*
X144059523Y-79630952D01*
X144011904Y-79678571D01*
X143964285Y-79773810D01*
X143964285Y-80011905D01*
X144011904Y-80107143D01*
X144059523Y-80154762D01*
X144154761Y-80202381D01*
X144392857Y-80202381D01*
X144488095Y-80154762D01*
X144535714Y-80107143D01*
X168916666Y-61202381D02*
X169250000Y-60726190D01*
X169488095Y-61202381D02*
X169488095Y-60202381D01*
X169107142Y-60202381D01*
X169011904Y-60250000D01*
X168964285Y-60297619D01*
X168916666Y-60392857D01*
X168916666Y-60535714D01*
X168964285Y-60630952D01*
X169011904Y-60678571D01*
X169107142Y-60726190D01*
X169488095Y-60726190D01*
X168059523Y-60202381D02*
X168250000Y-60202381D01*
X168345238Y-60250000D01*
X168392857Y-60297619D01*
X168488095Y-60440476D01*
X168535714Y-60630952D01*
X168535714Y-61011905D01*
X168488095Y-61107143D01*
X168440476Y-61154762D01*
X168345238Y-61202381D01*
X168154761Y-61202381D01*
X168059523Y-61154762D01*
X168011904Y-61107143D01*
X167964285Y-61011905D01*
X167964285Y-60773810D01*
X168011904Y-60678571D01*
X168059523Y-60630952D01*
X168154761Y-60583333D01*
X168345238Y-60583333D01*
X168440476Y-60630952D01*
X168488095Y-60678571D01*
X168535714Y-60773810D01*
X133666666Y-79952381D02*
X134000000Y-79476190D01*
X134238095Y-79952381D02*
X134238095Y-78952381D01*
X133857142Y-78952381D01*
X133761904Y-79000000D01*
X133714285Y-79047619D01*
X133666666Y-79142857D01*
X133666666Y-79285714D01*
X133714285Y-79380952D01*
X133761904Y-79428571D01*
X133857142Y-79476190D01*
X134238095Y-79476190D01*
X133333333Y-78952381D02*
X132666666Y-78952381D01*
X133095238Y-79952381D01*
M02*
