M48
;DRILL file {KiCad 5.0.0} date Mon Aug 27 22:55:57 2018
;FORMAT={-:-/ absolute / metric / decimal}
FMAT,2
METRIC,TZ
T1C0.800
T2C0.900
T3C1.100
T4C1.200
%
G90
G05
M71
T1
X159.92Y-73.62
X155.Y-68.5
X155.84Y-61.
X166.Y-61.
X123.34Y-74.25
X133.5Y-74.25
X123.34Y-68.5
X133.5Y-68.5
X159.92Y-66.
X162.46Y-66.
X162.46Y-73.62
X165.Y-66.
X165.Y-73.62
X167.54Y-66.
X167.54Y-73.62
X123.34Y-77.75
X133.5Y-77.75
X144.84Y-74.25
X155.Y-74.25
X144.84Y-68.5
X144.84Y-77.75
X155.Y-77.75
T2
X138.Y-83.25
X140.54Y-83.25
X128.Y-83.25
X130.54Y-83.25
X138.Y-73.25
X140.54Y-73.25
X148.Y-83.25
X150.54Y-83.25
X128.Y-63.25
X130.54Y-63.25
X137.96Y-63.25
X140.5Y-63.25
X148.Y-63.25
X150.54Y-63.25
T3
X161.Y-80.5
X161.Y-85.
X167.5Y-80.5
X167.5Y-85.
T4
X183.Y-64.
X183.Y-84.5
T0
M30
