G04 #@! TF.FileFunction,Soldermask,Top*
%FSLAX46Y46*%
G04 Gerber Fmt 4.6, Leading zero omitted, Abs format (unit mm)*
G04 Created by KiCad (PCBNEW 4.0.7) date Thu Mar 29 16:49:58 2018*
%MOMM*%
%LPD*%
G01*
G04 APERTURE LIST*
%ADD10C,0.100000*%
%ADD11C,0.300000*%
%ADD12R,2.200000X2.200000*%
%ADD13C,2.200000*%
%ADD14C,2.400000*%
%ADD15R,2.000000X2.000000*%
%ADD16O,2.000000X2.000000*%
%ADD17C,1.924000*%
%ADD18C,2.000000*%
G04 APERTURE END LIST*
D10*
D11*
X178714288Y-72428571D02*
X179071431Y-73928571D01*
X179357145Y-72857143D01*
X179642859Y-73928571D01*
X180000002Y-72428571D01*
X181214288Y-72928571D02*
X181214288Y-73928571D01*
X180571431Y-72928571D02*
X180571431Y-73714286D01*
X180642859Y-73857143D01*
X180785717Y-73928571D01*
X181000002Y-73928571D01*
X181142859Y-73857143D01*
X181214288Y-73785714D01*
X182500002Y-73857143D02*
X182357145Y-73928571D01*
X182071431Y-73928571D01*
X181928574Y-73857143D01*
X181857145Y-73714286D01*
X181857145Y-73142857D01*
X181928574Y-73000000D01*
X182071431Y-72928571D01*
X182357145Y-72928571D01*
X182500002Y-73000000D01*
X182571431Y-73142857D01*
X182571431Y-73285714D01*
X181857145Y-73428571D01*
X183214288Y-73928571D02*
X183214288Y-72928571D01*
X183214288Y-73214286D02*
X183285716Y-73071429D01*
X183357145Y-73000000D01*
X183500002Y-72928571D01*
X183642859Y-72928571D01*
X183928573Y-72928571D02*
X184500002Y-72928571D01*
X184142859Y-73928571D02*
X184142859Y-72642857D01*
X184214287Y-72500000D01*
X184357145Y-72428571D01*
X184500002Y-72428571D01*
X185571430Y-73857143D02*
X185428573Y-73928571D01*
X185142859Y-73928571D01*
X185000002Y-73857143D01*
X184928573Y-73714286D01*
X184928573Y-73142857D01*
X185000002Y-73000000D01*
X185142859Y-72928571D01*
X185428573Y-72928571D01*
X185571430Y-73000000D01*
X185642859Y-73142857D01*
X185642859Y-73285714D01*
X184928573Y-73428571D01*
X186500002Y-73928571D02*
X186357144Y-73857143D01*
X186285716Y-73714286D01*
X186285716Y-72428571D01*
X186714287Y-74071429D02*
X187857144Y-74071429D01*
X188214287Y-73928571D02*
X188214287Y-72928571D01*
X188214287Y-73214286D02*
X188285715Y-73071429D01*
X188357144Y-73000000D01*
X188500001Y-72928571D01*
X188642858Y-72928571D01*
X189428572Y-72428571D02*
X189571429Y-72428571D01*
X189714286Y-72500000D01*
X189785715Y-72571429D01*
X189857144Y-72714286D01*
X189928572Y-73000000D01*
X189928572Y-73357143D01*
X189857144Y-73642857D01*
X189785715Y-73785714D01*
X189714286Y-73857143D01*
X189571429Y-73928571D01*
X189428572Y-73928571D01*
X189285715Y-73857143D01*
X189214286Y-73785714D01*
X189142858Y-73642857D01*
X189071429Y-73357143D01*
X189071429Y-73000000D01*
X189142858Y-72714286D01*
X189214286Y-72571429D01*
X189285715Y-72500000D01*
X189428572Y-72428571D01*
X191357143Y-73928571D02*
X190500000Y-73928571D01*
X190928572Y-73928571D02*
X190928572Y-72428571D01*
X190785715Y-72642857D01*
X190642857Y-72785714D01*
X190500000Y-72857143D01*
X192285714Y-72428571D02*
X192428571Y-72428571D01*
X192571428Y-72500000D01*
X192642857Y-72571429D01*
X192714286Y-72714286D01*
X192785714Y-73000000D01*
X192785714Y-73357143D01*
X192714286Y-73642857D01*
X192642857Y-73785714D01*
X192571428Y-73857143D01*
X192428571Y-73928571D01*
X192285714Y-73928571D01*
X192142857Y-73857143D01*
X192071428Y-73785714D01*
X192000000Y-73642857D01*
X191928571Y-73357143D01*
X191928571Y-73000000D01*
X192000000Y-72714286D01*
X192071428Y-72571429D01*
X192142857Y-72500000D01*
X192285714Y-72428571D01*
X193357142Y-72571429D02*
X193428571Y-72500000D01*
X193571428Y-72428571D01*
X193928571Y-72428571D01*
X194071428Y-72500000D01*
X194142857Y-72571429D01*
X194214285Y-72714286D01*
X194214285Y-72857143D01*
X194142857Y-73071429D01*
X193285714Y-73928571D01*
X194214285Y-73928571D01*
X178214285Y-69428571D02*
X178499999Y-70428571D01*
X178785713Y-69714286D01*
X179071428Y-70428571D01*
X179357142Y-69428571D01*
X179785714Y-69428571D02*
X180071428Y-70428571D01*
X180357142Y-69714286D01*
X180642857Y-70428571D01*
X180928571Y-69428571D01*
X181357143Y-69428571D02*
X181642857Y-70428571D01*
X181928571Y-69714286D01*
X182214286Y-70428571D01*
X182500000Y-69428571D01*
X183071429Y-70285714D02*
X183142857Y-70357143D01*
X183071429Y-70428571D01*
X183000000Y-70357143D01*
X183071429Y-70285714D01*
X183071429Y-70428571D01*
X183571429Y-69428571D02*
X184142858Y-69428571D01*
X183785715Y-70428571D02*
X183785715Y-69142857D01*
X183857143Y-69000000D01*
X184000001Y-68928571D01*
X184142858Y-68928571D01*
X185285715Y-70428571D02*
X185285715Y-69642857D01*
X185214286Y-69500000D01*
X185071429Y-69428571D01*
X184785715Y-69428571D01*
X184642858Y-69500000D01*
X185285715Y-70357143D02*
X185142858Y-70428571D01*
X184785715Y-70428571D01*
X184642858Y-70357143D01*
X184571429Y-70214286D01*
X184571429Y-70071429D01*
X184642858Y-69928571D01*
X184785715Y-69857143D01*
X185142858Y-69857143D01*
X185285715Y-69785714D01*
X186000001Y-70428571D02*
X186000001Y-69428571D01*
X186000001Y-69714286D02*
X186071429Y-69571429D01*
X186142858Y-69500000D01*
X186285715Y-69428571D01*
X186428572Y-69428571D01*
X187571429Y-70428571D02*
X187571429Y-69642857D01*
X187500000Y-69500000D01*
X187357143Y-69428571D01*
X187071429Y-69428571D01*
X186928572Y-69500000D01*
X187571429Y-70357143D02*
X187428572Y-70428571D01*
X187071429Y-70428571D01*
X186928572Y-70357143D01*
X186857143Y-70214286D01*
X186857143Y-70071429D01*
X186928572Y-69928571D01*
X187071429Y-69857143D01*
X187428572Y-69857143D01*
X187571429Y-69785714D01*
X188071429Y-69428571D02*
X188642858Y-69428571D01*
X188285715Y-70428571D02*
X188285715Y-69142857D01*
X188357143Y-69000000D01*
X188500001Y-68928571D01*
X188642858Y-68928571D01*
X189714286Y-70357143D02*
X189571429Y-70428571D01*
X189285715Y-70428571D01*
X189142858Y-70357143D01*
X189071429Y-70214286D01*
X189071429Y-69642857D01*
X189142858Y-69500000D01*
X189285715Y-69428571D01*
X189571429Y-69428571D01*
X189714286Y-69500000D01*
X189785715Y-69642857D01*
X189785715Y-69785714D01*
X189071429Y-69928571D01*
X190428572Y-70428571D02*
X190428572Y-69428571D01*
X190428572Y-68928571D02*
X190357143Y-69000000D01*
X190428572Y-69071429D01*
X190500000Y-69000000D01*
X190428572Y-68928571D01*
X190428572Y-69071429D01*
X190928572Y-69428571D02*
X191500001Y-69428571D01*
X191142858Y-68928571D02*
X191142858Y-70214286D01*
X191214286Y-70357143D01*
X191357144Y-70428571D01*
X191500001Y-70428571D01*
X192000001Y-70285714D02*
X192071429Y-70357143D01*
X192000001Y-70428571D01*
X191928572Y-70357143D01*
X192000001Y-70285714D01*
X192000001Y-70428571D01*
X193357144Y-70428571D02*
X193357144Y-68928571D01*
X193357144Y-70357143D02*
X193214287Y-70428571D01*
X192928573Y-70428571D01*
X192785715Y-70357143D01*
X192714287Y-70285714D01*
X192642858Y-70142857D01*
X192642858Y-69714286D01*
X192714287Y-69571429D01*
X192785715Y-69500000D01*
X192928573Y-69428571D01*
X193214287Y-69428571D01*
X193357144Y-69500000D01*
X194642858Y-70357143D02*
X194500001Y-70428571D01*
X194214287Y-70428571D01*
X194071430Y-70357143D01*
X194000001Y-70214286D01*
X194000001Y-69642857D01*
X194071430Y-69500000D01*
X194214287Y-69428571D01*
X194500001Y-69428571D01*
X194642858Y-69500000D01*
X194714287Y-69642857D01*
X194714287Y-69785714D01*
X194000001Y-69928571D01*
D12*
X138000000Y-73250000D03*
D13*
X140540000Y-73250000D03*
D12*
X148000000Y-63250000D03*
D13*
X150540000Y-63250000D03*
D12*
X128000000Y-83250000D03*
D13*
X130540000Y-83250000D03*
D12*
X128000000Y-63250000D03*
D13*
X130540000Y-63250000D03*
D12*
X148000000Y-83250000D03*
D13*
X150540000Y-83250000D03*
D12*
X137960000Y-63250000D03*
D13*
X140500000Y-63250000D03*
D12*
X138000000Y-83250000D03*
D13*
X140540000Y-83250000D03*
D14*
X161000000Y-80500000D03*
X161000000Y-85000000D03*
X167500000Y-80500000D03*
X167500000Y-85000000D03*
D15*
X159920000Y-66000000D03*
D16*
X167540000Y-73620000D03*
X162460000Y-66000000D03*
X165000000Y-73620000D03*
X165000000Y-66000000D03*
X162460000Y-73620000D03*
X167540000Y-66000000D03*
X159920000Y-73620000D03*
D17*
X183000000Y-84500000D03*
X183000000Y-64000000D03*
D18*
X155000000Y-74250000D03*
D16*
X144840000Y-74250000D03*
D18*
X155000000Y-68500000D03*
D16*
X144840000Y-68500000D03*
D18*
X123340000Y-74250000D03*
D16*
X133500000Y-74250000D03*
D18*
X123340000Y-68500000D03*
D16*
X133500000Y-68500000D03*
D18*
X155000000Y-77750000D03*
D16*
X144840000Y-77750000D03*
D18*
X166000000Y-61000000D03*
D16*
X155840000Y-61000000D03*
D18*
X123340000Y-77750000D03*
D16*
X133500000Y-77750000D03*
M02*
